<?xml version="1.0" encoding="utf-8"?>
<!-- Generator: Adobe Illustrator 26.0.3, SVG Export Plug-In . SVG Version: 6.00 Build 0)  -->
<svg version="1.1" xmlns="http://www.w3.org/2000/svg" xmlns:xlink="http://www.w3.org/1999/xlink" x="0px" y="0px"
	 viewBox="0 0 65 65" style="enable-background:new 0 0 65 65;" xml:space="preserve">
<style type="text/css">
	.st00{fill:#6475A5;}
	.st01{fill:#1F212B;}
	.st02{fill:#FDFCEE;}
</style>
<path class="st00" d="M52,64H13C6.4,64,1,58.6,1,52V13C1,6.4,6.4,1,13,1h39c6.6,0,12,5.4,12,12v39C64,58.6,58.6,64,52,64z"/>
<path class="st01" d="M52,65H13C5.8,65,0,59.2,0,52V13C0,5.8,5.8,0,13,0h39c7.2,0,13,5.8,13,13v39C65,59.2,59.2,65,52,65z M13,2
	C6.9,2,2,6.9,2,13v39c0,6.1,4.9,11,11,11h39c6.1,0,11-4.9,11-11V13c0-6.1-4.9-11-11-11H13z"/>
<path class="st00" d="M59.5,30.5v18.7c0,5.7-4.7,10.3-10.3,10.3H15.8c-5.7,0-10.3-4.7-10.3-10.3V15.8c0-5.7,4.7-10.3,10.3-10.3h33.7"
	/>
<path class="st01" d="M49.2,60H15.8C9.9,60,5,55.1,5,49.2V15.8C5,9.9,9.9,5,15.8,5h33.7C49.8,5,50,5.2,50,5.5S49.8,6,49.5,6H15.8
	C10.4,6,6,10.4,6,15.8v33.3c0,5.4,4.4,9.8,9.8,9.8h33.3c5.4,0,9.8-4.4,9.8-9.8V30.5c0-0.3,0.2-0.5,0.5-0.5s0.5,0.2,0.5,0.5v18.7
	C60,55.1,55.1,60,49.2,60z"/>
<path class="st01" d="M59.5,29c-0.3,0-0.5-0.2-0.5-0.5v-4c0-0.3,0.2-0.5,0.5-0.5s0.5,0.2,0.5,0.5v4C60,28.8,59.8,29,59.5,29z
	 M59.5,23c-0.3,0-0.5-0.2-0.5-0.5v-2c0-0.3,0.2-0.5,0.5-0.5s0.5,0.2,0.5,0.5v2C60,22.8,59.8,23,59.5,23z"/>
<path class="st02" d="M27.5,23.1c0,0.9,0,4.4,0,4.4h-3v5h3v16h7v-16h4.1c0,0,0.4-2.4,0.6-5c-0.5,0-5.7,0-5.7,0s0-3.1,0-3.7
	c0-0.6,0.7-1.3,1.4-1.3c0.7,0,3.1,0,4.6,0c0-0.8,0-3.5,0-6c-1.9,0-4.1,0-5,0C27.3,16.5,27.5,22.3,27.5,23.1z"/>
<path class="st01" d="M34.5,49h-7c-0.3,0-0.5-0.2-0.5-0.5V33h-2.5c-0.3,0-0.5-0.2-0.5-0.5v-5c0-0.3,0.2-0.5,0.5-0.5H27v-3.9h0.5
	L27,23.1c0-2.2,0.6-3.9,1.8-5.1c1.3-1.3,3.2-2,5.6-2h5c0.3,0,0.5,0.2,0.5,0.5v6c0,0.3-0.2,0.5-0.5,0.5h-4.6c-0.5,0-0.9,0.5-0.9,0.8
	V27h5.2c0.1,0,0.3,0.1,0.4,0.2c0.1,0.1,0.1,0.2,0.1,0.4c-0.2,2.6-0.6,5-0.6,5c0,0.2-0.2,0.4-0.5,0.4H35v15.5
	C35,48.8,34.8,49,34.5,49z M28,48h6V32.5c0-0.3,0.2-0.5,0.5-0.5h3.7c0.1-0.7,0.3-2.3,0.5-4h-5.1c-0.3,0-0.5-0.2-0.5-0.5v-3.7
	c0-0.9,1-1.8,1.9-1.8H39v-5h-4.5c-2.2,0-3.8,0.6-4.9,1.7c-1,1-1.6,2.5-1.6,4.4v0.1v4.4c0,0.3-0.2,0.5-0.5,0.5H25v4h2.5
	c0.3,0,0.5,0.2,0.5,0.5V48z"/>
</svg>
