<?xml version="1.0" encoding="utf-8"?>
<!-- Generator: Adobe Illustrator 26.0.3, SVG Export Plug-In . SVG Version: 6.00 Build 0)  -->
<svg version="1.1" xmlns="http://www.w3.org/2000/svg" xmlns:xlink="http://www.w3.org/1999/xlink" x="0px" y="0px"
	 viewBox="0 0 66 66" style="enable-background:new 0 0 66 66;" xml:space="preserve">
<style type="text/css">
	.st0{fill:#4E5FD8;}
	.st1{fill:#7550CC;}
	.st2{fill:#9C32C8;}
	.st3{fill:#D515A3;}
	.st4{fill:#EC007A;}
	.st5{fill:#FF492E;}
	.st6{fill:#FF7A02;}
	.st7{fill:#FFA823;}
	.st8{fill:#FFCA58;}
	.st9{fill:#FFDB73;}
	.st10{fill:#FFFFFF;}
	.st11{fill:#1F212B;}
</style>
<path class="st0" d="M65,14v38c0,2-0.5,3.9-1.3,5.6c-1.1,2.3-2.9,4.3-5.2,5.6C56.7,64.3,54.4,65,52,65H14c-1.5,0-2.9-0.2-4.2-0.7h0
	C7.4,63.5,5.3,62,3.7,60C2,57.8,1,55,1,52V14c0-0.6,0-1.2,0.1-1.7c0.1-0.8,0.3-1.5,0.5-2.2C3.3,4.8,8.2,1,14,1h38
	c0.4,0,0.8,0,1.3,0.1h0c0.8,0.1,1.5,0.2,2.2,0.4c4.7,1.3,8.3,5.2,9.2,10.1c0.1,0.5,0.2,0.9,0.2,1.4C65,13.3,65,13.6,65,14z"/>
<path class="st1" d="M64.8,11.6c-0.9-4.9-4.5-8.8-9.2-10.1c-0.7-0.2-1.5-0.3-2.2-0.4h0C53.1,1,53,1,52.9,1H29.1
	C18.9,2.7,9.4,6.6,1.1,12.3C1,12.8,1,13.4,1,14v38c0,3,1,5.8,2.7,8c1.5,2,3.6,3.5,6,4.3h0c1.3,0.4,2.7,0.7,4.2,0.7h38
	c2.4,0,4.7-0.7,6.6-1.8c2.2-1.3,4-3.2,5.2-5.6C64.5,55.9,65,54,65,52V14c0-0.4,0-0.7-0.1-1.1C64.9,12.5,64.8,12,64.8,11.6z"/>
<path class="st2" d="M65,14v38c0,2-0.5,3.9-1.3,5.6c-1.1,2.3-2.9,4.3-5.2,5.6C56.7,64.3,54.4,65,52,65H14c-1.5,0-2.9-0.2-4.2-0.7h0
	C7.4,63.5,5.3,62,3.7,60C2,57.8,1,55,1,52V21C12,12.2,25.9,7,41,7c8.4,0,16.4,1.6,23.8,4.6c0.1,0.5,0.2,0.9,0.2,1.4
	C65,13.3,65,13.6,65,14z"/>
<path class="st3" d="M65,19.3V52c0,2-0.5,3.9-1.3,5.6c-1.1,2.3-2.9,4.3-5.2,5.6C56.7,64.3,54.4,65,52,65H14c-1.5,0-2.9-0.2-4.2-0.7
	h0C7.4,63.5,5.3,62,3.7,60C2,57.8,1,55,1,52V30.4C11.3,20.3,25.4,14,41,14C49.6,14,57.7,15.9,65,19.3z"/>
<path class="st4" d="M65,27.1V52c0,2-0.5,3.9-1.3,5.6c-1.1,2.3-2.9,4.3-5.2,5.6C56.7,64.3,54.4,65,52,65H14c-1.5,0-2.9-0.2-4.2-0.7
	h0C7.4,63.5,5.3,62,3.7,60C2,57.8,1,55,1,52V41c9.1-12.1,23.6-20,40-20C49.7,21,57.9,23.2,65,27.1z"/>
<path class="st5" d="M65,49.1V52c0,3-1,5.8-2.7,8c-1.5,2-3.6,3.5-6.1,4.3h0C54.9,64.8,53.5,65,52,65H14c-2.4,0-4.6-0.7-6.6-1.8
	c-2.2-1.3-4-3.2-5.1-5.6C1.5,55.9,1,54,1,52V37.5c7.4-6,16.8-9.5,27-9.5C43.7,28,57.5,36.5,65,49.1z"/>
<path class="st6" d="M62.3,60c-1.5,2-3.6,3.5-6.1,4.3h0C54.9,64.8,53.5,65,52,65H14c-2.4,0-4.6-0.7-6.6-1.8c-2.2-1.3-4-3.2-5.1-5.6
	C1.5,55.9,1,54,1,52v-4.8C7.6,39.7,17.2,35,28,35C44,35,57.6,45.5,62.3,60z"/>
<path class="st7" d="M56.2,64.3C54.9,64.8,53.5,65,52,65H14c-2.4,0-4.6-0.7-6.6-1.8c-2.2-1.3-4-3.2-5.1-5.6C7.1,48.3,16.8,42,28,42
	C41.7,42,53.2,51.5,56.2,64.3z"/>
<path class="st8" d="M49.2,65H14c-2.4,0-4.6-0.7-6.6-1.8C10.6,54.9,18.6,49,28,49C38.1,49,46.6,55.8,49.2,65z"/>
<path class="st9" d="M41.8,65H14.2c2.3-5.3,7.6-9,13.8-9S39.4,59.7,41.8,65z"/>
<path class="st10" d="M43,9.5H23C15.6,9.5,9.5,15.6,9.5,23v20c0,7.4,6.1,13.5,13.5,13.5h20c7.4,0,13.5-6.1,13.5-13.5V23
	C56.5,15.6,50.4,9.5,43,9.5z M52.5,43c0,5.2-4.3,9.5-9.5,9.5H23c-5.2,0-9.5-4.3-9.5-9.5V23c0-5.2,4.3-9.5,9.5-9.5h20
	c5.2,0,9.5,4.3,9.5,9.5V43z M33,44.5c-6.3,0-11.5-5.2-11.5-11.5S26.7,21.5,33,21.5S44.5,26.7,44.5,33S39.3,44.5,33,44.5z M33,25.5
	c-4.1,0-7.5,3.4-7.5,7.5s3.4,7.5,7.5,7.5s7.5-3.4,7.5-7.5S37.1,25.5,33,25.5z M48.5,20.5c0,1.7-1.3,3-3,3s-3-1.3-3-3s1.3-3,3-3
	C47.2,17.5,48.5,18.8,48.5,20.5z"/>
<path class="st11" d="M43,57H23c-7.7,0-14-6.3-14-14V23c0-7.7,6.3-14,14-14h20c7.7,0,14,6.3,14,14v20C57,50.7,50.7,57,43,57z M23,10
	c-7.2,0-13,5.8-13,13v20c0,7.2,5.8,13,13,13h20c7.2,0,13-5.8,13-13V23c0-7.2-5.8-13-13-13H23z M43,53H23c-5.5,0-10-4.5-10-10V23
	c0-5.5,4.5-10,10-10h20c5.5,0,10,4.5,10,10v20C53,48.5,48.5,53,43,53z M23,14c-5,0-9,4-9,9v20c0,5,4,9,9,9h20c5,0,9-4,9-9V23
	c0-5-4-9-9-9H23z M33,45c-6.6,0-12-5.4-12-12s5.4-12,12-12s12,5.4,12,12S39.6,45,33,45z M33,22c-6.1,0-11,4.9-11,11s4.9,11,11,11
	s11-4.9,11-11S39.1,22,33,22z M33,41c-4.4,0-8-3.6-8-8s3.6-8,8-8s8,3.6,8,8S37.4,41,33,41z M33,26c-3.9,0-7,3.1-7,7s3.1,7,7,7
	s7-3.1,7-7S36.9,26,33,26z M45.5,24c-1.9,0-3.5-1.6-3.5-3.5s1.6-3.5,3.5-3.5s3.5,1.6,3.5,3.5S47.4,24,45.5,24z M45.5,18
	c-1.4,0-2.5,1.1-2.5,2.5s1.1,2.5,2.5,2.5s2.5-1.1,2.5-2.5S46.9,18,45.5,18z M52,66H14C6.3,66,0,59.7,0,52V14C0,6.3,6.3,0,14,0h38
	c7.7,0,14,6.3,14,14v38C66,59.7,59.7,66,52,66z M14,2C7.4,2,2,7.4,2,14v38c0,6.6,5.4,12,12,12h38c6.6,0,12-5.4,12-12V14
	c0-6.6-5.4-12-12-12H14z"/>
</svg>
