<svg data-name="Calque 1" xmlns="http://www.w3.org/2000/svg" viewBox="0 0 68.03 68.03">
  <defs>
    <style>.cs-1 {
      fill: #fff;
    }

    .cs-2 {
      fill: #f1c76b;
    }

    .cs-3 {
      fill: #3c3c3c;
    }

    .cs-4 {
      fill: #320033;
      isolation: isolate;
      opacity: 0.2;
    }

    .cs-5 {
      fill: #344940;
    }</style>
  </defs>
  <path class="cs-1"
        d="M56.47,54.1c4-4.56,5.74-11.56,4.78-20.79S56,15.54,46.91,12.42C24,4.54,7,29.81,9,37.86c2.87,11.49,12.88,19.88,24,21.8C43.69,61.48,51.7,59.51,56.47,54.1Z"/>
  <path class="cs-2"
        d="M59.76,43.07A18.92,18.92,0,0,1,34.21,52.4a20,20,0,0,1-9.69-26.09A18.91,18.91,0,0,1,50.05,17,20,20,0,0,1,59.76,43.07Z"/>
  <path class="cs-3"
        d="M50.39,38.6a8.84,8.84,0,0,1-12,4.36,9.34,9.34,0,0,1-4.53-12.2A8.83,8.83,0,0,1,45.85,26.4,9.38,9.38,0,0,1,50.39,38.6Z"/>
  <path class="cs-4"
        d="M46.92,12.42C24,4.54,7,29.81,9,37.86c1.21,4.82,5.92,15.17,17.3,19.87C19.66,52.1,7,39,18.42,28.2c15-14.15,32.43-12.3,39,1.09a45.69,45.69,0,0,1,3.89,13C62.1,31.23,60.28,17,46.92,12.42Z"/>
  <path class="cs-5"
        d="M62,38.55a35.6,35.6,0,0,0-.82-5.79,36,36,0,0,0-1.84-6.08,25.9,25.9,0,0,0-3.89-6.46c-.43-.48-.94-.9-1.41-1.37l-.72-.69-.82-.55-1.67-1.13c-.62-.28-1.24-.56-1.88-.83L48,15.22,47,15l-2.08-.51c-1.44-.2-2.93-.28-4.43-.43l-4.62.28c-.83.15-1.68.28-2.52.42l-2.3.51a29.58,29.58,0,0,0-9.12,4.06,23.71,23.71,0,0,0-7.28,7.17,21.94,21.94,0,0,0-2.16,4.61A17.88,17.88,0,0,0,11.73,36a18.78,18.78,0,0,0,2.58,9.08,29.6,29.6,0,0,0,5.45,6.69,50.49,50.49,0,0,0,5.73,4.51l2.56,1.65,2.24,1.29c1.35.8,2.47,1.33,3.19,1.74l1.14.61-1.24-.24a35.53,35.53,0,0,1-3.49-.78l-2.46-.71c-.9-.31-1.84-.7-2.87-1.08s-2.07-1-3.22-1.48a38.61,38.61,0,0,1-3.42-2.1,26.28,26.28,0,0,1-7-6.71,22.38,22.38,0,0,1-4.2-11.93,25.18,25.18,0,0,1,.78-7.35,25.63,25.63,0,0,1,2.83-6.65,30.17,30.17,0,0,1,9.1-9.38A34.76,34.76,0,0,1,30.24,8.6L33,8.06l2.55-.23c1.93,0,3.58,0,5.33,0A48.49,48.49,0,0,1,46,8.78l2.39.88,1.17.46,1.11.64L52.81,12c.66.54,1.29,1.09,1.89,1.64l.9.83c.27.33.52.65.79,1,.5.65,1,1.24,1.47,1.91a26.8,26.8,0,0,1,3.48,8.17,33,33,0,0,1,1,6.92A34.11,34.11,0,0,1,62.19,37C62.1,38,62,38.55,62,38.55Z"/>
</svg>
