<svg xmlns="http://www.w3.org/2000/svg" width="100px" height="100px" viewBox="0 0 283.4 283.4">
  <defs>
    <style>.c1, .c3 {
      fill: none;
      stroke-miterlimit: 10;
    }

    .c1 {
      stroke: #f1c76b;
    }

    .c2 {
      fill: #4f4949;
    }

    .c3 {
      stroke: url(#dégradé);
    }

    .c4 {
      fill: #fff;
    }

    .c5 {
      fill: #679380;
    }</style>
    <linearGradient id="dégradé" x1="117.44" y1="159.42" x2="170.97" y2="159.42"
                    gradientUnits="userSpaceOnUse">
      <stop offset="0" stop-color="#65b869"/>
      <stop offset="1" stop-color="#41ae85"/>
    </linearGradient>
  </defs>
  <circle class="c1" cx="143.24" cy="141.7" r="108.22"/>
  <path class="c2"
        d="M106.21,123.06c.24,0,.48.24,1,.24.47-.75,1.38-1.11,1.54-2.18.28,0,.36-.16.63-.16a2.06,2.06,0,0,1,1.19-2,1.59,1.59,0,0,1-.08-.39,5.71,5.71,0,0,1,1.59-2.93c.47-2.34,1.22-4.36,1.22-6.3a7.21,7.21,0,0,0-2.73-5.47c-.12-.08-.55,0-.83-.15-.12-.08-.24-.52-.36-.52s-.31.08-.51.08a1.94,1.94,0,0,1-1-.4,9.74,9.74,0,0,0-1.86-.11,7,7,0,0,0-2.66.43,5.3,5.3,0,0,1-1,.16c-.31.12-.51.4-.83.51s-.83,0-1.19.2a6.6,6.6,0,0,0-1.14.68c-.4.19-.92.15-1,.63a5,5,0,0,0-2.66,1.35,38.24,38.24,0,0,0-6.37,5.34c-.12.16,0,.4-.16.52s-.4.08-.52.16-.08.39-.16.51c-.23.28-.71.6-1,1-.08.12-.23.87-.35.87a1.41,1.41,0,0,0-.24,0,.09.09,0,0,0-.08.08v.24c0,.16-.24.16-.32.24-.47.43-.91,1.42-1.5,1.62-.2,1.43-1.35,1.9-1.66,3.21-1.11.63-1.07,1.35-1.35,2-.08.08-.08.47-.16.67s-.44.2-.51.32c-.2.39-.2,1.62-1.19,2.18a.12.12,0,0,0,0,.08c0,.19.24.39.24.47s-.56.52-.68.79a2.09,2.09,0,0,1-.67,1.71,1,1,0,0,1,.08.31c0,.44-.36.68-.44,1s.08.88-.51.88a1.14,1.14,0,0,1,0,.39c0,.75-.44,1.35-.44,2.14a1.79,1.79,0,0,0,.08.63,2.44,2.44,0,0,0-.48,1.87v.87c0,.43-.19.91-.19,1.38s.51.76.51,1.39c0,.16,0,.32,0,.47a8.05,8.05,0,0,0,1,2.22c.52.68,1.35.87,1.67,1.67a4,4,0,0,1,2.37,1h.24a8,8,0,0,0,.95-.2,1,1,0,0,0,1,.43c.6,0,1.27-.23,1.86-.23h1.35a9.78,9.78,0,0,0,2.53-.52c.6-.12,1.23,0,1.47-.51a.89.89,0,0,0,.47.19c.48,0,.8-.55,1.07-.55a1,1,0,0,1,.64.2,6.48,6.48,0,0,1,3-1.35,1.69,1.69,0,0,0,.31-.51.59.59,0,0,0,.32.11c.28,0,.56-.27.83-.43.52-.24,1.39-.28,1.71-.83a.84.84,0,0,1,.35-.12,3,3,0,0,0,.68.12c.31,0,.31-.48.47-.68,1.86-.59,3.13-1.78,5-2.33.48-.91,1.7-1,2.34-1.71.27,0,.35.2.59.2s.6-.83.75-1c.76,0,.91-.71,1.71-.71h.16c.19-.08.27-.36.31-.67a.26.26,0,0,0,.2.08c.4,0,.63-.44,1-.44.24,0,.44.08.59.08a.36.36,0,0,0,.2,0c.12.08.2.12.2.16s-.36.31-.36.35-.08.28-.19.48h-.12c-.36,0-.48.2-.8.2a.47.47,0,0,1-.23,0c-.24,0-.36.2-.36.51v.2h-.36c-1.34,0-.87.79-1.3,1.15-.08,0-.12,0-.2,0-.52,0-.48.55-.95.55a.3.3,0,0,1-.2,0c-.36.4-1,.56-1.15,1-.12,0-.2,0-.28,0-.35,0-.51.24-.91.24a1.49,1.49,0,0,0-.19,0c-.28.4-.8.64-1,1.19H106c-1,0-1.35,1-2.1,1a.77.77,0,0,1-.4-.12c-.39.16-.47.68-.87.83-1.42.2-2.3,1.59-3.68,1.59-.16,0-.36-.08-.56-.08s-.12.63-.43.67a24.15,24.15,0,0,0-4,1.71h-.2a1.15,1.15,0,0,1-.63-.2c-.44,0-.6.43-1.15.67h-.28c-.4,0-.16.16-.36.16s0-.16-.19-.16-.4.28-.68.32c-.51.16-1.23.08-1.86.2a16.14,16.14,0,0,1-1.62.31c-.24,0-.56-.12-.88-.16-.47,0-.94.08-1.5.08a5.32,5.32,0,0,1-1.7-.43,9.66,9.66,0,0,1-1.15-.16c-.91-.16-1.66-1-2.5-1-.08-.63-.79-.6-1.18-.83-.08,0,0-.4-.2-.4a.24.24,0,0,0-.16,0c-.36-.51-.48-1.27-1.15-1.5,0-.08,0-.16,0-.24,0-.75-.71-1.27-.91-1.9a11.81,11.81,0,0,1-.32-2.7c0-1.54.68-6.41,1.35-6.57a.76.76,0,0,1-.16-.48v-.15c.28-.2.2-.8.67-.84,0-.08,0-.11,0-.19,0-.28-.2-.32-.2-.56,0,.24.6-1.34,1-1.42,0-.08,0-.12,0-.2,0-.4.23-.52.23-.91,0-.08,0-.16,0-.24.64,0,1-1.35,1-1.74v-.28c.44-.32.56-1,1.15-1.15v-.24c0-.35,0-.63.44-.63h.08a.48.48,0,0,1-.08-.32c0-.55.55-1,.91-1.7,0,0,.08-.36.16-.48s.43-.19.51-.35,0-.44.16-.64.24-.23.32-.51a20.49,20.49,0,0,1,2-2.69c.16-.2.2-.48.35-.68s1.07-1.46,1.51-1.5c.16-.2.16-.6.32-.83.51,0,.47-.68,1-.68h.19c.08-.55,1-1,1-1.38,0-.08,0-.2,0-.24s0,0,.08,0l.2,0c.2,0,.56-.87.75-1,.64-.6,1.83-.75,2.18-1.7,1.19,0,2.54-2.14,5.82-3.69.36-.16.91-.16,1.35-.31a13.62,13.62,0,0,1,5.74-1.43,9.26,9.26,0,0,1,6.14,2.06,6,6,0,0,1,2.18,2.38c.2.19.36.23.36.43s0,.2,0,.32c0,.28.47.43.55.59a18.19,18.19,0,0,0,.67,2.81,1.52,1.52,0,0,0-.23.8c0,.31.08.67.08,1s-.4.87-.4,1.22c0,.16,0,.36,0,.56,0,.44-.4.47-.51,1a5.28,5.28,0,0,1,.08.59,3.59,3.59,0,0,1-.92,1.23c-.12,1.43-1.14,1.94-1.34,3.37h-.12c-.4,0-.36.43-.71.51,0,.08,0,.2,0,.28a5.56,5.56,0,0,1-.19.87c-.76.48-.64,1.86-1.71,1.86v.08c0,.79-.63.91-.79,1.59a2.62,2.62,0,0,1-.75.11,1.81,1.81,0,0,1-1.94-1.62A.49.49,0,0,1,106.21,123.06Zm13.47,7.09c.08,0,.16,0,.16.08,0,.2-.75.83-.91,1-.32.2-.71.12-.87.32-.52.36-.8.95-1.47,1.15-.51.16-.39.91-1,.91a7.41,7.41,0,0,1-.91-.2c.28-.4.28-1.07,1-1.07a1.73,1.73,0,0,0,.2,0c.16-.32.08-.35.87-.83.2-.12.16,0,.32-.16,0-.28.55-.2.83-.32s.24-.47.36-.55c.39-.16,1,.08,1.34-.32Z"/>
  <path class="c2"
        d="M136.68,131.1c0,.6-1,1.31-1.74,1.94-1.07,1-1.43.68-2.42,1.83-1,.23-1.86,1.26-2.85,1.78.08,0-.79.75-1.15.75-.08,0-.15,0-.27,0s-.08.24-.12.28-.56.08-.75.16-1,.95-1.19.95-.16-.16-.2-.16c-.4,0-1,.59-1.39.59h-.19c-.12,0-.16.24-.2.24a3.4,3.4,0,0,1-1,.2,18.47,18.47,0,0,1-2.46.63c-.12,0-.35-.08-.63-.08H120a6.46,6.46,0,0,1-2.54-.95c-.79-.2-.79-1.15-1.18-1.23-.16-1-.4-1.18-.4-1.7,0-.2.12-.63.12-1,0-.16,0-.32,0-.47a6.82,6.82,0,0,1,1-2.38,9.21,9.21,0,0,0,1.35-1.86,9.36,9.36,0,0,0,1.82-1.86,3.66,3.66,0,0,1,.59-.24,4.86,4.86,0,0,1,3.09-1.47,2.33,2.33,0,0,1,2.22,1.83c0,.15-.08.35-.44.79,0,.08-.08.2,0,.2s0,.08-.08.12a5.72,5.72,0,0,1-1.1,1,5.13,5.13,0,0,1-1.79,1.27,3.68,3.68,0,0,1-1.38.6c.23-.28,2.41-1.47,2.57-1.71a14.68,14.68,0,0,0-1.46.72l-2,.95-.28.31-1.82.44,1,0s0,0,0,0c.23,0,1-.2,1.14-.2s.08,0,.08,0a20,20,0,0,1-2.69.79h-.08a6.15,6.15,0,0,0-.55,2.22,2.23,2.23,0,0,0,2.25,2.5,9.74,9.74,0,0,0,3.69-1c.08,0,.2,0,.28,0,.87,0,1.5-.52,1.82-.52h.35c1.71-.87,1-.59,3-1.66.72-.36,2.14-1,2.14-1.31v-.08c1.11-.12,1.74-.87,2.58-1.23s.15-.43,1.26-.71c.72-.51,1.91-1.58,2-1.58A1.12,1.12,0,0,1,136.68,131.1Zm-18.33,2a11.91,11.91,0,0,0,1.14-.63v.08a.15.15,0,0,1,0,.12l1-.4c0-.12.43-.35.43-.35s0,0,.12,0c.75,0,1.5-.92,2.06-1.39.16-.12.55-.16.59-.24s0-.24.12-.28.83-.63,1.15-1.07a.81.81,0,0,0-.83-.55c-1.23,0-2.46,1-3.49,2.06A25.13,25.13,0,0,0,118.35,133.12ZM129.83,121c-.24.24-1.19.52-1.42.76a16.9,16.9,0,0,1-3,1.54c-.36.36-1.27.63-1.83,1.19-.79.47-.71.83-1,1-.55,0-.55-.6-.55-1.11a5,5,0,0,1,1.19-.83c-.08,0,.51-.2,1.78-.87.67-.36,1.35-.84,2-1.19a6.68,6.68,0,0,0,1.11-.52s.08,0,.12,0c.19,0-.44.28,1-.47a4.68,4.68,0,0,1,1.19-.56c.27.08.27.4.35.68A2.09,2.09,0,0,0,129.83,121Z"/>
  <path class="c2"
        d="M152.21,109.68a12.25,12.25,0,0,1-.75,1.86c-.16.43-.2.91-.32,1.34s-.51.72-.67,1.07c-1.11,3-2.57,5.07-4.28,8.08a20,20,0,0,1-1.54,2.06c-.16.16-.08.36-.16.52-.59,0-.44.67-.67.91-.32.43-.87.2-.87.83,0,.32-.44.16-.64.4s0,.43-.12.59c-.43.48-1.07.75-1.46,1.31-.08.16,0,.43-.16.63,0,0-.24,0-.28.12-1.11,1.47-1.82,4.4-1.82,7a11.83,11.83,0,0,0,1.27,5.74c.47.6,1.82,2.38,3.4,2.38.76,0,1.43-.2,2.42-.2.16,0,.2,0,.2.16v.08c0,.08,0,.16.12.16.35,0,.59-.2,1-.2h.19c-.11,1-1.7,1.35-2,1.35a6.24,6.24,0,0,0-.83-.12c-.24,0-.36.16-.55.16s-.68-.28-1.31-.44a6.11,6.11,0,0,1-1.42-.32c-.12,0-.08-.31-.28-.31a1.73,1.73,0,0,1-.2,0c-.2,0-.08-.36-.2-.36h-.2s-.12,0-.12,0,0-.16,0-.24,0,0-.08,0h-.19c-.2,0-.24-.35-.4-.47s-.4,0-.43-.16-.08-.4-.2-.48-.6-.75-.95-1.22a2,2,0,0,0-.48-.84c-.67-1-.75-3-.75-4.79,0-.95,1.15-4.51,1.27-5.46-.8.43-1,.83-1.63,1.19-.83.55-.31,0-1.11.79a.43.43,0,0,1-.2,0,4.41,4.41,0,0,1-.71,0c-.12,0-.16.15-.2,0,.36,0,.12-.52.68-.48a.21.21,0,0,1,0-.2c0-.27.35-.11.51-.27.4-.72,1.39-1.07,2.5-2.74.12-.31.87-.75.87-1.18,0-.2-.16-.48-.16-.76s1-.12,1-1.62a2.15,2.15,0,0,0,0-.32s0-.16.44-.47a2.35,2.35,0,0,1-.2-.8v-.27c.75-.87.59-1.9,1-2.66s1.11-1.54,1.11-2.57v-.2c.67-.28.67-1.11,1-1.7.16-.28.32-.48.47-.79s.95-2.5,1.63-3.81c0-.07.28-.27.32-.35a4.37,4.37,0,0,1,.31-1.07c0-.08.24-.08.28-.16.12-.24.08-.79.51-.79h.12c0-.83.83-.87.83-1.71.32-.19.84-.31,1.11-.51s.32-.79.56-1a1.23,1.23,0,0,0,1-.63,4.38,4.38,0,0,1,2.22.47c.27.24.27.67.67.79A19.93,19.93,0,0,1,152.21,109.68Zm-5,1.42c0,.16-.27,0-.27.24a1.05,1.05,0,0,0,0,.2c0-.28-.47.75-.51.79-.95,1.86-1.82,3.68-2.38,5a66.27,66.27,0,0,0-3.24,9.15.18.18,0,0,0,0,.12c.15,0,.39-.32.43-.44.4,0,.24-.59.48-.79.08-.2.67,0,.67-.32,0-.08,0-.08,0-.15a2.91,2.91,0,0,0,.91-1.55c.83-.36.83-1.46,1.7-1.74a4,4,0,0,1,1.43-2.38,5.27,5.27,0,0,1,1-2.06c.79-.83.87-2.45,1.9-3.48v-.12c0-.32.2-.48.2-.75,0-.08,0-.12,0-.24a9.6,9.6,0,0,0,1.62-4.56.79.79,0,0,0-.16-.51,3.51,3.51,0,0,0-2.41,1.42C148.13,109.48,147.62,110.47,147.26,111.1Z"/>
  <path class="c2"
        d="M163.58,133.08a1.67,1.67,0,0,1-1,.68c-1.14,1.46-2.53,2.29-4.43,3.8-1.15.87-2.42,1.82-4,2.89-.79.4-1.59,1.15-2.61,1.15a2.68,2.68,0,0,1-3-2.73,9.61,9.61,0,0,1,.92-3.49c.11-.36.47-1,.47-1.11s0-.16,0-.24.24-.19.28-.27c.28-.52,1-3.49,1.74-3.49s.83.56,1.23.87c-.2.76-.6,1.47-.91,2.3-.08.2-.48.32-.48.52s0,.15,0,.27a4.33,4.33,0,0,1-.27,1.27c-.12.32-.48.55-.6.87a8.67,8.67,0,0,0-.51,2.69c0,1.11.55.91,1.14.91a3.08,3.08,0,0,0,1.63-.51c.16-.08,0-.28.2-.28h.23a23.9,23.9,0,0,0,3.77-2.53c1.3-1.23,3.17-2.34,4.63-3.61.79-.71,1.7-1.22,2.81-2.1.24-.15.36,0,.6-.23.08,0,.08.12.08.23s0,.48,0,.52h.08c0,.08-.68.48-.68.59h0C164.34,132.85,163.9,132.65,163.58,133.08Zm-6.33-6.17c-.95-.4-2.1-.6-2.1-2a.85.85,0,0,1,.51-.15c.64,0,2.18.71,2.18,1.34S157.37,126.55,157.25,126.91Z"/>
  <path class="c2"
        d="M173.41,137.64c0-.44.44-.87.44-1.43,0-.2-.08-.47-.08-.67,0-.36.43-.71.43-1.07,0-.16,0-.32,0-.51,0-.44.32-.28.32-.68,0-.08-.12-.16-.12-.32a12.32,12.32,0,0,1,.52-1.82c-.08,0,0-.16,0-.43a2.83,2.83,0,0,0,0-.6c-.76,0-1.11.48-1.63.76-1.38,1.18-3.2,2.25-5.07,4a2.49,2.49,0,0,1-.31.27c-.28.28-2.66,3-3.61,3.09a2.78,2.78,0,0,1-.75-.79l2.3-8.36c.63.24,1.38.32,1.54,1-.43,1.63-1.19,2.86-1.42,4.64a15,15,0,0,0,1.9-1.59,7.17,7.17,0,0,1,.67-.35c2.1-2.1,1.74-1.15,2.66-1.94s2.57-2.26,4-2.26a1.65,1.65,0,0,1,1.71,1.78c-.2,1.19,0,1.51-.52,2.18a11.61,11.61,0,0,1-.55,2.53,7.42,7.42,0,0,1-.87,2.3,1.35,1.35,0,0,1,.2.75c0,.36-.12.76-.12,1.07a2,2,0,0,0,2.06,1.51c1.46,0,3-1.23,4.31-1.82a20.83,20.83,0,0,0,3.77-2.46c.39-.28,1-.32,1.38-.59.2-.16.24-.6.48-.76a22.29,22.29,0,0,0,1.94-1.54c.2-.12.55-.16.75-.28.79-.63,1.23-.79,2-1.42a15.52,15.52,0,0,1,1.58-1.35c.12,0,.16.48.16.59,0,.64-.47.72-.75,1.07-.12.12-.12.44-.24.52-.43.43-1.82.67-2,1.31-2.25,1.14-2.33,1.74-4.63,3.32-.67.44-.4.44-1.07.87a5.63,5.63,0,0,1-1.07.6h-.36c-.67,0,.32.35-1.62,1-.2.12-.44.35-.63.47a1.72,1.72,0,0,0-.56.16c-.12.12,0,.32-.35.32-.16,0-.32,0-.48,0-.59,0-.59.44-1,.59-.79.24-.83.4-1.11.4a4.92,4.92,0,0,0-1.07-.16c-.39,0-.67.12-.95.12-.63,0-.91-.63-1.66-1.43A8.36,8.36,0,0,1,173.41,137.64Z"/>
  <path class="c2"
        d="M211.12,131.1c0,.6-1,1.31-1.74,1.94-1.07,1-1.43.68-2.41,1.83-1,.23-1.87,1.26-2.86,1.78.08,0-.79.75-1.15.75-.07,0-.15,0-.27,0s-.08.24-.12.28-.56.08-.75.16-1,.95-1.19.95-.16-.16-.2-.16c-.4,0-1,.59-1.39.59h-.19c-.12,0-.16.24-.2.24a3.4,3.4,0,0,1-1,.2,18.47,18.47,0,0,1-2.46.63c-.12,0-.35-.08-.63-.08h-.12a6.46,6.46,0,0,1-2.54-.95c-.79-.2-.79-1.15-1.18-1.23-.16-1-.4-1.18-.4-1.7,0-.2.12-.63.12-1,0-.16,0-.32,0-.47a6.82,6.82,0,0,1,1-2.38,9.21,9.21,0,0,0,1.35-1.86,9.36,9.36,0,0,0,1.82-1.86,3.66,3.66,0,0,1,.59-.24,4.86,4.86,0,0,1,3.09-1.47,2.33,2.33,0,0,1,2.22,1.83c0,.15-.08.35-.44.79,0,.08-.08.2,0,.2s0,.08-.08.12a5.72,5.72,0,0,1-1.1,1,5,5,0,0,1-1.79,1.27,3.68,3.68,0,0,1-1.38.6c.24-.28,2.41-1.47,2.57-1.71a14.68,14.68,0,0,0-1.46.72l-2,.95-.28.31-1.82.44,1,0s0,0,0,0c.23,0,.95-.2,1.14-.2,0,0,.08,0,.08,0a20,20,0,0,1-2.69.79h-.08a6.37,6.37,0,0,0-.55,2.22,2.23,2.23,0,0,0,2.26,2.5,9.74,9.74,0,0,0,3.68-1c.08,0,.2,0,.28,0,.87,0,1.5-.52,1.82-.52H200c1.71-.87,1-.59,3.05-1.66.72-.36,2.14-1,2.14-1.31v-.08c1.11-.12,1.75-.87,2.58-1.23s.15-.43,1.26-.71a24.29,24.29,0,0,1,2-1.54A.31.31,0,0,1,211.12,131.1Zm-18.33,2a11.91,11.91,0,0,0,1.14-.63v.08a.18.18,0,0,1,0,.12l.95-.4c0-.12.43-.35.43-.35s0,0,.12,0c.75,0,1.5-.92,2.06-1.39.16-.12.55-.16.59-.24s0-.24.12-.28.83-.63,1.15-1.07a.81.81,0,0,0-.83-.55c-1.23,0-2.46,1-3.49,2.06A25.13,25.13,0,0,0,192.79,133.12Z"/>
  <path class="c2"
        d="M99.06,192.33H97.17l-8-13.55,0,1c0,.39,0,.72,0,1v11.55H87.62V176.79h2.43l7.52,12.66,0-1.08c0-.42,0-.8,0-1.12V176.79h1.54Z"/>
  <path class="c2"
        d="M111.78,192.33H110c-.07-.36-.14-1.06-.21-2.07a4.15,4.15,0,0,1-4,2.39,4,4,0,0,1-3-1,3.33,3.33,0,0,1-1-2.46,3.45,3.45,0,0,1,1.48-2.87q1.48-1.12,5-1.12c.32,0,.83,0,1.53,0a6.57,6.57,0,0,0-.21-2,1.79,1.79,0,0,0-.89-1,3.89,3.89,0,0,0-1.8-.36c-1.82,0-2.87.69-3.17,2.07l-1.65-.28c.4-2.12,2.1-3.18,5.08-3.18a4.5,4.5,0,0,1,3.37,1.05,5.26,5.26,0,0,1,1,3.65v4.89A9.71,9.71,0,0,0,111.78,192.33Zm-2-5.75c-.73-.05-1.28-.07-1.66-.07a6.41,6.41,0,0,0-3.29.7,2.21,2.21,0,0,0-1.18,2,1.89,1.89,0,0,0,.64,1.44,2.59,2.59,0,0,0,1.82.59,3.39,3.39,0,0,0,2.66-1.17,4,4,0,0,0,1-2.77Q109.84,187,109.81,186.58Z"/>
  <path class="c2"
        d="M120.33,191.11v1.41a11.65,11.65,0,0,1-1.64.13q-3.33,0-3.33-3.49v-6.93h-2v-1.4h2l.08-2.89,1.66-.16v3.05h2.57v1.4H117.1v7.23a1.6,1.6,0,0,0,1.84,1.78A9.22,9.22,0,0,0,120.33,191.11Z"/>
  <path class="c2"
        d="M131.34,192.33h-1.61v-2.2a3.92,3.92,0,0,1-3.66,2.52,3.48,3.48,0,0,1-2.77-1.16,4.92,4.92,0,0,1-1-3.31v-7.35h1.79v7.34a3.14,3.14,0,0,0,.71,2.36,2.34,2.34,0,0,0,1.57.64,2.65,2.65,0,0,0,1.56-.49,3.72,3.72,0,0,0,1.17-1.4,4.24,4.24,0,0,0,.47-2v-6.48h1.78Z"/>
  <path class="c2"
        d="M136.71,192.33h-1.79v-11.5h1.57v2.69a5.84,5.84,0,0,1,1.67-2.47,3.08,3.08,0,0,1,1.71-.56,7,7,0,0,1,.71,0v1.71h-.37a3.16,3.16,0,0,0-2.46,1.11,4.44,4.44,0,0,0-1,2.9Z"/>
  <path class="c2"
        d="M146.31,192.65a4.39,4.39,0,0,1-3.7-1.76,7,7,0,0,1-1.33-4.35,6.27,6.27,0,0,1,1.5-4.39,4.81,4.81,0,0,1,3.71-1.64,4.54,4.54,0,0,1,3.75,1.73,6.74,6.74,0,0,1,1.37,4.31,6.47,6.47,0,0,1-1.48,4.4A4.83,4.83,0,0,1,146.31,192.65Zm.13-1.48a2.85,2.85,0,0,0,2.29-1.13,5.46,5.46,0,0,0,.92-3.51,5.11,5.11,0,0,0-1-3.46,3,3,0,0,0-2.27-1.08,2.82,2.82,0,0,0-2.25,1.09,5.22,5.22,0,0,0-.93,3.44,5.42,5.42,0,0,0,.93,3.57A2.86,2.86,0,0,0,146.44,191.17Z"/>
  <path class="c2"
        d="M156.09,196.21H154.3V180.83h1.62v2.23a3.93,3.93,0,0,1,6.91-.85,8.24,8.24,0,0,1,0,8.79,4,4,0,0,1-3.3,1.65,3.82,3.82,0,0,1-3.4-2.06Zm0-11.29v3.24a3.43,3.43,0,0,0,1.1,2.16,2.87,2.87,0,0,0,1.95.85,2.71,2.71,0,0,0,2.08-1,5.38,5.38,0,0,0,.9-3.54,5.78,5.78,0,0,0-.82-3.35,2.51,2.51,0,0,0-2.17-1.18,2.69,2.69,0,0,0-1.92.83A4,4,0,0,0,156.09,184.92Z"/>
  <path class="c2"
        d="M175.75,192.33H174c-.07-.36-.14-1.06-.21-2.07a4.15,4.15,0,0,1-4,2.39,4,4,0,0,1-3-1,3.33,3.33,0,0,1-1-2.46,3.48,3.48,0,0,1,1.48-2.87q1.49-1.12,5-1.12c.32,0,.83,0,1.52,0a6.57,6.57,0,0,0-.21-2,1.79,1.79,0,0,0-.89-1,3.89,3.89,0,0,0-1.8-.36c-1.81,0-2.87.69-3.17,2.07l-1.65-.28q.62-3.18,5.08-3.18a4.53,4.53,0,0,1,3.38,1.05,5.32,5.32,0,0,1,1,3.65v4.89A9.71,9.71,0,0,0,175.75,192.33Zm-2-5.75c-.73-.05-1.28-.07-1.66-.07a6.41,6.41,0,0,0-3.29.7,2.22,2.22,0,0,0-1.17,2,1.92,1.92,0,0,0,.63,1.44,2.6,2.6,0,0,0,1.83.59,3.41,3.41,0,0,0,2.66-1.17,4.08,4.08,0,0,0,1-2.77A7.27,7.27,0,0,0,173.78,186.58Z"/>
  <path class="c2"
        d="M184.31,191.11v1.41a11.76,11.76,0,0,1-1.64.13q-3.34,0-3.34-3.49v-6.93h-2v-1.4h2l.08-2.89,1.66-.16v3.05h2.57v1.4h-2.57v7.23a1.61,1.61,0,0,0,1.85,1.78A9.34,9.34,0,0,0,184.31,191.11Z"/>
  <path class="c2"
        d="M195.28,192.33h-1.79v-7a8.45,8.45,0,0,0-.15-1.85,1.92,1.92,0,0,0-.73-1.06,2.07,2.07,0,0,0-1.32-.45,2.89,2.89,0,0,0-2.31,1.13,4.58,4.58,0,0,0-.93,3v6.19h-1.79V176.79h1.79V183a3.79,3.79,0,0,1,3.49-2.44,3.91,3.91,0,0,1,1.8.4,2.91,2.91,0,0,1,1.21,1.05,3.92,3.92,0,0,1,.58,1.28,10.25,10.25,0,0,1,.15,2.11Z"/>
  <path class="c2"
        d="M206.45,188.9l1.67.34a4.68,4.68,0,0,1-1.78,2.44,5.09,5.09,0,0,1-3.11,1,4.81,4.81,0,0,1-3.81-1.66,6.29,6.29,0,0,1-1.46-4.35,6.41,6.41,0,0,1,1.51-4.44,4.89,4.89,0,0,1,3.81-1.69,4.58,4.58,0,0,1,3.62,1.56,7,7,0,0,1,1.41,4.67H200c0,1.74.37,2.91,1.09,3.52a3.61,3.61,0,0,0,2.32.91A3.16,3.16,0,0,0,206.45,188.9Zm-.1-3.49a4.79,4.79,0,0,0-.32-1.72,2.87,2.87,0,0,0-1-1.28,2.71,2.71,0,0,0-1.7-.53,3.07,3.07,0,0,0-2.26,1,4,4,0,0,0-1,2.58Z"/>
  <circle class="c1" cx="139.7" cy="147.79" r="108.22"/>
  <circle class="c1" cx="144.2" cy="145.37" r="108.22"/>
  <line class="c3" x1="117.44" y1="159.42" x2="170.97" y2="159.42"/>
  <rect class="c4" x="200.73" y="209.36" width="36.31" height="36.31"/>
  <path class="c5"
        d="M218.79,245.05s1.49-5.07-2.14-11-6.82-9-13-10.35c0,0,7.17-7.31,14.1-9.72,0,0,4.07-2,12-1.74,0,0,6.3-.09,8.74-.49a36.16,36.16,0,0,0,8.15-1.39,10,10,0,0,0,2.43-1.09l.16-.12c.94-.73-3.09,2.07-13,.33,0,0-9.85-2.22-22.19,2.69,0,0-11.62,6-13.75,14.46,0,0-2.23,8.92-1.64,14.48,0,0-2.66-9.43,1.9-23,0,0,4.43-10,12.85-14.58,0,0,7-4.45,14-3.76,0,0,8.15.26,13.27,2.11,0,0,6.6,1.94,10.84,1.42A17.75,17.75,0,0,0,262.25,199s-11.28,25.36-27,28a31.88,31.88,0,0,1-19.9-2.94s10.24,10,8.7,19.79c0,0-.81,8-5.56,12.1,0,0,.81-4.43-10.41-11.3a17.51,17.51,0,0,1-6.53-14.24s.25-3.68.9-4.57C202.49,225.91,216.42,230.23,218.79,245.05Z"/>
  <rect class="c4" x="31.48" y="71.15" width="36.31" height="36.31"/>
  <path class="c5"
        d="M24.62,90.18s5-1.79,11.07,1.46,9.37,6.25,11.13,12.29c0,0,6.85-7.61,8.83-14.67,0,0,1.73-4.2,1-12.1,0,0-.3-6.29-.06-8.76a36,36,0,0,1,.88-8.22,9.63,9.63,0,0,1,.94-2.49l.1-.17c.67-1-1.87,3.22.49,13,0,0,2.83,9.7-1.31,22.32,0,0-5.23,12-13.58,14.62,0,0-8.76,2.78-14.35,2.53,0,0,9.59,2.08,22.79-3.32,0,0,9.75-5,13.76-13.73,0,0,4-7.23,2.88-14.2,0,0-.77-8.12-2.94-13.11,0,0-2.35-6.47-2.09-10.73A17.78,17.78,0,0,1,67.85,44S43.24,56.78,41.53,72.6A31.92,31.92,0,0,0,45.7,92.28s-10.63-9.6-20.29-7.45c0,0-7.89,1.3-11.72,6.3,0,0,4.36-1.09,11.92,9.68a17.52,17.52,0,0,0,14.62,5.64s3.66-.48,4.5-1.19C44.73,105.26,39.55,91.63,24.62,90.18Z"/>
</svg>
