<svg data-name="Calque 1" xmlns="http://www.w3.org/2000/svg" viewBox="0 0 384 384">
  <defs>
    <style>
      .cls-144 {
      fill: #9fdaf1;
    }

    .cls-145 {
      fill: #b2f5fe;
    }

    .cls-1444 {
      fill: #40414c;
    }

    .cls-1hy {
      fill: #60616f;
    }

    .cls-1tr {
      fill: #61626f;
    }

    .cls-1trt {
      fill: #51df8a;
    }</style>
  </defs>
  <path
    d="M297.48,59.76c3,1,4.26,3.22,4.26,6.28,0,.87,0,1.74,0,2.62q0,144.41,0,288.8a33.81,33.81,0,0,1-.78,8.91,22.31,22.31,0,0,1-21.69,16.79q-91.65.09-183.31,0c-11.95,0-21.32-9-22.31-20.84-.08-1-.14-2-.14-3q0-167.59,0-335.19c0-11.27,5.67-19.48,15.27-22.87,1.26-.45,2.76-.11,3.8-1.2H282.66c9.12,2.39,16,7.42,18.25,17,1.76,7.54.91,15.33.59,23-.13,3.13-2.79,4.1-5.39,4.82-3.48.89-5-1.32-6.11-4-1.15-2.83-.91-5.87-.92-8.85s.05-6,0-8.95c-.15-6.62-3.78-10.34-10.39-10.67-1.62-.08-3.24-.07-4.86,0-6.11.18-12.22,0-18.33.1-4,.06-4.42.41-4.54,4.55a53.06,53.06,0,0,1-.91,8.17,15.27,15.27,0,0,1-13.91,12.61c-1,.09-2,.09-3,.09q-45.63,0-91.28,0c-8.27,0-14-3.84-16.15-10.76a38,38,0,0,1-1.37-10c-.15-4.39-.39-4.65-4.76-4.68-7.11-.05-14.22-.08-21.32,0-8.48.1-11.94,3.63-11.94,12.23q0,157.3,0,314.61c0,5.08.17,5.23,5.26,5.25,8.48,0,17,0,25.44,0,3.79,0,6.91,1.1,7.94,5.3,0,5.86-2,8.09-8,8.19-8.67.13-17.34,0-26,.05-4.34,0-4.53.29-4.54,4.7,1.27,4.81,4.5,7.27,9.33,7.81a41.29,41.29,0,0,0,4.85.13H274.89a33.7,33.7,0,0,0,5.59-.23,9.65,9.65,0,0,0,7.36-5.18c2.53-4.81,1.12-7.17-4.25-7.21-3.11,0-6.23.1-9.34-.05-42.12.19-84.23.06-126.34.07-6.49,0-8.41-1.31-9.82-6.35.58-4.65,2.58-6.7,7-7.17,1.11-.11,2.24-.1,3.36-.1H275.16c1,0,2,.05,3,.1,2.49-.21,5-.06,7.48-.13,2.12-.07,3.21-1,3.25-3.19,0-1.62.06-3.25.06-4.87V74.57a43.89,43.89,0,0,1,.75-10C290.77,59.86,292.78,58.62,297.48,59.76Z"/>
  <path class="cls-144"
        d="M274.41,11.42c1.87,0,3.74-.21,5.59-.08,5.88.44,10.18,4.92,10.44,11.11.2,4.84,0,9.7.07,14.54,0,5.16.84,6.26,5.6,7.85,0,3.8.06,7.6,0,11.4,0,1.42.14,2.65,1.38,3.52-5.26.11-6.92,1.68-6.94,7-.07,12.46,0,24.93,0,37.39q0,118.74.07,237.47c0,3.33-.72,4.67-4.21,4.24a77.35,77.35,0,0,0-8.21-.18c-1.61-1.78-1.18-4-1.18-6.07q-.06-28.23,0-56.47,0-127.14,0-254.3c0-5.13.21-10.25-2.53-14.9A2.23,2.23,0,0,1,274.41,11.42Z"/>
  <path class="cls-145"
        d="M274.41,11.42c3.69,5.29,3.83,11.27,3.82,17.46q-.14,158.39-.07,316.77c-10.08,0-20.15.12-30.22.12q-50.76,0-101.52,0c-5,0-6.24,1-7.59,5.83-4.21,2.36-8.65,1.24-13,.84-1.18-.11-1.34-1.32-1.68-2.24-.82-3.37-3.19-4.45-6.4-4.44-9.6,0-19.21-.15-28.81.09-3.36.08-4.25-.77-4.25-4.2q.15-140.85.08-281.7c0-11.85,0-23.69,0-35.54,0-8.75,4.4-13.12,13.06-13.13,8.48,0,17,.07,25.44,0,2.14,0,2.76.59,2.68,2.71a73.84,73.84,0,0,0,.2,10.09A14,14,0,0,0,139.91,36.8q47.7.16,95.4,0a14,14,0,0,0,13.8-12.74,89,89,0,0,0,.22-10.46c0-1.74.4-2.39,2.27-2.35C259.21,11.39,266.81,11.38,274.41,11.42Z"/>
  <path class="cls-1444"
        d="M274.33,357.15c4.35,0,8.71,0,13.07-.18,2-.06,2.84.53,2.91,2.72.22,7.18-4.31,12.12-11.52,12.27H97.5c-6.89,0-10.41-2.58-12.37-9a7.43,7.43,0,0,1,3.67-.46c53.73.06,107.47,0,161.21.08C258.6,362.62,267,362.39,274.33,357.15Z"/>
  <path class="cls-1hy"
        d="M274.33,357.15c-3.86,5.33-9.69,6.47-15.55,6.48q-85,.19-170,.09a6.72,6.72,0,0,1-3.61-.74c-.07-.74-.11-1.48-.22-2.22-.41-2.77.47-3.9,3.56-3.83,9.55.2,19.1.09,28.65.06,5.26,0,6.87-1.6,7-6.78.85,1.38,2.19,1.33,3.58,1.32,3.71,0,7.42.05,11.13.08,1,4.08,3.61,5.44,7.69,5.44q61.47-.12,123,0C271.09,357,272.71,357.1,274.33,357.15Z"/>
  <path class="cls-1tr"
        d="M137.44,18.8c-.51-7.51-.51-7.51,6.8-7.51H231.4c6.82,0,6.82,0,6.44,6.78-1.46,1.66-3.43,1.89-5.46,1.89Q187,20,141.67,20A6.11,6.11,0,0,1,137.44,18.8Z"/>
  <path class="cls-1444"
        d="M137.44,18.8q46.89,0,93.76,0a25.56,25.56,0,0,0,6.64-.71c0,1.12,0,2.23,0,3.35.09,3-1.47,4.24-4.39,4.16-2.73-.08-5.47,0-8.2,0H144C137.48,25.56,137.27,25.35,137.44,18.8Z"/>
  <path
    d="M225.82,268.58c-13.86-.34-26-4.72-37.11-11.63a203.05,203.05,0,0,1-68.34-69.25,71.78,71.78,0,0,1-10.25-30.9,44.86,44.86,0,0,1,1.63-16.26,15.72,15.72,0,0,1,3.48-6.53c5.72-6.13,13-10,20.58-13.13,4.54-1.89,9.25,0,12.17,4.23,6.61,9.65,13.13,19.37,19.45,29.21,3.52,5.46,2.24,11.6-2.85,15.64a76.48,76.48,0,0,1-6.67,4.79c-1.64,1-1.71,2-.74,3.57a126,126,0,0,0,43.17,43.09c1.43.86,2.3.92,3.29-.66a82,82,0,0,1,4.8-6.66c4.1-5.27,10.3-6.58,15.91-3q14.58,9.41,28.87,19.27a11.15,11.15,0,0,1,3.51,14.91c-2.55,4.69-5.28,9.31-8.27,13.74C242.88,267.27,234.14,268.16,225.82,268.58Z"/>
  <path
    d="M186.61,113.23a81.5,81.5,0,0,1,78.67,79c0,.37,0,.75,0,1.12,0,4.09-2.08,6.54-5.49,6.63s-5.58-2.15-5.72-6.32c-.31-9.68-2-19.09-6.25-27.83-12.43-25.64-33-39.36-61.4-41.33a28.57,28.57,0,0,1-3.35-.18,5.13,5.13,0,0,1-4.49-4.78,5.25,5.25,0,0,1,3.57-5.87A11.27,11.27,0,0,1,186.61,113.23Z"/>
  <path
    d="M231.29,192.17a19.4,19.4,0,0,1,0,2.74c-.35,3-2,4.8-5.07,5s-5.21-1.38-5.83-4.54-.47-6.43-1.26-9.61a36,36,0,0,0-32.24-27.22c-6.17-.45-8.54-2.23-8.3-6.22s3-5.46,9.1-5C211.24,149.06,229.68,167.78,231.29,192.17Z"/>
  <path class="cls-1trt"
        d="M125.47,139.75c3.58-2.94,7.85-4.76,11.64-7.35,1.51-1,2.19-.25,3,.91q8.46,12.76,17,25.49c1,1.45,1,2.25-.59,3.23a77,77,0,0,0-6.35,4.6c-5.5,4.28-6.61,9.63-3.42,15.86,6.82,13.33,17.2,23.73,27.9,33.86a93.51,93.51,0,0,0,21.12,15.28c6.58,3.44,11.91,2.29,16.43-3.56.08-.1.15-.21.23-.3,2-2.33,3-6.56,5.77-6.79,2.36-.2,5,2.81,7.5,4.46,6.23,4.13,12.36,8.42,18.69,12.37,2.46,1.53,2.58,2.76,1,4.93-2.4,3.31-3.87,7.23-6.64,10.31-5.67,2.13-11.12.28-16.46-1.19a86.53,86.53,0,0,1-26.79-13c-23.7-16.67-43.9-36.75-59.14-61.54-6.26-10.19-10.57-21.15-11.51-33.25A8.12,8.12,0,0,1,125.47,139.75Z"/>
  <path class="cls-1trt"
        d="M125.47,139.75c.41,17.77,8,32.82,18,46.89a199.26,199.26,0,0,0,26.48,30.2C181.82,228,194.2,238.49,209,245.71c9.37,4.57,19.08,7.73,29.68,7.34-3.09,4.22-7.85,4-12.2,4.21-9.85.39-19-2.66-27.39-7.48-30.67-17.67-55-41.73-71.72-73.1-4.91-9.23-7.59-19.22-5.61-29.91C122.27,144.06,122.91,141.39,125.47,139.75Z"/>
</svg>
