<svg id="Calque_1" data-name="Calque 1" xmlns="http://www.w3.org/2000/svg" viewBox="0 0 395.46 395.46"><defs><style>.cls-1,.cls-3{fill:#507164;}.cls-1{opacity:0.1;}.cls-2,.cls-5{fill:#f6e9e5;}.cls-2,.cls-3,.cls-4,.cls-5{stroke:#507164;stroke-miterlimit:10;}.cls-2,.cls-3,.cls-4{stroke-width:15px;}.cls-4{fill:none;}</style></defs><ellipse class="cls-1" cx="198.22" cy="371.22" rx="108" ry="23.5"/><path class="cls-2" d="M198.22,9.22a129.5,129.5,0,0,0-129.5,129.5c0,71.52,118,227.5,130,227.5s129-156,129-227.5A129.5,129.5,0,0,0,198.22,9.22Zm-.5,191a69,69,0,1,1,69-69A69,69,0,0,1,197.72,200.22Z"/><path class="cls-3" d="M196.24,366.15c12,0,130-156,130-227.5A129.5,129.5,0,0,0,196.74,9.15m.5,53a69,69,0,0,1,0,138"/><line class="cls-4" x1="150.72" y1="75.22" x2="107.72" y2="41.22"/><line class="cls-4" x1="201.72" y1="227.22" x2="69.8" y2="122.2"/><line class="cls-4" x1="203.22" y1="310.72" x2="98.72" y2="228.22"/><circle class="cls-5" cx="197.47" cy="131.47" r="61.25"/></svg>
