<svg data-name="Calque 1" xmlns="http://www.w3.org/2000/svg" viewBox="0 0 90.71 90.71">
  <defs>
    <style>.clld-1 {
      fill: #679380;
    }

    .clld-2 {
      fill: none;
      stroke: #f1c76b;
      stroke-miterlimit: 10;
    }

    .clld-3 {
      fill: #fff;
    }</style>
  </defs>
  <path class="clld-1"
        d="M26,18.14c8,.77,11.71,8,7.24,14s-20.95-7.76-18.14,4.7c.4,1.76.85,1.32,2.68,8.58,1.26,5,.23.93,3.93,20,.86,4.43,3.06,7.13,5.36,6,8.84-4.51,9.3,2.4,8.47,6.43C34.07,85.06,22.5,87,17,84.05s-3.83-11.6-4.37-19,1-9.58-3.19-18.74S2.91,33.48,6.53,26.77,18.25,17.39,26,18.14Z"/>
  <path class="clld-1" d="M28.2,9.28c-1,4.64.88,9,4.22,9.71s6.85-2.45,7.86-7.1-.88-9-4.22-9.71S29.21,4.63,28.2,9.28Z"/>
  <path class="clld-1"
        d="M18.38,11.9c.22,2.84,2.05,5,4.09,4.85s3.51-2.59,3.28-5.42-2.05-5-4.09-4.85S18.15,9.07,18.38,11.9Z"/>
  <path class="clld-1" d="M11.08,15c.86,2.28,2.89,3.62,4.52,3s2.26-3,1.4-5.24-2.89-3.62-4.52-3S10.22,12.75,11.08,15Z"/>
  <path class="clld-1" d="M6.05,19c.8,1.62,2.4,2.47,3.56,1.89s1.46-2.36.65-4-2.4-2.47-3.56-1.89S5.24,17.42,6.05,19Z"/>
  <path class="clld-1" d="M2.42,24c.73,1.27,2.06,1.88,3,1.36s1.07-2,.34-3.25-2.06-1.88-3-1.36S1.69,22.68,2.42,24Z"/>
  <path class="clld-2" d="M33.83,10.52q-2.49,7.71-5,15.42L10.69,27.6q8,8.31,15.92,16.61"/>
  <line class="clld-2" x1="23.72" y1="78.48" x2="10.69" y2="27.6"/>
  <circle class="clld-3" cx="33.82" cy="10.27" r="1.66"/>
  <circle class="clld-3" cx="28.83" cy="25.94" r="1.66"/>
  <circle class="clld-3" cx="10.69" cy="27.6" r="1.66"/>
  <circle class="clld-3" cx="23.72" cy="78.48" r="1.66"/>
  <circle class="clld-1" cx="26.61" cy="44.21" r="1.66"/>
  <path class="clld-1"
        d="M63.47,18.45c-8,.77-11.71,8-7.24,14.05s21-7.76,18.14,4.7c-.4,1.76-.85,1.32-2.68,8.58-1.26,5-.23.93-3.93,20-.86,4.43-3.06,7.13-5.36,6-8.84-4.51-9.3,2.4-8.47,6.43,1.49,7.24,13.06,9.21,18.6,6.23s3.83-11.6,4.37-19-1-9.58,3.19-18.74S86.58,33.79,83,27.08,71.24,17.7,63.47,18.45Z"/>
  <path class="clld-1" d="M61.29,9.59c1,4.64-.88,9-4.22,9.72s-6.85-2.46-7.86-7.1.87-9,4.22-9.72S60.28,5,61.29,9.59Z"/>
  <path class="clld-1"
        d="M71.11,12.21c-.22,2.84-2,5-4.09,4.85s-3.51-2.59-3.28-5.42,2.05-5,4.09-4.85S71.34,9.38,71.11,12.21Z"/>
  <path class="clld-1"
        d="M78.41,15.34c-.86,2.28-2.89,3.62-4.52,3s-2.26-3-1.4-5.24,2.89-3.62,4.52-3S79.27,13.06,78.41,15.34Z"/>
  <path class="clld-1"
        d="M83.44,19.35c-.8,1.62-2.4,2.47-3.56,1.89s-1.46-2.36-.65-4,2.4-2.47,3.56-1.89S84.25,17.73,83.44,19.35Z"/>
  <path class="clld-1"
        d="M87.07,24.26c-.73,1.27-2.06,1.88-3,1.36s-1.07-2-.34-3.25,2.06-1.88,3-1.36S87.8,23,87.07,24.26Z"/>
  <path class="clld-2" d="M55.65,10.84l5,15.41L78.8,27.91q-8,8.31-15.92,16.61"/>
  <line class="clld-2" x1="65.77" y1="78.79" x2="78.8" y2="27.91"/>
  <circle class="clld-3" cx="55.67" cy="10.58" r="1.66"/>
  <circle class="clld-3" cx="60.66" cy="26.25" r="1.66"/>
  <circle class="clld-3" cx="78.8" cy="27.91" r="1.66"/>
  <circle class="clld-3" cx="65.77" cy="78.79" r="1.66"/>
  <circle class="clld-1" cx="62.88" cy="44.52" r="1.66"/>
</svg>
