<svg data-name="Calque 1" xmlns="http://www.w3.org/2000/svg" xmlns:xlink="http://www.w3.org/1999/xlink"
     viewBox="0 0 403.83 73.15">
  <defs>
    <style>.color {
      fill: url(#Dégradé_sans_nom_64);
    }

    .color {
      fill: url(#Dégradé_sans_nom_64-2);
    }

    .toto {
      fill: #383434;
    }

    .color {
      fill: url(#Dégradé_sans_nom_64-3);
    }

    .color {
      fill: url(#Dégradé_sans_nom_64-4);
    }

    .cls-6 {
      clip-path: url(#clip-path);
    }

    .cls-7 {
      fill: url(#Dégradé_sans_nom_64-6);
    }

    .cls-8 {
      clip-path: url(#clip-path-2);
    }

    .cls-9 {
      fill: url(#Dégradé_sans_nom_64-8);
    }</style>
    <linearGradient id="Dégradé_sans_nom_64" x1="83.42" y1="9.94" x2="91.15" y2="17.68" gradientUnits="userSpaceOnUse">
      <stop offset="0" stop-color="#0deef7"/>
      <stop offset="0" stop-color="#0eedf7"/>
      <stop offset="0.28" stop-color="#54a8fa"/>
      <stop offset="0.52" stop-color="#8b72fc"/>
      <stop offset="0.73" stop-color="#b34bfe"/>
      <stop offset="0.9" stop-color="#cb33ff"/>
      <stop offset="1" stop-color="#a55afe"/>
    </linearGradient>
    <linearGradient id="Dégradé_sans_nom_64-2" x1="384.63" y1="57.42" x2="392.36" y2="65.15"
                    xlink:href="#Dégradé_sans_nom_64"/>
    <linearGradient id="Dégradé_sans_nom_64-3" x1="305.1" y1="36.86" x2="327.78" y2="36.86"
                    xlink:href="#Dégradé_sans_nom_64"/>
    <linearGradient id="Dégradé_sans_nom_64-4" x1="102.58" y1="36.86" x2="125.26" y2="36.86"
                    xlink:href="#Dégradé_sans_nom_64"/>
    <clipPath id="clip-path">
      <path class="color"
            d="M87.16,8.25A5.26,5.26,0,0,0,84,9.38a5.63,5.63,0,0,0-2.15,4.45,5.76,5.76,0,0,0,.92,3.09,5.32,5.32,0,0,0,4.47,2.46h.07a5.42,5.42,0,0,0,3-1,5.64,5.64,0,0,0,2.32-4.57,5.57,5.57,0,0,0-1.3-3.65,5.27,5.27,0,0,0-4-1.93Z"/>
    </clipPath>
    <linearGradient id="Dégradé_sans_nom_64-6" x1="81.7" y1="8.24" x2="92.85" y2="19.4"
                    gradientTransform="translate(0.25 -1.52) rotate(1)" xlink:href="#Dégradé_sans_nom_64"/>
    <clipPath id="clip-path-2">
      <path class="color"
            d="M388.37,55.73a5.27,5.27,0,0,0-3.14,1.12,5.64,5.64,0,0,0-2.14,4.46A5.7,5.7,0,0,0,384,64.4a5.33,5.33,0,0,0,4.46,2.45h.07a5.35,5.35,0,0,0,3-1,5.65,5.65,0,0,0,2.31-4.56,5.6,5.6,0,0,0-1.29-3.65,5.24,5.24,0,0,0-4-1.93Z"/>
    </clipPath>
    <linearGradient id="Dégradé_sans_nom_64-8" x1="382.91" y1="55.71" x2="394.07" y2="66.87"
                    gradientTransform="translate(1.13 -6.77) rotate(1)" xlink:href="#Dégradé_sans_nom_64"/>
  </defs>
  <path class="toto"
        d="M83.92,23.45a5.1,5.1,0,0,0-7,2.32L65.09,49.45,63,45.24q-2.55-5.3-7.33-15a15.43,15.43,0,0,0-1.26-2.46,5.39,5.39,0,0,0-4.3-2.14,5.46,5.46,0,0,0-1.67.28,5.35,5.35,0,0,0-2.93,2.32q-.78,1.61-9.82,20h0q-5-10.21-5.63-11.51-4.71-9.76-12.41-25.52a17.55,17.55,0,0,0-1.53-2.91A5.23,5.23,0,0,0,12,6.14h-.21a5.35,5.35,0,0,0-3,1,5.55,5.55,0,0,0-2.29,4.49v.14a2.69,2.69,0,0,0,.07.74q0,.92,1.74,4.28,6.59,13.62,6.65,13.66,8.76,18.11,8.79,18.14,6.77,14,6.82,14c.21.49.33.73.38.73l.48.81a5.31,5.31,0,0,0,4.33,2.28h.13a5.3,5.3,0,0,0,1.54-.24,5.61,5.61,0,0,0,3-2.39l9.75-20L51.23,46q6.66,13.7,7.37,15.1a20.86,20.86,0,0,0,1.7,3.3,5.58,5.58,0,0,0,3.54,2,5.09,5.09,0,0,0,1.22.15,5.17,5.17,0,0,0,4.61-2.9l16.5-33a5.41,5.41,0,0,0-2.25-7.17"/>
  <path class="toto"
        d="M136.27,6.31h-.11L136,6.24H107.52l-.13.07h-.14a4.56,4.56,0,0,0-2.42.77,4.82,4.82,0,0,0-2.25,4v.42a4.87,4.87,0,0,0,1,2.88,4.61,4.61,0,0,0,3.62,1.93h29.05a4.5,4.5,0,0,0,1.91-.46A4.93,4.93,0,0,0,141,11.33,5.29,5.29,0,0,0,140.43,9a4.75,4.75,0,0,0-4.16-2.7"/>
  <path class="toto"
        d="M137.08,56.5a3,3,0,0,1-1.05-.18H107.52s-.06,0-.06,0a6,6,0,0,0-2.32.63,4.91,4.91,0,0,0-2.56,4.25v.31a5.18,5.18,0,0,0,1.09,3.06,4.58,4.58,0,0,0,2.86,1.65H137a4.35,4.35,0,0,0,1.16-.32,5.07,5.07,0,0,0,1.6-7.79,4.7,4.7,0,0,0-2.7-1.65"/>
  <path class="toto"
        d="M338.79,6.31h-.1l-.14-.07h-28.5l-.14.07h-.14a4.58,4.58,0,0,0-2.42.77,4.82,4.82,0,0,0-2.25,4v.42a4.82,4.82,0,0,0,1,2.88,4.59,4.59,0,0,0,3.61,1.93h29.05a4.46,4.46,0,0,0,1.91-.46,4.93,4.93,0,0,0,2.79-4.49A5.29,5.29,0,0,0,343,9a4.75,4.75,0,0,0-4.16-2.7"/>
  <path class="toto"
        d="M370.64,34.76a5.32,5.32,0,0,0-3.3,5.42v.49a7.11,7.11,0,0,0,.5,2.61,2.1,2.1,0,0,0,.29.53l1.55,2.09h0l5.46,7.1a5.07,5.07,0,0,0,7.1.93l.39-.3a5.07,5.07,0,0,0,.93-7.1l-3.41-4.43.31-.28.64-.38A67.64,67.64,0,0,0,388.75,36a17.39,17.39,0,0,0,5.14-12.6,17.63,17.63,0,0,0-4.39-11.76,16.73,16.73,0,0,0-12.75-5.83H359.54a4.77,4.77,0,0,0-2.69.77,4.89,4.89,0,0,0-2.32,4.18v.18a5.89,5.89,0,0,0,.27,1.65,4.88,4.88,0,0,0,4.74,3.3h17.31a6.9,6.9,0,0,1,5.25,2.24,7.78,7.78,0,0,1-.72,11.27,32.72,32.72,0,0,1-4.6,2.67"/>
  <path class="toto"
        d="M187.3,51q-1.91,5.34-7.16,5.34H166V41.23h13.87a7.2,7.2,0,0,1,5.56,2.21,8,8,0,0,1,2.22,5.37A8.28,8.28,0,0,1,187.3,51m4.36-39.34a16.73,16.73,0,0,0-12.75-5.83H157.12a4.77,4.77,0,0,0-2.69.77,4.92,4.92,0,0,0-2.32,4.18v.18a5.89,5.89,0,0,0,.27,1.65,4.89,4.89,0,0,0,4.74,3.3H179a6.9,6.9,0,0,1,5.25,2.24,7.92,7.92,0,0,1,2.08,5.2,8.06,8.06,0,0,1-2.79,6.07A7.65,7.65,0,0,1,179.42,31q-13,0-18.41,0l-1.33,0a5.43,5.43,0,0,0-2,.49,5,5,0,0,0-2.8,4.46v25.3a5.14,5.14,0,0,0,1.37,3.41A4.37,4.37,0,0,0,158.9,66h21.75a14.35,14.35,0,0,0,4.81-1.2,20.72,20.72,0,0,0,4.09-2.45,17.64,17.64,0,0,0,6.51-13.76A16.86,16.86,0,0,0,190.91,36a17.4,17.4,0,0,0,5.15-12.6,17.64,17.64,0,0,0-4.4-11.76"/>
  <path class="toto"
        d="M211.58,32.91c2.61,3.15,6.88,5.72,11,8.22,2.17,1.3,5.45,3.27,6.13,4.15a4,4,0,0,0,.35.36,7.39,7.39,0,0,1,1.32,5,8.16,8.16,0,0,1-2.26,4.6A6.86,6.86,0,0,1,223,57a7.18,7.18,0,0,1-1.8-.44,10.64,10.64,0,0,0-3.06-1.22l-.17,0a4.75,4.75,0,0,0-2,.27,4.69,4.69,0,0,0-2.85,3.75l0,.27a4.81,4.81,0,0,0,1.4,3.83,14.77,14.77,0,0,0,7,2.82l.41,0a16.37,16.37,0,0,0,9.38-2A14.94,14.94,0,0,0,234.37,62a16.75,16.75,0,0,0,3.54-19.41,8.65,8.65,0,0,0-2-3l-.1-.17c-1.73-2.22-4.92-4.13-8.62-6.35-2.87-1.73-7.51-4.51-8.86-6.35-.15-.25-.3-.49-.42-.73l-.08-.15a7.7,7.7,0,0,1-.72-4.18,7,7,0,0,1,1.08-3c1.77-2.35,3.84-3.4,6.21-3.13a7.94,7.94,0,0,1,2.07.54,7.73,7.73,0,0,0,2.88,1.24,5,5,0,0,0,1.84-.19,4.61,4.61,0,0,0,3.21-3.92,4.72,4.72,0,0,0-1.11-3.65l-1.06-1a13.93,13.93,0,0,0-5-2.07l-2.84-.31a12.61,12.61,0,0,0-3.89.42,14.38,14.38,0,0,0-3.21,1.09,14.62,14.62,0,0,0-4.23,2.89,16.85,16.85,0,0,0-5,10.08A17.11,17.11,0,0,0,210.2,31a6.52,6.52,0,0,0,1.38,1.94"/>
  <path class="toto"
        d="M339.61,56.5a3,3,0,0,1-1.06-.18h-28.5c-.05,0-.07,0-.07,0a6,6,0,0,0-2.32.63,4.93,4.93,0,0,0-2.56,4.25v.31a5.25,5.25,0,0,0,1.09,3.06,4.6,4.6,0,0,0,2.87,1.65h30.48a4.35,4.35,0,0,0,1.16-.32,5.07,5.07,0,0,0,1.6-7.79,4.71,4.71,0,0,0-2.69-1.65"/>
  <path class="toto"
        d="M290.46,6.24H251.21a4.62,4.62,0,0,0-2.42.74,5.11,5.11,0,0,0-2.32,4.28,6.25,6.25,0,0,0,.68,2.6,4.88,4.88,0,0,0,4,2.42h14.77V60.92a5.54,5.54,0,0,0,1.36,3.93A4.79,4.79,0,0,0,270,66.26h1.68a4,4,0,0,0,1.29-.39,5,5,0,0,0,2.76-4.46V16.28h14.73a4.89,4.89,0,0,0,2.12-.57,5.06,5.06,0,0,0,2.59-4.38,5.71,5.71,0,0,0-.65-2.63,4.88,4.88,0,0,0-4-2.46"/>
  <rect class="color" x="305.1" y="31.84" width="22.68" height="10.04" rx="5.02"/>
  <rect class="color" x="102.58" y="31.84" width="22.68" height="10.04" rx="5.02"/>
  <path class="color"
        d="M87.16,8.25A5.26,5.26,0,0,0,84,9.38a5.63,5.63,0,0,0-2.15,4.45,5.76,5.76,0,0,0,.92,3.09,5.32,5.32,0,0,0,4.47,2.46h.07a5.42,5.42,0,0,0,3-1,5.64,5.64,0,0,0,2.32-4.57,5.57,5.57,0,0,0-1.3-3.65,5.27,5.27,0,0,0-4-1.93Z"/>
  <g class="cls-6">
    <rect class="cls-7" x="81.77" y="8.16" width="11" height="11.31" transform="translate(-0.23 1.53) rotate(-1)"/>
  </g>
  <path class="color"
        d="M388.37,55.73a5.27,5.27,0,0,0-3.14,1.12,5.64,5.64,0,0,0-2.14,4.46A5.7,5.7,0,0,0,384,64.4a5.33,5.33,0,0,0,4.46,2.45h.07a5.35,5.35,0,0,0,3-1,5.65,5.65,0,0,0,2.31-4.56,5.6,5.6,0,0,0-1.29-3.65,5.24,5.24,0,0,0-4-1.93Z"/>
  <g class="cls-8">
    <rect class="cls-9" x="382.99" y="55.63" width="11" height="11.31" transform="translate(-1.01 6.79) rotate(-1)"/>
  </g>
</svg>
