<?xml version="1.0" encoding="UTF-8"?><svg id="Calque_1" xmlns="http://www.w3.org/2000/svg" viewBox="0 0 1920 206"><defs><style>.cls-1{fill:#fff;}.cls-2{stroke:#b3b3b3;}.cls-2,.cls-3{fill:none;stroke-miterlimit:10;}.cls-3{stroke:#a55afe;}</style></defs><path class="cls-1" d="m0,93c342.27,65.58,610.86,54.67,792.86,32.6,190.78-23.14,290.38-59.06,500.87-72.3,209.89-13.2,420.68,2.6,626.27,47v105.7H0v-113Z"/><path class="cls-2" d="m.5,117.5c303,60,385,64,567,56,191.99-8.44,583.89-158.62,873-160,209-1,274.41,31.6,480,76"/><path class="cls-3" d="m-3.2,111.35c342.27,65.58,466.7,61.22,648.7,39.15,190.78-23.14,505.5-112.76,716-126,209.89-13.2,353.41,27.6,559,72"/><path class="cls-2" d="m.8,127.35c348.7,61.15,377.7,75.15,545.7,63.15,191.69-13.69,506-164,818-181,225.16-12.27,366.7,25.15,556,74"/><path class="cls-2" d="m-3.42,99.4c342.27,65.58,385.92,60.1,567.92,48.1,191.76-12.64,664.09-112.74,875-114,167-1,216,18,481,71"/></svg>