<svg data-name="Calque 1" xmlns="http://www.w3.org/2000/svg" viewBox="0 0 326.74 13.69"><defs><style>.color,.color{fill:none;stroke-miterlimit:10;stroke-width:6px;}.color{stroke:#f1c76b;}.color{stroke:#679380;}</style></defs><path class="color" d="M-325.88,5.54c53.48-3.49,77.66-2,96.51,1A207.27,207.27,0,0,0-198,9.39c31.77.51,29.52-.63,65.61-2.89,22-1.37,31.94.28,55.69,1.2A589.74,589.74,0,0,0,.2,5.54"/><path class="color" d="M.39,5.67c53.49-3.49,77.66-2,96.51,1a206.11,206.11,0,0,0,31.34,2.83c31.78.52,29.52-.63,65.61-2.88,22-1.38,32,.27,55.69,1.19a589.74,589.74,0,0,0,76.93-2.16"/></svg>
