<?xml version="1.0" encoding="utf-8"?>
<!-- Generator: Adobe Illustrator 26.0.1, SVG Export Plug-In . SVG Version: 6.00 Build 0)  -->
<svg version="1.1" id="Calque_1" xmlns="http://www.w3.org/2000/svg" xmlns:xlink="http://www.w3.org/1999/xlink" x="0px" y="0px"
	 viewBox="0 0 150.5 189.5" style="enable-background:new 0 0 150.5 189.5;" xml:space="preserve">
<style type="text/css">
	.st44{fill:#FFFFFF;}
	.st55{fill:var(--primary);}
</style>
<g>
	<path class="st44" d="M72,113.2c-3.3,0-6.7,0.7-9.8,2.1v11.2c2.6-2.2,5.9-3.5,9.3-3.6c3.4-0.1,6.8,1,9.5,3c2.7,2.1,4.7,5,5.5,8.3
		c0.8,3.3,0.5,6.8-0.9,9.9c-1.4,3.1-3.9,5.6-7,7.1c-3.1,1.5-6.5,2-9.9,1.2c-3.3-0.8-6.3-2.6-8.5-5.2c-2.1-2.7-3.3-6-3.3-9.4
		c0-0.5,0-0.9,0.1-1.4h-0.1v-18.2V85.4h-9.7v52.4c0,4.9,1.4,9.7,4.2,13.7c2.7,4,6.6,7.2,11.1,9.1c4.6,1.9,9.5,2.4,14.3,1.4
		c4.8-1,9.2-3.3,12.7-6.8c3.5-3.4,5.9-7.8,6.8-12.6c1-4.8,0.5-9.7-1.4-14.3c-1.9-4.5-5-8.4-9.1-11.1C81.7,114.7,76.9,113.2,72,113.2
		z"/>
	<path class="st44" d="M125.6,113.2c-6.5,0-12.6,2.5-17.2,7c-4.6,4.5-7.3,10.6-7.5,16.9v52.4h9.7v-32.1v-19.6c0-0.2,0-0.5,0.1-0.8
		c0.2-3.4,1.5-6.6,3.7-9.2c2.3-2.6,5.3-4.3,8.7-4.9c3.3-0.6,6.8-0.1,9.8,1.6c3,1.6,5.3,4.2,6.7,7.3s1.6,6.6,0.7,9.9
		c-0.9,3.3-2.9,6.2-5.6,8.1s-6.1,3-9.5,2.9c-3.4-0.2-6.7-1.4-9.2-3.6v11.3c3.3,1.4,7.1,2.1,10.7,2.1c3.6-0.2,7.3-1.1,10.6-2.7
		s6.1-4.1,8.4-7c2.2-2.9,3.7-6.3,4.5-9.9c0.8-3.6,0.7-7.3-0.2-10.9c-0.8-3.6-2.5-6.9-4.9-9.7c-2.4-2.8-5.2-5.2-8.6-6.7
		C133,114.2,129.3,113.2,125.6,113.2L125.6,113.2z"/>
	<path class="st44" d="M25.6,152.7c-2.6,0.2-5.2-0.4-7.4-1.4c-2.4-1.1-4.3-2.8-5.8-4.9c-1.4-2.1-2.4-4.6-2.7-7.1
		c-0.2-2.6,0.2-5.2,1.2-7.5c1.1-2.4,2.7-4.4,4.7-5.9c2.1-1.5,4.5-2.5,7.1-2.9c2.6-0.3,5.2,0,7.5,1c2.4,1,4.5,2.5,6.2,4.5l6.5-7.3
		c-3.4-3.6-7.8-6.2-12.8-7.4c-4.9-1.1-10-0.7-14.7,1.1c-4.6,1.8-8.7,5.1-11.4,9.3c-2.8,4.2-4.3,9-4.1,14.1S1.7,148,4.6,152
		c2.9,4.1,7,7.1,11.8,8.9c4.7,1.7,9.9,1.9,14.7,0.7c4.9-1.3,9.2-4,12.5-7.8l-7.3-6.4c-1.3,1.5-3,2.8-4.7,3.7
		C29.6,152,27.7,152.5,25.6,152.7z"/>
</g>
<g>
	<path class="st55" d="M75.1,63.3c-7.2,0-14.3-2-20.3-5.9c-6.1-3.8-11-9.3-14.1-15.8c-3.1-6.5-4.3-13.7-3.4-20.8
		c0.9-7.1,3.7-13.9,8.3-19.4C46,0.9,46.4,0.5,46.8,0l8.3,7.4c-0.3,0.3-0.6,0.7-0.9,1c-3.9,4.8-6.1,10.8-6,17c0,4.4,1.1,8.7,3.1,12.5
		c2,3.9,5,7.2,8.6,9.7s7.8,4,12.1,4.6c4.4,0.5,8.8,0,12.9-1.6s7.7-4.1,10.6-7.4s4.9-7.2,6-11.5c1-4.3,1-8.7-0.1-12.9
		c-1.1-4.2-3.2-8.1-6.1-11.4l8.2-7.4c4.9,5.5,8.2,12.2,9.3,19.5c1.2,7.2,0.2,14.7-2.8,21.4c-3,6.7-7.9,12.4-14.1,16.4
		C89.7,61.1,82.5,63.3,75.1,63.3L75.1,63.3z"/>
	<path class="st55" d="M60.1,38.5c-2.6-2.9-4.3-6.4-4.9-10.2c-0.6-3.8-0.1-7.7,1.4-11.3c1.5-3.5,4.1-6.6,7.3-8.7
		c3.2-2.2,7-3.4,10.8-3.5c3.9-0.1,7.7,0.9,11,2.9s6,4.9,7.7,8.4s2.4,7.3,2,11.2c-0.4,3.8-2,7.5-4.4,10.5c-0.2,0.3-0.4,0.5-0.7,0.8
		l-6.9-6.2l0.3-0.4c1.6-2,2.5-4.4,2.5-6.9c0-1.7-0.4-3.4-1.1-4.9c-0.8-1.5-1.9-2.8-3.2-3.9c-1.4-1-2.9-1.7-4.6-2s-3.4-0.2-5,0.2
		c-1.6,0.5-3.2,1.3-4.4,2.4C66.6,18,65.6,19.4,65,21c-0.6,1.6-0.9,3.3-0.7,5c0.1,1.7,0.7,3.3,1.6,4.8c0.4,0.6,0.8,1.2,1.3,1.7
		L60.1,38.5z"/>
</g>
</svg>
