<?xml version="1.0" encoding="utf-8"?>
<!-- Generator: Adobe Illustrator 26.0.1, SVG Export Plug-In . SVG Version: 6.00 Build 0)  -->
<svg version="1.1" xmlns="http://www.w3.org/2000/svg" xmlns:xlink="http://www.w3.org/1999/xlink" x="0px" y="0px"
	 viewBox="0 0 160.8 113.5" style="enable-background:new 0 0 160.8 113.5;" xml:space="preserve">
<style type="text/css">
	.st0{fill:var(--primary);}
	.st1{fill:#FFFFFF;}
</style>
<path class="st0" d="M21.4,110.1h-4.3v-8h4.2v0.5h-3.7v3h3.6v0.5h-3.6v3.4h3.9V110.1z M29.8,110.1h-0.4v-3.5c0-0.2,0-0.5-0.1-0.7
	c0-0.2-0.1-0.4-0.2-0.5c-0.1-0.1-0.2-0.3-0.4-0.3c-0.2-0.1-0.4-0.1-0.6-0.1c-0.5,0-1,0.3-1.2,0.7c-0.1,0.2-0.1,0.3-0.2,0.5
	c0,0.1-0.1,0.3-0.1,0.4c0,0.1,0,0.3,0,0.4v3.1h-0.4v-3.4c0-0.2,0-0.5-0.1-0.7c0-0.2-0.1-0.4-0.2-0.6c-0.1-0.2-0.2-0.3-0.4-0.4
	c-0.2-0.1-0.4-0.2-0.6-0.2c-0.2,0-0.4,0-0.5,0.1c-0.2,0.1-0.3,0.2-0.4,0.3c-0.1,0.1-0.2,0.3-0.3,0.4c-0.1,0.3-0.2,0.6-0.2,0.9
	c0,0.1,0,0.3,0,0.4v3h-0.4v-4c0-0.2,0-0.5,0-0.8c0-0.3,0-0.5,0-0.8v-0.1h0.4v0.9c0.1-0.1,0.2-0.2,0.2-0.3c0.1-0.2,0.3-0.3,0.5-0.4
	c0.2-0.1,0.5-0.2,0.7-0.2c0.3,0,0.5,0,0.7,0.1c0.2,0.1,0.4,0.2,0.5,0.4c0.2,0.2,0.3,0.4,0.3,0.6l0,0c0.1-0.2,0.2-0.4,0.3-0.5
	c0.3-0.4,0.8-0.6,1.3-0.6c0.4,0,0.7,0.1,0.9,0.2c0.2,0.1,0.4,0.3,0.5,0.5c0.1,0.2,0.2,0.5,0.2,0.7c0,0.3,0.1,0.5,0.1,0.8L29.8,110.1
	L29.8,110.1z M23.3,106v0.3c0,0,0-0.1,0-0.1L23.3,106C23.4,106,23.3,106,23.3,106z M26.4,106.1c0,0.1,0,0.1,0,0.2
	C26.5,106.2,26.5,106.2,26.4,106.1L26.4,106.1z M32.3,112.1h-0.4v-5.8c0-0.6,0-1.1,0-1.7l0-0.1h0.5v1c0.2-0.4,0.5-0.7,0.9-0.9
	c0.2-0.1,0.5-0.1,0.7-0.1c0.4,0,0.7,0.1,1,0.3c0.3,0.2,0.5,0.4,0.7,0.7c0.2,0.3,0.3,0.6,0.4,0.9c0.2,0.7,0.2,1.4,0,2.1
	c-0.1,0.3-0.2,0.6-0.4,0.9c-0.2,0.3-0.4,0.5-0.6,0.7c-0.3,0.2-0.6,0.3-1,0.3c-0.7,0-1.4-0.4-1.7-1.1L32.3,112.1L32.3,112.1z
	 M33.9,104.8c-0.3,0-0.5,0.1-0.7,0.2c-0.2,0.1-0.4,0.3-0.5,0.5c-0.1,0.2-0.2,0.5-0.3,0.8c-0.1,0.6-0.1,1.2,0,1.8
	c0.1,0.3,0.2,0.6,0.3,0.8c0.1,0.2,0.3,0.4,0.5,0.6c0.2,0.1,0.5,0.2,0.8,0.2c0.3,0,0.5-0.1,0.7-0.2c0.2-0.1,0.4-0.3,0.5-0.5
	c0.1-0.2,0.2-0.5,0.3-0.8c0.1-0.6,0.1-1.2,0-1.8c-0.1-0.3-0.2-0.5-0.3-0.8c-0.1-0.2-0.3-0.4-0.5-0.6
	C34.5,104.9,34.2,104.8,33.9,104.8z M39.6,110.2c-0.4,0-0.7-0.1-1-0.3c-0.3-0.2-0.5-0.4-0.7-0.7c-0.2-0.3-0.3-0.6-0.4-1
	c-0.1-0.4-0.1-0.7-0.1-1.1c0-0.4,0-0.7,0.1-1.1c0.1-0.3,0.2-0.7,0.4-0.9c0.2-0.3,0.4-0.5,0.7-0.6c0.3-0.2,0.7-0.2,1-0.2
	c0.4,0,0.7,0.1,1,0.2c0.3,0.2,0.5,0.4,0.7,0.6c0.2,0.3,0.3,0.6,0.4,0.9c0.1,0.3,0.1,0.7,0.1,1.1c0,0.4,0,0.7-0.1,1.1
	c-0.1,0.3-0.2,0.7-0.4,1c-0.2,0.3-0.4,0.5-0.7,0.7C40.3,110.1,39.9,110.2,39.6,110.2z M39.6,104.8c-0.3,0-0.6,0.1-0.8,0.2
	c-0.2,0.1-0.4,0.3-0.6,0.5c-0.2,0.2-0.3,0.5-0.3,0.8c-0.2,0.6-0.2,1.2,0,1.8c0.1,0.3,0.2,0.6,0.3,0.8c0.1,0.2,0.3,0.4,0.6,0.6
	c0.2,0.1,0.5,0.2,0.8,0.2c0.3,0,0.6-0.1,0.8-0.2c0.2-0.1,0.4-0.3,0.6-0.6c0.1-0.2,0.3-0.5,0.3-0.8c0.1-0.3,0.1-0.6,0.1-0.9
	c0-0.3,0-0.6-0.1-0.9c-0.1-0.3-0.2-0.5-0.3-0.8c-0.1-0.2-0.3-0.4-0.6-0.5C40.1,104.9,39.8,104.8,39.6,104.8z M48.2,110.1h-0.4
	l-1.4-4.8l-1.5,4.8h-0.4l-1.8-5.7h0.5l1.5,4.8l1.5-4.8h0.4l1.4,4.8l1.5-4.8H50L48.2,110.1z M53.1,110.2c-0.4,0-0.7-0.1-1-0.2
	c-0.3-0.2-0.5-0.4-0.7-0.6c-0.2-0.3-0.3-0.6-0.4-0.9c-0.1-0.3-0.1-0.7-0.1-1.1c0-0.4,0-0.7,0.1-1.1c0.1-0.4,0.2-0.7,0.4-1
	c0.2-0.3,0.4-0.5,0.7-0.7c0.3-0.2,0.6-0.3,1-0.3c0.4,0,0.7,0.1,1,0.3c0.2,0.2,0.4,0.4,0.6,0.6c0.1,0.3,0.2,0.5,0.3,0.8
	c0.1,0.3,0.1,0.6,0.1,0.8v0.4h-3.7v0c0,0.3,0,0.6,0.1,0.9c0.1,0.3,0.2,0.5,0.3,0.7c0.1,0.2,0.3,0.4,0.5,0.5c0.2,0.1,0.5,0.2,0.8,0.2
	c0.4,0,0.7-0.1,0.9-0.3c0.2-0.2,0.4-0.6,0.5-1l0-0.1h0.5l0,0.2c-0.1,0.5-0.3,1-0.6,1.3C54.1,110,53.7,110.2,53.1,110.2z M51.4,106.9
	h3.2v0c0-0.3,0-0.5-0.1-0.8c0-0.2-0.1-0.4-0.3-0.6c-0.1-0.2-0.3-0.3-0.4-0.4c-0.2-0.1-0.4-0.2-0.7-0.2c-0.3,0-0.5,0.1-0.8,0.2
	c-0.2,0.1-0.4,0.3-0.5,0.5c-0.1,0.2-0.3,0.4-0.3,0.7C51.5,106.4,51.4,106.6,51.4,106.9z M57.2,110.1h-0.4v-4.8c0-0.3,0-0.5,0-0.8
	l0-0.1h0.5v0.7c0.1-0.1,0.2-0.2,0.3-0.3c0.1-0.1,0.3-0.2,0.5-0.3c0.2-0.1,0.5-0.1,0.8-0.1c0.1,0,0.1,0,0.1,0l0.1,0v0.5l-0.2,0
	c-0.1,0-0.1,0-0.2,0c-0.2,0-0.5,0-0.7,0.1c-0.1,0.1-0.3,0.2-0.4,0.3c-0.1,0.1-0.2,0.2-0.3,0.4c-0.1,0.2-0.1,0.3-0.2,0.5
	c0,0.1,0,0.3-0.1,0.4c0,0.1,0,0.3,0,0.4L57.2,110.1L57.2,110.1z M64.4,112.1h-0.5l0.8-2.3l-2.1-5.4h0.5l1.8,4.7l1.7-4.7h0.5
	L64.4,112.1z M70.3,110.2c-0.4,0-0.7-0.1-1-0.3c-0.3-0.2-0.5-0.4-0.7-0.7c-0.2-0.3-0.3-0.6-0.4-1c-0.1-0.4-0.1-0.7-0.1-1.1
	c0-0.4,0-0.7,0.1-1.1c0.1-0.3,0.2-0.7,0.4-0.9c0.2-0.3,0.4-0.5,0.7-0.6c0.3-0.2,0.6-0.2,1-0.2c0.4,0,0.7,0.1,1,0.2
	c0.3,0.2,0.5,0.4,0.7,0.6c0.2,0.3,0.3,0.6,0.4,0.9c0.1,0.3,0.1,0.7,0.1,1.1c0,0.4,0,0.7-0.1,1.1c-0.1,0.3-0.2,0.7-0.4,1
	c-0.2,0.3-0.4,0.5-0.7,0.7C71,110.1,70.7,110.2,70.3,110.2z M70.3,104.8c-0.3,0-0.6,0.1-0.8,0.2c-0.2,0.1-0.4,0.3-0.6,0.5
	c-0.2,0.2-0.3,0.5-0.3,0.8c-0.2,0.6-0.2,1.2,0,1.8c0.1,0.3,0.2,0.6,0.3,0.8c0.2,0.2,0.3,0.4,0.6,0.6c0.2,0.1,0.5,0.2,0.8,0.2
	c0.3,0,0.6-0.1,0.8-0.2c0.2-0.1,0.4-0.3,0.6-0.6c0.2-0.2,0.3-0.5,0.3-0.8c0.1-0.3,0.1-0.6,0.1-0.9c0-0.3,0-0.6-0.1-0.9
	c-0.1-0.3-0.2-0.5-0.3-0.8c-0.1-0.2-0.3-0.4-0.6-0.5C70.8,104.9,70.6,104.8,70.3,104.8L70.3,104.8z M75.9,110.1
	c-0.3,0-0.5,0-0.7-0.1c-0.2-0.1-0.4-0.2-0.6-0.4c-0.2-0.2-0.3-0.4-0.4-0.7c-0.1-0.3-0.1-0.7-0.1-1v-3.5h0.4v3.3c0,0.3,0,0.5,0,0.8
	c0,0.2,0.1,0.4,0.2,0.6c0.1,0.2,0.2,0.3,0.4,0.4c0.2,0.1,0.4,0.1,0.7,0.1c0.4,0,0.8-0.1,1-0.4c0.3-0.3,0.4-0.6,0.5-1.1
	c0-0.1,0-0.2,0-0.4c0-0.1,0-0.3,0-0.4v-3h0.4v4c0,0.2,0,0.4,0,0.7s0,0.6,0,0.8l0,0.1h-0.5v-0.8c-0.1,0.2-0.2,0.3-0.4,0.5
	C76.7,110,76.3,110.1,75.9,110.1L75.9,110.1z M80.4,110.1H80v-4.8c0-0.1,0-0.2,0-0.4l0-0.4l0-0.1h0.5v0.7c0.2-0.3,0.4-0.5,0.7-0.6
	c0.2-0.1,0.5-0.1,0.8-0.1c0.1,0,0.1,0,0.1,0l0.1,0v0.5l-0.2,0c-0.1,0-0.1,0-0.2,0c-0.2,0-0.5,0-0.7,0.1c-0.1,0.1-0.3,0.2-0.4,0.3
	c-0.1,0.1-0.2,0.2-0.3,0.4c-0.1,0.2-0.1,0.3-0.2,0.5c0,0.1,0,0.3-0.1,0.4c0,0.1,0,0.3,0,0.4L80.4,110.1L80.4,110.1z M88.5,110.2
	c-0.6,0-1.2-0.2-1.5-0.6c-0.4-0.4-0.6-0.9-0.6-1.6l0-0.1h0.5l0,0.1c0,0.2,0,0.4,0.1,0.6c0.1,0.2,0.2,0.4,0.3,0.5
	c0.1,0.2,0.3,0.3,0.5,0.4c0.2,0.1,0.5,0.1,0.8,0.1c0.2,0,0.5,0,0.7-0.1c0.4-0.1,0.8-0.4,1-0.8c0.1-0.2,0.2-0.5,0.2-0.8
	c0-0.2,0-0.4-0.1-0.6c-0.1-0.2-0.2-0.3-0.3-0.4c-0.2-0.1-0.3-0.2-0.5-0.3c-0.2-0.1-0.4-0.2-0.6-0.3l-0.7-0.3
	c-0.2-0.1-0.4-0.2-0.6-0.3c-0.2-0.1-0.4-0.2-0.5-0.4c-0.2-0.2-0.3-0.3-0.4-0.6c-0.1-0.2-0.1-0.5-0.1-0.7c0-0.3,0.1-0.7,0.2-0.9
	c0.1-0.3,0.3-0.5,0.5-0.6c0.2-0.2,0.4-0.3,0.7-0.4c0.5-0.1,1.1-0.2,1.6,0c0.3,0.1,0.5,0.2,0.7,0.3c0.2,0.1,0.4,0.3,0.5,0.5
	c0.1,0.2,0.2,0.5,0.2,0.8l0,0.1h-0.5l0-0.1c0-0.2-0.1-0.4-0.2-0.6c-0.1-0.2-0.2-0.3-0.4-0.4c-0.2-0.1-0.3-0.2-0.5-0.2
	c-0.4-0.1-0.8-0.1-1.3,0c-0.2,0.1-0.4,0.2-0.6,0.3c-0.2,0.1-0.3,0.3-0.4,0.5c-0.1,0.2-0.2,0.4-0.2,0.7c0,0.2,0,0.4,0.1,0.5
	c0.1,0.2,0.2,0.3,0.3,0.4c0.1,0.1,0.3,0.2,0.4,0.3c0.2,0.1,0.4,0.2,0.6,0.2l0.7,0.3c0.2,0.1,0.5,0.2,0.7,0.3
	c0.2,0.1,0.4,0.2,0.6,0.4c0.2,0.2,0.3,0.4,0.4,0.6c0.1,0.2,0.2,0.5,0.2,0.8c0,0.3-0.1,0.7-0.2,1c-0.1,0.3-0.3,0.5-0.5,0.7
	c-0.2,0.2-0.5,0.3-0.7,0.4C89.1,110.1,88.8,110.2,88.5,110.2L88.5,110.2z M94.3,110.1c-0.2,0-0.5,0-0.7-0.1
	c-0.2-0.1-0.4-0.2-0.6-0.4c-0.2-0.2-0.3-0.4-0.4-0.7c-0.1-0.3-0.1-0.7-0.1-1v-3.5H93v3.3c0,0.3,0,0.5,0,0.8c0,0.2,0.1,0.4,0.2,0.6
	c0.1,0.2,0.2,0.3,0.4,0.4c0.2,0.1,0.4,0.1,0.7,0.1c0.4,0,0.8-0.1,1-0.4c0.3-0.3,0.4-0.6,0.5-1.1c0-0.1,0-0.2,0-0.4
	c0-0.1,0-0.3,0-0.4v-3h0.4v4c0,0.5,0,1,0,1.5l0,0.1h-0.5v-0.8c-0.1,0.2-0.2,0.3-0.4,0.5c-0.2,0.1-0.3,0.2-0.5,0.3
	C94.7,110.1,94.5,110.1,94.3,110.1z M98.8,112.1h-0.4v-5.8c0-0.6,0-1.1,0-1.7l0-0.1h0.5v1c0.2-0.4,0.5-0.7,0.9-0.9
	c0.2-0.1,0.5-0.1,0.7-0.1c0.4,0,0.7,0.1,1,0.3c0.3,0.2,0.5,0.4,0.7,0.7c0.2,0.3,0.3,0.6,0.4,0.9c0.2,0.7,0.2,1.4,0,2.1
	c-0.1,0.3-0.2,0.6-0.4,0.9c-0.2,0.3-0.4,0.5-0.6,0.7c-0.3,0.2-0.6,0.3-1,0.3c-0.7,0-1.4-0.4-1.7-1.1
	C98.8,109.1,98.8,112.1,98.8,112.1z M100.4,104.8c-0.3,0-0.5,0.1-0.7,0.2c-0.2,0.1-0.4,0.3-0.5,0.5c-0.1,0.2-0.2,0.5-0.3,0.8
	c-0.1,0.6-0.1,1.2,0,1.8c0.1,0.3,0.2,0.6,0.3,0.8c0.1,0.2,0.3,0.4,0.5,0.6c0.2,0.1,0.5,0.2,0.8,0.2c0.3,0,0.5-0.1,0.7-0.2
	c0.2-0.1,0.4-0.3,0.5-0.5c0.1-0.2,0.2-0.5,0.3-0.8c0.1-0.6,0.1-1.2,0-1.8c-0.1-0.3-0.2-0.5-0.3-0.8c-0.1-0.2-0.3-0.4-0.5-0.6
	C100.9,104.9,100.7,104.8,100.4,104.8L100.4,104.8z M104.7,112.1h-0.4v-5.8c0-0.6,0-1.1,0-1.7l0-0.1h0.5v1c0.1-0.2,0.2-0.4,0.3-0.5
	c0.1-0.2,0.3-0.3,0.5-0.4c0.2-0.1,0.5-0.1,0.7-0.1c0.4,0,0.7,0.1,1,0.3c0.3,0.2,0.5,0.4,0.7,0.7c0.2,0.3,0.3,0.6,0.4,0.9
	c0.1,0.3,0.1,0.7,0.1,1.1c0,0.3,0,0.7-0.1,1c-0.1,0.3-0.2,0.6-0.4,0.9c-0.2,0.3-0.4,0.5-0.6,0.7c-0.3,0.2-0.6,0.3-1,0.3
	c-0.7,0-1.4-0.4-1.7-1.1L104.7,112.1L104.7,112.1z M106.3,104.8c-0.3,0-0.5,0.1-0.7,0.2c-0.2,0.1-0.4,0.3-0.5,0.5
	c-0.1,0.2-0.2,0.5-0.3,0.8c-0.1,0.3-0.1,0.6-0.1,0.9c0,0.3,0,0.6,0.1,0.9c0.1,0.3,0.2,0.6,0.3,0.8c0.1,0.2,0.3,0.4,0.5,0.6
	c0.2,0.1,0.5,0.2,0.8,0.2c0.3,0,0.5-0.1,0.7-0.2c0.2-0.1,0.4-0.3,0.5-0.5c0.1-0.2,0.2-0.5,0.3-0.8c0.1-0.6,0.1-1.2,0-1.8
	c-0.1-0.3-0.2-0.5-0.3-0.8c-0.1-0.2-0.3-0.4-0.5-0.6C106.8,104.9,106.5,104.8,106.3,104.8L106.3,104.8z M110.1,102.1h0.4v8h-0.4
	V102.1z M113.6,112.1h-0.5l0.8-2.3l-2.1-5.4h0.5l1.8,4.7l1.7-4.7h0.5L113.6,112.1z M123.4,110.2c-0.5,0-1-0.1-1.4-0.3
	c-0.4-0.2-0.7-0.5-0.9-0.9c-0.2-0.4-0.4-0.8-0.5-1.3c-0.2-1-0.2-2,0-2.9c0.1-0.5,0.3-0.9,0.5-1.3c0.2-0.4,0.5-0.7,0.9-1
	c0.4-0.2,0.9-0.4,1.4-0.4c0.3,0,0.5,0,0.8,0.1c0.3,0.1,0.5,0.2,0.7,0.3c0.2,0.1,0.4,0.3,0.5,0.6c0.1,0.2,0.2,0.5,0.3,0.8l0,0.2h-0.5
	l0-0.1c0-0.2-0.1-0.5-0.2-0.7c-0.1-0.2-0.2-0.3-0.4-0.4c-0.2-0.1-0.3-0.2-0.5-0.2c-0.2-0.1-0.4-0.1-0.6-0.1c-0.5,0-0.9,0.1-1.2,0.3
	c-0.3,0.2-0.6,0.5-0.8,0.9c-0.2,0.4-0.4,0.8-0.4,1.2c-0.1,0.4-0.1,0.8-0.1,1.3c0,0.4,0,0.9,0.1,1.3c0.1,0.4,0.2,0.8,0.4,1.1
	c0.2,0.3,0.5,0.6,0.8,0.8c0.3,0.2,0.7,0.3,1.2,0.3c0.4,0,0.8-0.1,1.1-0.4s0.5-0.6,0.7-1.1l0-0.1h0.5l0,0.2c-0.1,0.6-0.4,1.1-0.8,1.4
	C124.6,110,124.1,110.2,123.4,110.2L123.4,110.2z M131.2,110.1h-0.4v-3.3c0-0.3,0-0.5,0-0.8c0-0.2-0.1-0.4-0.2-0.6
	c-0.1-0.2-0.2-0.3-0.4-0.4c-0.2-0.1-0.4-0.1-0.7-0.1c-0.4,0-0.8,0.1-1,0.4c-0.3,0.3-0.4,0.7-0.5,1.1c0,0.1,0,0.2,0,0.4
	c0,0.1,0,0.3,0,0.4v2.9h-0.4v-8h0.4v3.2c0.1-0.2,0.2-0.4,0.4-0.5c0.2-0.1,0.3-0.2,0.5-0.3c0.4-0.2,0.9-0.2,1.3,0
	c0.2,0.1,0.4,0.2,0.6,0.4c0.2,0.2,0.3,0.4,0.4,0.7c0.1,0.3,0.1,0.6,0.1,1L131.2,110.1L131.2,110.1z M134.7,110.2
	c-0.2,0-0.4,0-0.6-0.1c-0.2,0-0.4-0.1-0.6-0.3c-0.2-0.1-0.3-0.3-0.5-0.5c-0.1-0.2-0.2-0.5-0.2-0.8c0-0.4,0.1-0.7,0.3-1
	c0.2-0.2,0.4-0.4,0.7-0.6c0.3-0.1,0.6-0.2,0.9-0.3c0.3,0,0.6-0.1,0.9-0.1c0.2,0,0.4,0,0.6,0v-0.2c0-0.5-0.1-0.9-0.3-1.2
	c-0.2-0.3-0.5-0.4-1-0.4c-0.2,0-0.3,0-0.5,0.1c-0.3,0.1-0.5,0.2-0.6,0.5c-0.1,0.2-0.1,0.3-0.1,0.5l0,0.1h-0.4l0-0.1
	c0-0.3,0.1-0.5,0.2-0.7c0.1-0.2,0.2-0.3,0.4-0.5c0.2-0.1,0.3-0.2,0.5-0.3c0.2-0.1,0.4-0.1,0.6-0.1c0.6,0,1.1,0.2,1.4,0.5
	c0.3,0.3,0.4,0.9,0.4,1.5v2c0,0.5,0,1,0,1.6l0,0.1h-0.4l0-0.1c0-0.2,0-0.4,0-0.6v-0.1c-0.1,0.2-0.3,0.4-0.5,0.5
	c-0.2,0.1-0.4,0.2-0.6,0.3C135.1,110.2,134.9,110.2,134.7,110.2L134.7,110.2z M135.8,107.1c-0.2,0-0.5,0-0.8,0
	c-0.3,0-0.5,0.1-0.8,0.2c-0.2,0.1-0.4,0.2-0.6,0.4c-0.2,0.2-0.2,0.4-0.2,0.8c0,0.2,0,0.4,0.1,0.5c0.1,0.1,0.2,0.3,0.3,0.4
	c0.1,0.1,0.3,0.2,0.4,0.2c0.2,0,0.3,0.1,0.5,0.1c0.3,0,0.5-0.1,0.7-0.2c0.2-0.1,0.4-0.2,0.5-0.4c0.1-0.2,0.2-0.4,0.3-0.6
	c0.1-0.2,0.1-0.5,0.1-0.8v-0.6l-0.2,0C136,107.1,135.9,107.1,135.8,107.1L135.8,107.1z M136.4,108.5L136.4,108.5l0-0.2
	C136.4,108.4,136.4,108.5,136.4,108.5z M139.2,110.1h-0.4v-5.7h0.4V110.1z M139.2,103h-0.4v-0.9h0.4V103z M145,110.1h-0.4v-3.3
	c0-0.3,0-0.5,0-0.8c0-0.2-0.1-0.4-0.2-0.6c-0.1-0.2-0.2-0.3-0.4-0.4c-0.2-0.1-0.4-0.1-0.7-0.1c-0.4,0-0.8,0.1-1,0.4
	c-0.3,0.3-0.4,0.7-0.5,1.1c0,0.1,0,0.2,0,0.4c0,0.1,0,0.3,0,0.4v2.9h-0.4v-4.7c0-0.3,0-0.5,0-0.8l0-0.1h0.5v0.9
	c0.1-0.2,0.3-0.4,0.4-0.5c0.2-0.1,0.3-0.3,0.5-0.3c0.4-0.2,0.9-0.1,1.3,0c0.2,0.1,0.4,0.2,0.6,0.4c0.2,0.2,0.3,0.4,0.4,0.7
	c0.1,0.3,0.1,0.6,0.1,1L145,110.1L145,110.1z"/>
<path class="st1" d="M86.8,68.5c1.5,0,2.7,0.3,3.8,0.9c1,0.6,1.9,1.3,2.5,1.9c0.5,0.6,0.5,1.2,0,1.8l-0.9,1
	c-0.3,0.3-0.5,0.4-0.7,0.4c-0.2,0-0.5-0.1-0.8-0.4c-0.3-0.3-0.8-0.7-1.5-1.2c-0.7-0.4-1.5-0.7-2.3-0.7c-0.5,0-1.1,0.1-1.6,0.3
	c-0.5,0.2-0.9,0.5-1.2,0.8c-0.3,0.3-0.6,0.7-0.8,1.2c-0.2,0.4-0.3,0.9-0.3,1.4c0,0.6,0.1,1.2,0.2,1.6c0.2,0.5,0.4,0.9,0.8,1.3
	c0.3,0.4,0.8,0.8,1.3,1.2c0.6,0.4,1.2,0.7,2,1.1c1,0.5,1.9,1,2.8,1.6c0.8,0.5,1.5,1.1,2.1,1.9c0.6,0.7,1,1.5,1.3,2.4
	c0.3,0.9,0.4,1.9,0.4,3c0,1-0.2,2.1-0.6,3c-0.4,0.9-1,1.8-1.7,2.5c-0.7,0.7-1.6,1.3-2.5,1.7c-1,0.4-2,0.7-3.1,0.7
	c-1.7,0-3.1-0.3-4.1-0.9c-1-0.6-1.9-1.3-2.6-2.2C79.1,94.6,79,94.3,79,94c0-0.3,0.1-0.6,0.3-0.9l0.8-0.9c0.3-0.3,0.5-0.4,0.8-0.4
	c0.3,0,0.6,0.2,0.8,0.4c0.2,0.2,0.4,0.4,0.7,0.7c0.3,0.2,0.6,0.5,0.9,0.7c0.4,0.2,0.8,0.4,1.2,0.5c0.5,0.1,1,0.2,1.5,0.2
	c1.2,0,2.2-0.4,3-1.1c0.8-0.7,1.2-1.7,1.2-2.8c0-1.3-0.4-2.3-1.1-3c-0.7-0.8-1.8-1.5-3.4-2.3c-0.9-0.5-1.8-1-2.6-1.6
	c-0.8-0.5-1.4-1.2-2-1.9c-0.6-0.7-1-1.5-1.3-2.4c-0.3-0.9-0.4-1.9-0.4-3c0-0.9,0.2-1.9,0.5-2.8c0.3-0.9,0.8-1.7,1.5-2.4
	c0.7-0.7,1.5-1.3,2.3-1.7C84.6,68.7,85.6,68.5,86.8,68.5z M29.6,68.5c1.3,0,2.5,0.2,3.6,0.7c1.1,0.5,2.1,1.1,2.9,2
	c0.8,0.8,1.4,1.9,1.9,3c0.4,1.2,0.7,2.5,0.7,3.9v10.1c0,1.4-0.2,2.7-0.7,3.9c-0.4,1.2-1.1,2.2-1.9,3c-0.8,0.8-1.8,1.5-2.9,2
	c-1.1,0.5-2.3,0.7-3.6,0.7s-2.5-0.2-3.6-0.7c-1.1-0.5-2.1-1.1-2.9-2c-0.8-0.8-1.4-1.9-1.9-3c-0.4-1.2-0.7-2.5-0.7-3.9V78.1
	c0-1.4,0.2-2.7,0.7-3.9c0.4-1.2,1.1-2.2,1.9-3c0.8-0.8,1.8-1.5,2.9-2C27.1,68.7,28.3,68.5,29.6,68.5z M29.6,72.3
	c-1.7,0-3.1,0.6-4,1.7c-0.9,1.1-1.4,2.5-1.4,4.2v10.1c0,1.7,0.5,3.1,1.4,4.2c0.9,1.1,2.3,1.7,4,1.7c1.7,0,3.1-0.6,4-1.7
	c0.9-1.1,1.4-2.5,1.4-4.2V78.1c0-1.7-0.5-3.1-1.4-4.2C32.7,72.8,31.4,72.3,29.6,72.3z M54,68.5c0.8,0,1.6,0.1,2.3,0.3
	c0.7,0.2,1.3,0.4,1.9,0.7c0.5,0.3,1,0.6,1.5,0.9c0.4,0.4,0.8,0.7,1.1,1c0.5,0.6,0.5,1.2,0,1.8l-0.9,1c-0.3,0.3-0.5,0.4-0.7,0.4
	c-0.2,0-0.5-0.1-0.8-0.4c-0.3-0.3-0.8-0.7-1.5-1.2c-0.7-0.4-1.6-0.7-2.8-0.7c-0.8,0-1.5,0.2-2.2,0.5c-0.6,0.3-1.2,0.8-1.6,1.3
	c-0.5,0.6-0.8,1.3-1,2c-0.2,0.8-0.4,1.6-0.3,2.5v9.2c0,1.9,0.4,3.4,1.3,4.5c0.8,1.2,2.1,1.7,3.7,1.7c1.7,0,3.1-0.5,3.9-1.6
	c0.9-1,1.3-2.4,1.3-4.1v-3.2h-3.9c-0.4,0-0.7-0.1-0.9-0.3c-0.2-0.2-0.3-0.5-0.3-0.9v-1.3c0-0.4,0.1-0.7,0.3-0.9
	c0.2-0.2,0.5-0.3,0.9-0.3h5l0,0h1.3c0.4,0,0.6,0.1,0.8,0.3c0.2,0.2,0.3,0.5,0.3,0.9v5.9c0,1.4-0.2,2.7-0.7,3.9c-0.4,1.2-1,2.2-1.8,3
	c-0.8,0.8-1.7,1.5-2.8,1.9c-1.1,0.4-2.3,0.7-3.6,0.7c-1.3,0-2.4-0.2-3.5-0.7c-1-0.5-2-1.2-2.7-2.1c-0.8-0.9-1.4-1.9-1.8-3.2
	c-0.4-1.2-0.6-2.6-0.6-4.1v-9.2c0-1.5,0.2-2.8,0.7-4c0.4-1.2,1.1-2.3,1.8-3.2c0.8-0.9,1.7-1.6,2.8-2.1C51.6,68.7,52.8,68.5,54,68.5z
	 M152.7,68.9c1,0,2,0.2,2.9,0.6c0.9,0.4,1.7,1,2.3,1.7c0.7,0.7,1.2,1.6,1.5,2.5c0.4,1,0.6,2,0.6,3.1c0,1.6-0.3,3-1,4.2
	c-0.7,1.2-1.6,2.2-2.6,2.8c-0.4,0.3-0.5,0.7-0.3,1.2l4.6,10.8c0.2,0.4,0.2,0.8,0,1.1c-0.2,0.3-0.4,0.4-0.8,0.4h-1.8
	c-0.6,0-1.1-0.4-1.4-1.1l-4.5-10.7c-0.2-0.4-0.4-0.6-0.8-0.6h-3.7c-0.3,0-0.4,0.1-0.4,0.4v10.7c0,0.4-0.1,0.7-0.3,0.9
	s-0.5,0.3-0.8,0.3h-1.3c-0.4,0-0.6-0.1-0.8-0.3c-0.2-0.2-0.3-0.5-0.3-0.9v-26c0-0.4,0.1-0.7,0.3-0.9s0.5-0.3,0.8-0.3L152.7,68.9
	L152.7,68.9z M152.5,72.7h-4.7c-0.3,0-0.4,0.1-0.4,0.4v7.8c0,0.3,0.1,0.4,0.4,0.4l4.7,0c1,0,2-0.4,2.7-1.2c0.4-0.4,0.7-0.9,0.9-1.4
	c0.2-0.6,0.3-1.2,0.3-1.8c0-0.6-0.1-1.2-0.3-1.7c-0.2-0.5-0.5-0.9-0.9-1.3c-0.4-0.4-0.8-0.6-1.3-0.8C153.5,72.8,153,72.7,152.5,72.7
	L152.5,72.7z M129.3,68.9c0.4,0,0.6,0.1,0.9,0.2c0.2,0.2,0.4,0.5,0.5,0.9l7.7,26.2c0.2,0.8-0.1,1.2-0.8,1.2h-1.9
	c-0.7,0-1.1-0.3-1.3-1l-1.9-7.1h-9l-1.9,7.1c-0.2,0.7-0.6,1-1.3,1h-1.9c-0.7,0-1-0.4-0.8-1.2l7.7-26.2c0.1-0.4,0.3-0.7,0.5-0.9
	c0.2-0.2,0.5-0.2,0.9-0.2L129.3,68.9L129.3,68.9z M127.9,73.8c-0.2,0-0.3,0.2-0.4,0.5l0,0l0,0l-3.1,11.3h6.9l-3.1-11.3v0l0,0
	C128.3,73.9,128.1,73.8,127.9,73.8L127.9,73.8z M115.6,68.9c0.4,0,0.6,0.1,0.8,0.3c0.2,0.2,0.3,0.5,0.3,0.9v1.3
	c0,0.4-0.1,0.7-0.3,0.9c-0.2,0.2-0.5,0.3-0.8,0.3h-5.8c-0.3,0-0.4,0.1-0.4,0.4v23.1c0,0.4-0.1,0.7-0.3,0.9c-0.2,0.2-0.5,0.3-0.8,0.3
	H107c-0.4,0-0.6-0.1-0.8-0.3c-0.2-0.2-0.3-0.5-0.3-0.9V73.1c0-0.3-0.1-0.4-0.4-0.4h-5.8c-0.4,0-0.6-0.1-0.8-0.3s-0.3-0.5-0.3-0.9
	v-1.3c0-0.4,0.1-0.7,0.3-0.9s0.5-0.3,0.8-0.3C99.7,68.9,115.6,68.9,115.6,68.9z M71.2,68.9c0.4,0,0.6,0.1,0.8,0.3
	c0.2,0.2,0.3,0.5,0.3,0.9v26c0,0.4-0.1,0.7-0.3,0.9c-0.2,0.2-0.5,0.3-0.8,0.3h-1.3c-0.4,0-0.6-0.1-0.8-0.3c-0.2-0.2-0.3-0.5-0.3-0.9
	v-26c0-0.4,0.1-0.7,0.3-0.9c0.2-0.2,0.5-0.3,0.8-0.3C69.8,68.9,71.2,68.9,71.2,68.9z M3.7,68.9c0.4,0,0.6,0.1,0.8,0.3
	c0.2,0.2,0.3,0.5,0.3,0.9v23.1c0,0.3,0.1,0.4,0.4,0.4h10.5c0.4,0,0.6,0.1,0.8,0.3c0.2,0.2,0.3,0.5,0.3,0.9v1.3
	c0,0.4-0.1,0.7-0.3,0.9c-0.2,0.2-0.5,0.3-0.8,0.3H2.4c-0.4,0-0.6-0.1-0.8-0.3c-0.2-0.2-0.3-0.5-0.3-0.9v-26c0-0.4,0.1-0.7,0.3-0.9
	C1.8,69,2,68.9,2.4,68.9L3.7,68.9L3.7,68.9z M58.4,42.9c-0.3-0.3-0.3-0.9,0-1.2c0.3-0.3,0.7-0.4,1-0.1c0,0,0.1,0,0.1,0.1
	c0.3,0.3,0.3,0.9,0,1.2C59.3,43.2,58.8,43.2,58.4,42.9C58.5,42.9,58.4,42.9,58.4,42.9z M54.9,38.1c-0.2-0.4-0.1-0.9,0.3-1.2
	c0.4-0.2,0.9-0.1,1.1,0.3c0.2,0.4,0.1,0.9-0.3,1.2c-0.1,0.1-0.2,0.1-0.4,0.1C55.3,38.5,55.1,38.4,54.9,38.1z M53.1,32.3L53.1,32.3
	c-0.1-0.5,0.2-0.9,0.7-1c0.4-0.1,0.8,0.2,0.9,0.7c0.1,0.5-0.2,0.9-0.7,1c0,0-0.1,0-0.1,0C53.5,33,53.1,32.7,53.1,32.3z M53.8,27.2
	c-0.4-0.1-0.7-0.5-0.6-1c0.1-0.5,0.5-0.8,0.9-0.7c0.4,0.1,0.7,0.5,0.6,1c-0.1,0.4-0.4,0.7-0.8,0.7C53.9,27.2,53.8,27.2,53.8,27.2z
	 M55.4,21.6c-0.4-0.2-0.5-0.7-0.3-1.2c0.2-0.4,0.7-0.6,1.1-0.3c0.4,0.2,0.5,0.8,0.3,1.2c-0.1,0.3-0.4,0.4-0.7,0.5
	C55.6,21.7,55.5,21.7,55.4,21.6z M58.4,16.8c-0.3-0.3-0.3-0.9,0-1.2c0.3-0.3,0.7-0.4,1-0.1c0,0,0,0,0.1,0.1c0.3,0.3,0.3,0.9,0,1.2
	c-0.1,0.2-0.4,0.3-0.6,0.3C58.7,17,58.5,16.9,58.4,16.8z M62.3,12.9c-0.2-0.4-0.1-0.9,0.2-1.2c0.4-0.3,0.9-0.2,1.1,0.2
	s0.1,0.9-0.2,1.2c-0.1,0.1-0.3,0.1-0.4,0.1C62.7,13.2,62.5,13.1,62.3,12.9z M67,9.9c-0.2-0.4,0-0.9,0.4-1.1c0.4-0.2,0.9,0,1,0.5
	c0.2,0.4,0,0.9-0.4,1.1c-0.1,0-0.2,0.1-0.3,0.1C67.4,10.5,67.1,10.3,67,9.9z M72.1,8c-0.1-0.5,0.2-0.9,0.6-1
	c0.4-0.1,0.8,0.2,0.9,0.7c0.1,0.5-0.2,0.9-0.6,1v0c-0.1,0-0.1,0-0.2,0C72.5,8.7,72.1,8.4,72.1,8z M77.3,6.9C77.3,6.5,77.6,6,78,6
	c0.4-0.1,0.8,0.3,0.9,0.7c0.1,0.5-0.2,0.9-0.7,1c0,0-0.1,0-0.1,0C77.7,7.7,77.4,7.4,77.3,6.9z"/>
<path class="st0" d="M91.6-0.1c-0.3-0.2-0.6-0.1-0.8,0.2l-14.8,19c-0.1,0.1-0.1,0.3-0.1,0.5l0.2,9c0,0.2,0.1,0.5,0.3,0.6
	c0.2,0.1,0.4,0.1,0.6,0l8.2-4.6c0.2-0.1,0.3-0.2,0.3-0.4l6.5-23.4C92,0.5,91.8,0.1,91.6-0.1z"/>
<path class="st1" d="M60.5,59.8c0.3,0.2,0.6,0.1,0.8-0.2L75,41.8c0.1-0.1,0.1-0.3,0.1-0.5l-0.2-9c0-0.2-0.1-0.5-0.3-0.6
	c-0.2-0.1-0.4-0.1-0.6,0l-8.2,4.6c-0.1,0.1-0.3,0.2-0.3,0.4l-5.3,22.2C60.1,59.2,60.2,59.6,60.5,59.8z"/>
</svg>
