<svg enable-background="new 0 0 283 337" viewBox="0 0 283 337" xmlns="http://www.w3.org/2000/svg" role="img"
     aria-labelledby="logoTitle logoDesc">
  <title id="logoTitle">www.neo-soft.fr</title>
  <desc id="logoDesc">Néo-Soft Groupe</desc>
  <g id="logo-graphic" fill="#currentColor">
    <path
      d="m247 211.6c1.5-1.2 3.5-2.9 3.7-4.9.1-1.1-.3-2.2-1.3-3.2-.8-.9-1.7-1.4-2.6-1.4h-.1c-1.6 0-3.2 1.4-4.6 2.7l-3.2 2.9c-25.6 22.9-56 34.3-93.2 34.9-1.3-.1-2.8-.2-4.4-.4-4.5-.3-10.1-.8-15.7-1.7-34.9-6.1-65.5-25.3-86.1-54.1-20.5-28.8-28.8-64-23.3-99 4.8-30.4 19.2-56.7 42.7-78.3 1.6-1.5 3.3-3.1 3.3-4.9 0-1-.4-1.9-1.3-2.9-.8-.9-1.7-1.3-2.7-1.3-1.5 0-3.1 1.1-4.9 2.8-47 42.3-60.5 111.3-32.9 167.8 17.5 35.7 49.3 62.6 87.3 74.1 13.7 4.1 27.6 6.2 41.4 6.2 25 0 49.6-6.7 71.8-19.7 6.7-3.9 12.9-9 19-13.8 2.4-2 4.8-3.9 7.1-5.8"></path>
    <path
      d="m72.6 163.1v-71.6l53.6 73.8c1 1.4 2.8 2 4.6 1.5 1.8-.6 2.9-2.1 2.9-3.9l.1-83v-5.4h-8.3v4.1.1l-.1 71.4-53.5-73.9c-1-1.5-2.8-2-4.6-1.5-1.7.6-2.9 2.1-2.9 3.9v88.4h8.3v-3.9z"></path>
    <path
      d="m182.4 168.1c18.2 0 33.5-11.5 33.5-25.2.1-13.6-15.9-19.6-31.3-25.4-12.7-4.8-24.8-9.3-24.8-16.8 0-9.3 10.1-16.9 22.5-16.9 10.3 0 19.2 5.3 21.8 12.8.2.7.5 2.1.6 3.7.1 1.2.1 2.2.1 2.9v2.1h8.3v-1.5-3.6c-.2-6.7-3.5-12.9-9.4-17.5-5.8-4.6-13.4-7.1-21.4-7.1-17 0-30.8 11.3-30.8 25.2.1 13.5 15.8 19.3 31.1 25 12.8 4.8 25 9.3 25 17.1 0 9.2-11.5 16.9-25.2 16.9-13.9 0-25.2-7.6-25.2-16.9v-4.7h-8.3v4.7c0 13.9 15 25.2 33.5 25.2"></path>
  </g>
  <g id="logo-lettrage" fill="var(--primary)">
    <path
      d="m28.7 317.9-24.7-34c-.4-.6-1.2-.9-2-.7l-.3-.5v.6c-.7.3-1.2 1-1.2 1.7v40.8h3.9v-34.8l24.6 34c.4.6 1.2.9 2 .7l.3.4v-.6c.7-.3 1.2-1 1.2-1.7l.1-38.9v-1.9h-3.9z"></path>
    <path
      d="m41.7 285v38.9c0 1.1.8 1.9 1.9 1.9h29v-3.9h-27v-15.6h19.8v-3.9h-19.8v-15.4h27.1v-3.9h-29c-1.2 0-2 .8-2 1.9"></path>
    <path
      d="m96 283.1c-10.5 0-19 9.6-19 21.4s8.5 21.4 19 21.4 19-9.6 19-21.4-8.5-21.4-19-21.4m0 3.9c8.4 0 15.1 7.9 15.1 17.5s-6.8 17.5-15.1 17.5c-8.4 0-15.1-7.9-15.1-17.5 0-9.7 6.8-17.5 15.1-17.5"></path>
    <path
      d="m160.1 302.5c-5.6-2.1-11.4-4.3-11.4-7.7 0-4.3 4.7-7.8 10.4-7.8s10.4 3.5 10.4 7.8v1.9h3.9v-1.9c0-6.4-6.4-11.6-14.2-11.6-7.9 0-14.2 5.2-14.2 11.7 0 6.2 7.3 8.9 14.3 11.6 5.7 2.1 11.5 4.3 11.5 7.9 0 4.1-5.4 7.8-11.6 7.8-6.3 0-11.6-3.6-11.6-7.8v-1.9h-3.9v1.9c0 6.4 6.9 11.6 15.5 11.6 8.4 0 15.5-5.3 15.5-11.6-.2-6.5-7.5-9.3-14.6-11.9"></path>
    <path
      d="m196.7 283.1c-10.5 0-19 9.6-19 21.4s8.5 21.4 19 21.4 19-9.6 19-21.4-8.5-21.4-19-21.4m0 38.8c-8.3 0-15.1-7.9-15.1-17.5s6.8-17.5 15.1-17.5c8.4 0 15.1 7.9 15.1 17.5.1 9.7-6.7 17.5-15.1 17.5"></path>
    <path
      d="m249.9 283.1h-.3-25.2c-1.1 0-1.9.8-1.9 1.9v40.8h3.9v-19.4h17.1v-3.9h-17.1v-15.5h23.2.3 14.5v38.9h3.9v-38.9h14.7v-3.9z"></path>
    <path d="m127.9 266h3.3v71h-3.3z"></path>
  </g>
</svg>
