<svg xmlns="http://www.w3.org/2000/svg" viewBox="0 0 200 150" >
  <g transform='translate(-30, -55)'>
    <path d="m129.884 185.837h-92.334c-1.381 0-2.5-1.119-2.5-2.5s1.119-2.5 2.5-2.5h92.334c1.381 0 2.5 1.119 2.5 2.5s-1.119 2.5-2.5 2.5z" />
    <path d="m133.866 161.68h-7.966c-2.74 0-5.134-1.854-5.821-4.507l-1.933-7.501-6.669 3.936c-2.364 1.391-5.366 1.01-7.305-.928l-5.633-5.634c-1.938-1.937-2.32-4.939-.93-7.301l3.938-6.673-7.5-1.933c-2.655-.686-4.508-3.079-4.508-5.821v-7.966c0-2.74 1.853-5.134 4.505-5.82l7.502-1.934-3.937-6.669c-1.391-2.364-1.009-5.366.928-7.305l5.633-5.632c1.938-1.938 4.94-2.32 7.301-.931l6.672 3.938 1.933-7.499c.688-2.655 3.081-4.508 5.821-4.508h7.966c2.74 0 5.134 1.853 5.82 4.505l1.934 7.502 6.67-3.937c2.361-1.392 5.366-1.01 7.304.93l5.633 5.632c1.938 1.939 2.319 4.941.93 7.303l-3.938 6.671 7.499 1.933c.001 0 .002 0 .003.001 2.653.687 4.506 3.08 4.506 5.82v7.966c0 2.741-1.854 5.136-4.508 5.821l-7.5 1.933 3.937 6.67c1.392 2.363 1.009 5.366-.929 7.304l-5.633 5.633c-1.938 1.939-4.941 2.32-7.303.93l-6.671-3.938-1.933 7.499c-.684 2.656-3.078 4.51-5.818 4.51zm-14.128-18.351c.324 0 .649.063.957.19.726.301 1.269.925 1.464 1.686l2.762 10.718c.115.444.518.757.979.757h7.966c.461 0 .864-.313.98-.759l2.761-10.716c.196-.761.738-1.385 1.464-1.686.726-.3 1.551-.242 2.227.156l9.532 5.626c.397.234.901.17 1.227-.157l5.633-5.633c.326-.326.391-.832.156-1.23l-5.625-9.529c-.4-.677-.457-1.501-.156-2.227s.925-1.268 1.686-1.464l10.718-2.763c.445-.115.757-.517.757-.979v-7.966c0-.461-.312-.863-.758-.979l-10.717-2.762c-.761-.196-1.385-.738-1.686-1.464-.301-.727-.243-1.551.156-2.228l5.626-9.531c.233-.396.169-.902-.158-1.229l-5.632-5.631c-.328-.328-.834-.391-1.23-.157l-9.529 5.625c-.676.399-1.501.46-2.227.156-.726-.301-1.268-.925-1.464-1.686l-2.762-10.718c-.115-.444-.518-.756-.98-.756h-7.965c-.461 0-.865.312-.98.759l-2.761 10.715c-.196.761-.738 1.385-1.464 1.686-.726.299-1.551.242-2.228-.156l-9.532-5.626c-.394-.234-.901-.169-1.228.159l-5.632 5.631c-.326.326-.391.833-.156 1.231l5.624 9.528c.399.677.457 1.501.157 2.228-.3.726-.925 1.268-1.686 1.464l-10.718 2.762c-.444.115-.756.519-.756.979v7.966c0 .462.312.864.758.979l10.716 2.763c.761.196 1.385.738 1.686 1.464.301.727.243 1.551-.157 2.227l-5.626 9.531c-.232.396-.168.901.158 1.227l5.633 5.634c.326.326.831.392 1.229.156l9.53-5.625c.39-.229.83-.346 1.271-.346zm10.146-6.609c-8.482 0-15.383-6.9-15.383-15.383s6.901-15.383 15.383-15.383c8.481 0 15.382 6.9 15.382 15.383s-6.901 15.383-15.382 15.383zm0-25.766c-5.726 0-10.383 4.657-10.383 10.383s4.658 10.383 10.383 10.383 10.382-4.657 10.382-10.383-4.658-10.383-10.382-10.383z" fill="#91d3d2"/>
    <path d="m129.884 56.837c-16.828 0-32.754 6.442-44.844 18.14-11.224 10.859-18.028 25.163-19.394 40.587l-9.321-9.321c-.976-.977-2.56-.977-3.535 0-.977.977-.977 2.559 0 3.535l13.326 13.326c.488.488 1.128.732 1.768.732s1.28-.244 1.768-.732l13.327-13.326c.977-.976.977-2.559 0-3.535-.976-.977-2.56-.977-3.535 0l-8.705 8.705c3.176-30.105 28.371-53.111 59.146-53.111 32.808 0 59.499 26.691 59.499 59.5s-26.691 59.5-59.499 59.5c-1.381 0-2.5 1.119-2.5 2.5s1.119 2.5 2.5 2.5c35.564 0 64.499-28.935 64.499-64.5s-28.936-64.5-64.5-64.5z" />
    <path d="m220.218 181.569-13.327-13.327c-.977-.977-2.559-.977-3.535 0-.977.977-.977 2.559 0 3.535l9.059 9.06h-40.865c-1.381 0-2.5 1.119-2.5 2.5s1.119 2.5 2.5 2.5h40.865l-9.059 9.059c-.977.976-.977 2.559 0 3.535.488.488 1.128.732 1.768.732s1.279-.244 1.768-.732l13.327-13.326c.469-.469.732-1.105.732-1.768s-.265-1.299-.733-1.768z" fill="#91d3d2"/>
  </g>
</svg>
