<svg id="Calque_1" data-name="Calque 1" xmlns="http://www.w3.org/2000/svg" xmlns:xlink="http://www.w3.org/1999/xlink"
     viewBox="0 0 408 75">
  <defs>
    <style>
      .cls-1, .cls-2, .cls-3, .cls-4, .cls-5, .cls-7, .cls-9 {
        stroke-miterlimit: 10;
        stroke: currentColor;
        fill: currentColor;
        stroke-width: 2px;
        stroke-dasharray: 500;
        animation: stroke 2s linear infinite alternate;
      }

      @keyframes stroke {
        0% {
          stroke-dashoffset: 500;
          fill: transparent;
        }
        50% {
          fill: transparent;
        }
        100% {
          stroke-dashoffset: 0;
          fill: currentColor;
        }
      }

      .cls-1 {
        stroke: url(#degrade);
      }

      .cls-2 {
        stroke: url(#degrade-2);
      }

      .cls-3 {
        stroke: currentColor;
      }

      .cls-4 {
        stroke: url(#degrade-3);
      }

      .cls-5 {
        stroke: url(#degrade-4);
      }

      .cls-6 {
        clip-path: url(#clip-path);
      }

      .cls-7 {
        stroke: url(#degrade-5);
      }

      .cls-8 {
        clip-path: url(#clip-path-2);
      }

      .cls-9 {
        stroke: url(#degrade-7);
      }</style>
    <linearGradient id="degrade" x1="85.34" y1="16.11" x2="97.15" y2="16.11" gradientUnits="userSpaceOnUse">
      <stop offset="0" stop-color="#0deef7"/>
      <stop offset="0" stop-color="#0eedf7"/>
      <stop offset="0.28" stop-color="#54a8fa"/>
      <stop offset="0.52" stop-color="#8b72fc"/>
      <stop offset="0.73" stop-color="#b34bfe"/>
      <stop offset="0.9" stop-color="#cb33ff"/>
      <stop offset="1" stop-color="#d42aff"/>
    </linearGradient>
    <linearGradient id="degrade-2" x1="386.55" y1="63.59" x2="398.36" y2="63.59" xlink:href="#degrade"/>
    <linearGradient id="degrade-3" x1="308.57" y1="39.16" x2="332.25" y2="39.16" xlink:href="#degrade"/>
    <linearGradient id="degrade-4" x1="106.05" y1="39.16" x2="129.72" y2="39.16" xlink:href="#degrade"/>
    <clipPath id="clip-path">
      <path class="cls-1"
            d="M91.12,10.55A5.29,5.29,0,0,0,88,11.67a5.63,5.63,0,0,0-2.15,4.46,5.76,5.76,0,0,0,.92,3.09,5.32,5.32,0,0,0,4.47,2.46h.06a5.36,5.36,0,0,0,3-1,5.65,5.65,0,0,0,2.32-4.56,5.57,5.57,0,0,0-1.3-3.65,5.27,5.27,0,0,0-4-1.93Z"/>
    </clipPath>
    <linearGradient id="degrade-5" x1="85.13" y1="16.11" x2="97.35" y2="16.11"
                    gradientTransform="translate(0.3 -1.59) rotate(1)" xlink:href="#degrade"/>
    <clipPath id="clip-path-2">
      <path class="cls-2"
            d="M392.34,58a5.25,5.25,0,0,0-3.14,1.12,5.65,5.65,0,0,0-2.15,4.46A5.81,5.81,0,0,0,388,66.7a5.33,5.33,0,0,0,4.47,2.45h.07a5.4,5.4,0,0,0,3-1,5.71,5.71,0,0,0,1-8.21,5.24,5.24,0,0,0-4-1.93Z"/>
    </clipPath>
    <linearGradient id="degrade-7" x1="386.35" y1="63.59" x2="398.56" y2="63.59"
                    gradientTransform="translate(1.17 -6.84) rotate(1)" xlink:href="#degrade"/>
  </defs>
  <path class="cls-3"
        d="M87.89,25.75a5.1,5.1,0,0,0-7,2.31L69.06,51.75,67,47.54q-2.56-5.3-7.33-15.06A14.61,14.61,0,0,0,58.4,30a5.39,5.39,0,0,0-4.29-2.15,5.49,5.49,0,0,0-1.67.29,5.38,5.38,0,0,0-2.93,2.31l-9.82,20h0Q34.67,40.28,34,39q-4.71-9.76-12.41-25.52a16.54,16.54,0,0,0-1.54-2.91,5.22,5.22,0,0,0-4.16-2.11h-.2a5.38,5.38,0,0,0-3,1A5.55,5.55,0,0,0,10.4,14v.14a2.33,2.33,0,0,0,.07.74c0,.61.58,2,1.74,4.28q6.57,13.62,6.64,13.65,8.77,18.12,8.8,18.15,6.75,14,6.82,14c.21.49.33.73.38.73l.47.81a5.33,5.33,0,0,0,4.33,2.28h.14a4.9,4.9,0,0,0,1.53-.25,5.58,5.58,0,0,0,3-2.38l9.75-20,1.09,2.21Q61.85,62,62.57,63.41a21,21,0,0,0,1.7,3.3,5.49,5.49,0,0,0,3.54,2,4.57,4.57,0,0,0,1.21.16,5.14,5.14,0,0,0,4.61-2.9l16.5-33a5.4,5.4,0,0,0-2.24-7.17"/>
  <path class="cls-3"
        d="M140.23,8.61h-.1L140,8.54h-28.5l-.14.07h-.13a4.47,4.47,0,0,0-2.42.77,4.82,4.82,0,0,0-2.25,4v.42a4.82,4.82,0,0,0,1,2.87,4.58,4.58,0,0,0,3.62,1.93h29a4.41,4.41,0,0,0,1.91-.45,4.92,4.92,0,0,0,2.8-4.49,5.17,5.17,0,0,0-.55-2.32,4.74,4.74,0,0,0-4.16-2.7"/>
  <path class="cls-3"
        d="M141.05,58.8a3,3,0,0,1-1.05-.18H111.49s-.07,0-.07,0a6.09,6.09,0,0,0-2.32.63,4.91,4.91,0,0,0-2.55,4.25v.31a5.18,5.18,0,0,0,1.09,3.06,4.58,4.58,0,0,0,2.86,1.65H141a4.26,4.26,0,0,0,1.16-.32,5.05,5.05,0,0,0,1.6-7.79,4.71,4.71,0,0,0-2.69-1.65"/>
  <path class="cls-3"
        d="M342.76,8.61h-.11l-.13-.07H314l-.13.07h-.14a4.47,4.47,0,0,0-2.42.77,4.82,4.82,0,0,0-2.25,4v.42a4.82,4.82,0,0,0,1,2.87,4.58,4.58,0,0,0,3.62,1.93h29.05a4.48,4.48,0,0,0,1.91-.45,4.93,4.93,0,0,0,2.79-4.49,5.29,5.29,0,0,0-.54-2.32,4.75,4.75,0,0,0-4.16-2.7"/>
  <path class="cls-3"
        d="M374.61,37.06a5.32,5.32,0,0,0-3.31,5.42V43a7.12,7.12,0,0,0,.51,2.61,2.29,2.29,0,0,0,.29.53c.26.35.77,1,1.55,2.08h0l5.46,7.1a5.08,5.08,0,0,0,7.1.93l.4-.3a5.08,5.08,0,0,0,.93-7.1l-3.41-4.44.31-.27.63-.38a64.84,64.84,0,0,0,7.62-5.47,17.33,17.33,0,0,0,5.15-12.6,17.58,17.58,0,0,0-4.4-11.75,16.72,16.72,0,0,0-12.75-5.83h-17.2a4.8,4.8,0,0,0-2.7.77A4.91,4.91,0,0,0,358.5,13v.18a5.89,5.89,0,0,0,.27,1.65,4.86,4.86,0,0,0,4.74,3.29h17.31a6.91,6.91,0,0,1,5.25,2.25,8,8,0,0,1,2.08,5.19,8.09,8.09,0,0,1-2.8,6.08c-2,1.42-11.05,5.43-11.85,5.83"/>
  <path class="cls-3"
        d="M191.27,53.25c-1.28,3.56-3.66,5.34-7.17,5.34H170V43.53h13.87a7.22,7.22,0,0,1,5.56,2.21,7.93,7.93,0,0,1,2.22,5.37,8.74,8.74,0,0,1-.34,2.14m4.36-39.34a16.73,16.73,0,0,0-12.75-5.83H161.09a4.77,4.77,0,0,0-2.69.77A4.89,4.89,0,0,0,156.08,13v.18a5.77,5.77,0,0,0,.27,1.64,4.88,4.88,0,0,0,4.74,3.3H183a6.91,6.91,0,0,1,5.25,2.25,7.92,7.92,0,0,1,2.08,5.19,8.05,8.05,0,0,1-2.8,6.08,7.62,7.62,0,0,1-4.12,1.58q-13.06,0-18.41,0l-1.33,0a5.39,5.39,0,0,0-2,.49,5,5,0,0,0-2.8,4.46v25.3a5.09,5.09,0,0,0,1.37,3.41,4.35,4.35,0,0,0,2.65,1.43h21.76a14.18,14.18,0,0,0,4.8-1.19,20.38,20.38,0,0,0,4.1-2.46A17.62,17.62,0,0,0,200,50.87a16.86,16.86,0,0,0-5.15-12.6A17.42,17.42,0,0,0,200,25.66a17.63,17.63,0,0,0-4.4-11.75"/>
  <path class="cls-3"
        d="M215.55,35.2c2.61,3.16,6.88,5.73,11,8.23,2.17,1.3,5.45,3.27,6.13,4.15.11.14.23.24.34.36a7.33,7.33,0,0,1,1.33,5,8.1,8.1,0,0,1-2.26,4.59,6.49,6.49,0,0,1-6.94,1.32,10.69,10.69,0,0,0-3-1.21l-.17,0a4.87,4.87,0,0,0-2,.26,4.71,4.71,0,0,0-2.85,3.75l0,.28a4.81,4.81,0,0,0,1.4,3.83,14.61,14.61,0,0,0,7,2.81l.41,0a16.37,16.37,0,0,0,9.38-2,15.3,15.3,0,0,0,3.1-2.31A17.26,17.26,0,0,0,243.44,54a17.06,17.06,0,0,0-1.57-9.14,8.55,8.55,0,0,0-2-3s-.06-.11-.11-.17c-1.72-2.22-4.92-4.13-8.61-6.35-2.88-1.73-7.52-4.51-8.87-6.36-.14-.24-.3-.48-.42-.72l-.07-.15a7.61,7.61,0,0,1-.72-4.18,7,7,0,0,1,1.08-3c1.77-2.34,3.84-3.39,6.21-3.13a8.43,8.43,0,0,1,2.07.55,7.68,7.68,0,0,0,2.88,1.23,4.78,4.78,0,0,0,1.84-.18,4.61,4.61,0,0,0,3.21-3.92,4.75,4.75,0,0,0-1.11-3.66l-1.06-1a14,14,0,0,0-5-2.07l-2.85-.31a12.56,12.56,0,0,0-3.88.42A13.86,13.86,0,0,0,221.28,10a14.36,14.36,0,0,0-4.23,2.89A16.92,16.92,0,0,0,212,23a17.26,17.26,0,0,0,2.13,10.26,6.48,6.48,0,0,0,1.39,1.93"/>
  <path class="cls-3"
        d="M343.57,58.8a3,3,0,0,1-1.05-.18H314s-.06,0-.06,0a6,6,0,0,0-2.32.63,4.9,4.9,0,0,0-2.56,4.25v.31a5.18,5.18,0,0,0,1.09,3.06A4.58,4.58,0,0,0,313,68.56h30.49a4.35,4.35,0,0,0,1.16-.32,5.07,5.07,0,0,0,1.6-7.79,4.73,4.73,0,0,0-2.7-1.65"/>
  <path class="cls-3"
        d="M294.42,8.54H255.18a4.67,4.67,0,0,0-2.42.73,5.11,5.11,0,0,0-2.32,4.29,6.21,6.21,0,0,0,.68,2.59,4.86,4.86,0,0,0,4,2.42h14.76V63.22a5.55,5.55,0,0,0,1.37,3.93,4.79,4.79,0,0,0,2.69,1.41h1.67a4.09,4.09,0,0,0,1.3-.39,5,5,0,0,0,2.76-4.46V18.57h14.73A4.83,4.83,0,0,0,296.5,18a5,5,0,0,0,2.59-4.38,5.74,5.74,0,0,0-.64-2.64,4.89,4.89,0,0,0-4-2.45"/>
  <rect class="cls-4" x="309.07" y="34.14" width="22.68" height="10.04" rx="5.02"/>
  <rect class="cls-5" x="106.55" y="34.14" width="22.68" height="10.04" rx="5.02"/>
  <g class="cls-6">
    <rect class="cls-7" x="85.74" y="10.46" width="11" height="11.31" transform="translate(-0.27 1.59) rotate(-1)"/>
  </g>
  <path class="cls-1 animate"
        d="M91.12,10.55A5.29,5.29,0,0,0,88,11.67a5.63,5.63,0,0,0-2.15,4.46,5.76,5.76,0,0,0,.92,3.09,5.32,5.32,0,0,0,4.47,2.46h.06a5.36,5.36,0,0,0,3-1,5.65,5.65,0,0,0,2.32-4.56,5.57,5.57,0,0,0-1.3-3.65,5.27,5.27,0,0,0-4-1.93Z"/>
  <g class="cls-8">
    <rect class="cls-9 animate" x="386.96" y="57.93" width="11" height="11.31"
          transform="translate(-1.05 6.86) rotate(-1)"/>
  </g>
  <path class="cls-2 animate"
        d="M392.34,58a5.25,5.25,0,0,0-3.14,1.12,5.65,5.65,0,0,0-2.15,4.46A5.81,5.81,0,0,0,388,66.7a5.33,5.33,0,0,0,4.47,2.45h.07a5.4,5.4,0,0,0,3-1,5.71,5.71,0,0,0,1-8.21,5.24,5.24,0,0,0-4-1.93Z"/>
</svg>
