<svg id="Calque_1" data-name="Calque 1" xmlns="http://www.w3.org/2000/svg" xmlns:xlink="http://www.w3.org/1999/xlink" viewBox="0 0 850.39 566.93"><defs><style>.cls-1{fill:#fff;}.cls-2{clip-path:url(#clip-path);}.cls-3{clip-path:url(#clip-path-2);}.cls-4{clip-path:url(#clip-path-3);}.cls-5{clip-path:url(#clip-path-4);}</style><clipPath id="clip-path"><path class="cls-1" d="M237.32,216a8.6,8.6,0,0,0-5.1,1.82,9.19,9.19,0,0,0-3.49,7.24,9.41,9.41,0,0,0,1.5,5,8.65,8.65,0,0,0,7.26,4h.11a8.65,8.65,0,0,0,4.92-1.6,9.27,9.27,0,0,0,1.67-13.34,8.57,8.57,0,0,0-6.48-3.13Z"/></clipPath><clipPath id="clip-path-2"><path class="cls-1" d="M726.53,293.13a8.52,8.52,0,0,0-5.09,1.83A9.16,9.16,0,0,0,718,302.2a9.4,9.4,0,0,0,1.49,5,8.66,8.66,0,0,0,7.26,4h.11a8.77,8.77,0,0,0,4.93-1.59,9.28,9.28,0,0,0,1.66-13.34,8.52,8.52,0,0,0-6.48-3.14Z"/></clipPath><clipPath id="clip-path-3"><path class="cls-1" d="M595.72,369.06a2.64,2.64,0,0,0-1.58.57,2.85,2.85,0,0,0-1.09,2.25,2.93,2.93,0,0,0,.47,1.57,2.71,2.71,0,0,0,2.26,1.24h0a2.71,2.71,0,0,0,1.53-.5,2.87,2.87,0,0,0,.52-4.15,2.65,2.65,0,0,0-2-1Z"/></clipPath><clipPath id="clip-path-4"><path class="cls-1" d="M364.76,369.06a2.67,2.67,0,0,0-1.59.57,2.88,2.88,0,0,0-1.09,2.25,2.93,2.93,0,0,0,.47,1.57,2.71,2.71,0,0,0,2.26,1.24h0a2.76,2.76,0,0,0,1.54-.5,2.84,2.84,0,0,0,1.17-2.31,2.81,2.81,0,0,0-.66-1.84,2.63,2.63,0,0,0-2-1Z"/></clipPath></defs><path class="cls-1" d="M237.32,216a8.6,8.6,0,0,0-5.1,1.82,9.19,9.19,0,0,0-3.49,7.24,9.41,9.41,0,0,0,1.5,5,8.65,8.65,0,0,0,7.26,4h.11a8.65,8.65,0,0,0,4.92-1.6,9.27,9.27,0,0,0,1.67-13.34,8.57,8.57,0,0,0-6.48-3.13Z"/><g class="cls-2"><rect class="cls-1" x="228.58" y="215.88" width="17.87" height="18.37" transform="translate(-3.89 4.18) rotate(-1)"/></g><path class="cls-1" d="M726.53,293.13a8.52,8.52,0,0,0-5.09,1.83A9.16,9.16,0,0,0,718,302.2a9.4,9.4,0,0,0,1.49,5,8.66,8.66,0,0,0,7.26,4h.11a8.77,8.77,0,0,0,4.93-1.59,9.28,9.28,0,0,0,1.66-13.34,8.52,8.52,0,0,0-6.48-3.14Z"/><g class="cls-3"><rect class="cls-1" x="717.79" y="292.98" width="17.87" height="18.37" transform="translate(-5.16 12.73) rotate(-1)"/></g><path class="cls-1" d="M232.06,241a8.28,8.28,0,0,0-11.3,3.76l-19.27,38.47-3.35-6.84q-4.15-8.61-11.91-24.45a24.53,24.53,0,0,0-2-4,8.77,8.77,0,0,0-7-3.47,9.14,9.14,0,0,0-2.71.45,8.77,8.77,0,0,0-4.76,3.77l-15.95,32.49h-.06q-8.07-16.59-9.13-18.7-7.65-15.84-20.16-41.44a27.09,27.09,0,0,0-2.49-4.73,8.49,8.49,0,0,0-6.75-3.42h-.34a8.74,8.74,0,0,0-4.93,1.65,9,9,0,0,0-3.71,7.3V222a4.21,4.21,0,0,0,.11,1.2c0,1,1,3.31,2.83,7q10.68,22.11,10.79,22.17,14.24,29.42,14.29,29.47,11,22.7,11.08,22.75c.33.8.53,1.2.61,1.2l.77,1.31a8.64,8.64,0,0,0,7,3.7H154a8.19,8.19,0,0,0,2.49-.4,9.15,9.15,0,0,0,4.93-3.88L177.2,274l1.78,3.59q10.8,22.25,12,24.51a33,33,0,0,0,2.77,5.37,9,9,0,0,0,5.74,3.19,7.9,7.9,0,0,0,2,.25,8.36,8.36,0,0,0,7.48-4.71l26.8-53.61A8.77,8.77,0,0,0,232.06,241"/><path class="cls-1" d="M317.08,213.14h-.17l-.22-.12H270.4l-.22.12H270a7.27,7.27,0,0,0-3.93,1.25c-2.44,1.79-3.66,3.93-3.66,6.44v.68a7.85,7.85,0,0,0,1.66,4.68,7.45,7.45,0,0,0,5.87,3.13h47.18a7,7,0,0,0,3.1-.74q4.54-2.57,4.54-7.29a8.5,8.5,0,0,0-.88-3.76q-2.61-4.4-6.76-4.39"/><path class="cls-1" d="M318.41,294.65a5.42,5.42,0,0,1-1.72-.28H270.4c-.08,0-.11,0-.11.05a9.83,9.83,0,0,0-3.77,1q-4.15,2.69-4.15,6.9v.51a8.41,8.41,0,0,0,1.77,5q2.72,2.69,4.65,2.68H318.3a6.85,6.85,0,0,0,1.88-.51q4.54-2.69,4.54-7.3a8.13,8.13,0,0,0-1.94-5.36,7.75,7.75,0,0,0-4.37-2.68"/><path class="cls-1" d="M646,213.14h-.17l-.22-.12H599.33l-.23.12h-.22a7.32,7.32,0,0,0-3.93,1.25c-2.44,1.79-3.66,3.93-3.66,6.44v.68a7.86,7.86,0,0,0,1.67,4.68,7.42,7.42,0,0,0,5.87,3.13H646a7.08,7.08,0,0,0,3.1-.74c3-1.71,4.54-4.14,4.54-7.29a8.51,8.51,0,0,0-.89-3.76c-1.73-2.93-4-4.39-6.75-4.39"/><path class="cls-1" d="M714.77,270.18c3-2,9.17-5.82,12.37-8.88a28.21,28.21,0,0,0,8.36-20.46,28.65,28.65,0,0,0-7.14-19.1q-8.68-9.47-20.71-9.46H679.71a7.78,7.78,0,0,0-4.38,1.25,8,8,0,0,0-3.76,6.79v.28a9.28,9.28,0,0,0,.44,2.68q2.32,5.37,7.7,5.36h28.11a11.26,11.26,0,0,1,8.53,3.65,12.87,12.87,0,0,1,3.37,8.43,13.07,13.07,0,0,1-4.54,9.87,51.83,51.83,0,0,1-7.47,4.33,21.76,21.76,0,0,1-4.38,1.31,10.76,10.76,0,0,0-6,2.22q-4.93,4.17-4.93,9.7v.79a11.93,11.93,0,0,0,1,4.68q.17.27,2.81,3.81h.05L705.09,289a8.24,8.24,0,0,0,11.53,1.51l.64-.49a8.26,8.26,0,0,0,1.51-11.53l-5.53-7.2c.15-.14.3-.28.49-.44Z"/><path class="cls-1" d="M400,285.65q-3.09,8.66-11.63,8.66h-23V269.85h22.54a11.7,11.7,0,0,1,9,3.6,12.94,12.94,0,0,1,3.6,8.72,13.79,13.79,0,0,1-.56,3.48m7.09-63.91q-8.7-9.47-20.71-9.46H351a7.75,7.75,0,0,0-4.37,1.25,8,8,0,0,0-3.76,6.79v.28a9.28,9.28,0,0,0,.44,2.68q2.33,5.37,7.69,5.36h35.56a11.24,11.24,0,0,1,8.52,3.65,12.89,12.89,0,0,1,3.38,8.43,13.07,13.07,0,0,1-4.54,9.87q-3.76,2.57-6.7,2.56-21.21-.06-29.9-.06c-.26,0-1,0-2.16-.05a8.76,8.76,0,0,0-3.27.8c-3,1.78-4.54,4.19-4.54,7.24v41.1a8.31,8.31,0,0,0,2.22,5.53c1.69,1.56,3.13,2.33,4.31,2.33h35.34a23.32,23.32,0,0,0,7.8-1.93,34,34,0,0,0,6.65-4q10.58-9.24,10.57-22.35,0-12.31-8.36-20.47a28.21,28.21,0,0,0,8.36-20.46,28.65,28.65,0,0,0-7.14-19.1"/><path class="cls-1" d="M439.4,256.33c4.24,5.12,11.18,9.3,17.94,13.36,3.53,2.12,8.86,5.32,10,6.75a7.67,7.67,0,0,0,.56.58,11.89,11.89,0,0,1,2.14,8.17,13.13,13.13,0,0,1-3.66,7.46q-4.1,3.33-8.34,2.87a11.37,11.37,0,0,1-2.92-.73,18,18,0,0,0-5-2l-.27,0a7.74,7.74,0,0,0-3.34.44q-4.18,2.11-4.62,6.09l-.05.45a7.82,7.82,0,0,0,2.27,6.21,23.83,23.83,0,0,0,11.36,4.58l.66.07q7.28.79,15.24-3.31a24.82,24.82,0,0,0,5-3.75q7.29-7.51,8.29-16.69A27.89,27.89,0,0,0,482.16,272a13.81,13.81,0,0,0-3.17-4.81,2.53,2.53,0,0,0-.18-.27c-2.8-3.61-8-6.72-14-10.33-4.67-2.8-12.2-7.32-14.4-10.31-.23-.4-.49-.79-.68-1.19,0-.08-.08-.16-.13-.24a12.51,12.51,0,0,1-1.16-6.78,11.34,11.34,0,0,1,1.76-4.85q4.31-5.73,10.08-5.09a13.7,13.7,0,0,1,3.36.89,12.36,12.36,0,0,0,4.68,2,7.91,7.91,0,0,0,3-.3c3.15-1.26,4.88-3.38,5.21-6.37a7.73,7.73,0,0,0-1.8-5.93L473,216.88c-3.42-2-6.13-3.14-8.15-3.37l-4.63-.5a20.1,20.1,0,0,0-6.31.68,22.75,22.75,0,0,0-5.21,1.78c-1.7.57-4,2.14-6.87,4.69q-7.15,7.35-8.15,16.37a27.94,27.94,0,0,0,3.46,16.66,10.56,10.56,0,0,0,2.25,3.14"/><path class="cls-1" d="M647.33,294.65a5.3,5.3,0,0,1-1.71-.28h-46.3c-.07,0-.11,0-.11.05a9.72,9.72,0,0,0-3.76,1q-4.16,2.69-4.16,6.9v.51a8.36,8.36,0,0,0,1.78,5c1.8,1.79,3.36,2.68,4.65,2.68h49.5a6.89,6.89,0,0,0,1.89-.51c3-1.79,4.54-4.22,4.54-7.3a8.18,8.18,0,0,0-1.94-5.36,7.81,7.81,0,0,0-4.38-2.68"/><path class="cls-1" d="M567.5,213H503.77a7.54,7.54,0,0,0-3.93,1.2,8.28,8.28,0,0,0-3.77,6.95,10,10,0,0,0,1.11,4.22c1.85,2.62,4,3.93,6.48,3.93h24v72.51a9,9,0,0,0,2.21,6.39,7.74,7.74,0,0,0,4.37,2.28h2.72a6.62,6.62,0,0,0,2.1-.63c3-1.78,4.49-4.2,4.49-7.24V229.32h23.92a7.93,7.93,0,0,0,3.43-.91c2.81-1.82,4.21-4.2,4.21-7.12A9.3,9.3,0,0,0,574,217c-1.85-2.66-4-4-6.54-4"/><rect class="cls-1" x="591.29" y="254.6" width="36.83" height="16.3" rx="5.02"/><rect class="cls-1" x="262.37" y="254.6" width="36.83" height="16.3" rx="5.02"/><path class="cls-1" d="M336.88,369.81v4.31H328.4V398h-5.24V374.12h-8.52v-4.31Z"/><path class="cls-1" d="M339.94,398V369h4.81v11.13a10,10,0,0,1,2.58-1.79,7.35,7.35,0,0,1,3.29-.69,7.14,7.14,0,0,1,2.9.56,5.74,5.74,0,0,1,2.12,1.56,6.9,6.9,0,0,1,1.28,2.4,9.9,9.9,0,0,1,.44,3.07V398h-4.81V385.27a4.24,4.24,0,0,0-.85-2.84,3.12,3.12,0,0,0-2.54-1,5,5,0,0,0-2.34.56,8.44,8.44,0,0,0-2.07,1.54V398Z"/><path class="cls-1" d="M367.22,378v20h-4.81V378Z"/><path class="cls-1" d="M372.66,398V378h2.94a1.18,1.18,0,0,1,1.23.87l.33,1.58a12.32,12.32,0,0,1,1.28-1.13,9.07,9.07,0,0,1,1.42-.88,7.66,7.66,0,0,1,1.61-.56,8.44,8.44,0,0,1,1.87-.2,7.23,7.23,0,0,1,2.91.56,5.79,5.79,0,0,1,2.11,1.56,6.92,6.92,0,0,1,1.29,2.4,10.22,10.22,0,0,1,.43,3.07V398h-4.81V385.27a4.24,4.24,0,0,0-.85-2.84,3.12,3.12,0,0,0-2.54-1,5,5,0,0,0-2.34.56,8.44,8.44,0,0,0-2.07,1.54V398Z"/><path class="cls-1" d="M399.69,369v16.59h.9a1.75,1.75,0,0,0,.76-.14,1.85,1.85,0,0,0,.58-.51l5-6.14a3,3,0,0,1,.71-.61,1.83,1.83,0,0,1,1-.22H413l-6.22,7.42a10,10,0,0,1-.68.75,4.77,4.77,0,0,1-.76.6,3.57,3.57,0,0,1,.72.68c.2.26.41.54.62.84l6.67,9.7H409a2.06,2.06,0,0,1-.95-.19,1.86,1.86,0,0,1-.71-.67l-5.08-7.58a1.53,1.53,0,0,0-.59-.58,2.17,2.17,0,0,0-.88-.14h-1.09V398h-4.81V369Z"/><path class="cls-1" d="M430.41,398.3a5.28,5.28,0,0,1-4-1.47,5.66,5.66,0,0,1-1.4-4.06V381.6h-2a.91.91,0,0,1-1-1v-1.91l3.21-.53,1-5.46a.93.93,0,0,1,.36-.6,1.15,1.15,0,0,1,.71-.21h2.49v6.29h5.26v3.43h-5.26v10.84a2.13,2.13,0,0,0,.47,1.46,1.59,1.59,0,0,0,1.25.53,2.28,2.28,0,0,0,.75-.11,3.82,3.82,0,0,0,.53-.23l.39-.22a.72.72,0,0,1,.36-.11.56.56,0,0,1,.35.11,1.91,1.91,0,0,1,.29.32l1.44,2.34a7.22,7.22,0,0,1-2.42,1.33A9.19,9.19,0,0,1,430.41,398.3Z"/><path class="cls-1" d="M438.92,398V369h4.82v11.13a10.16,10.16,0,0,1,2.57-1.79,7.4,7.4,0,0,1,3.3-.69,7.18,7.18,0,0,1,2.9.56,5.71,5.71,0,0,1,2.11,1.56,6.76,6.76,0,0,1,1.29,2.4,10.21,10.21,0,0,1,.44,3.07V398h-4.81V385.27a4.3,4.3,0,0,0-.85-2.84,3.16,3.16,0,0,0-2.55-1,4.92,4.92,0,0,0-2.33.56,8.44,8.44,0,0,0-2.07,1.54V398Z"/><path class="cls-1" d="M469.35,377.68a9.78,9.78,0,0,1,3.48.61,7.64,7.64,0,0,1,2.74,1.76,8.1,8.1,0,0,1,1.79,2.85,10.72,10.72,0,0,1,.64,3.85,7.33,7.33,0,0,1-.05.9,1.54,1.54,0,0,1-.17.57.73.73,0,0,1-.34.29,1.47,1.47,0,0,1-.55.09H464.53a6.93,6.93,0,0,0,1.66,4.52,5.17,5.17,0,0,0,3.82,1.44,6.72,6.72,0,0,0,2-.27,8.57,8.57,0,0,0,1.48-.61l1.11-.6a1.89,1.89,0,0,1,.93-.27,1.12,1.12,0,0,1,.5.11,1,1,0,0,1,.37.34l1.41,1.75a8.1,8.1,0,0,1-1.8,1.57,9.91,9.91,0,0,1-2.07,1,11.32,11.32,0,0,1-2.21.54,16.27,16.27,0,0,1-2.17.15,10.74,10.74,0,0,1-3.88-.69,8.67,8.67,0,0,1-3.11-2,9.59,9.59,0,0,1-2.09-3.36,12.86,12.86,0,0,1-.76-4.62,11.08,11.08,0,0,1,.66-3.85,9.24,9.24,0,0,1,1.9-3.14,9.1,9.1,0,0,1,3-2.12A10,10,0,0,1,469.35,377.68Zm.1,3.45a4.46,4.46,0,0,0-3.3,1.19,5.91,5.91,0,0,0-1.52,3.37h9.05a6,6,0,0,0-.26-1.76,4.06,4.06,0,0,0-.78-1.45,3.76,3.76,0,0,0-1.32-1A4.55,4.55,0,0,0,469.45,381.13Z"/><path class="cls-1" d="M487,378h3.83a1.57,1.57,0,0,1,.91.25,1.1,1.1,0,0,1,.47.64l2.86,10.68a16.72,16.72,0,0,1,.38,1.72c.1.56.2,1.12.29,1.67.14-.55.29-1.11.45-1.67l.52-1.72L500,378.85a1.24,1.24,0,0,1,.47-.64,1.37,1.37,0,0,1,.82-.25h2.12a1.43,1.43,0,0,1,.88.25,1.19,1.19,0,0,1,.47.64l3.27,10.92c.17.56.33,1.1.46,1.63s.27,1.05.4,1.58c.09-.55.19-1.11.3-1.67s.25-1.14.42-1.74l3-10.68a1.14,1.14,0,0,1,.47-.64,1.5,1.5,0,0,1,.86-.25h3.65l-6.34,20h-3.88c-.41,0-.71-.28-.89-.86l-3.61-11.55c-.12-.38-.22-.76-.32-1.14s-.18-.76-.25-1.14c-.07.39-.16.77-.25,1.16s-.19.77-.31,1.16l-3.64,11.51A1.06,1.06,0,0,1,497,398h-3.68Z"/><path class="cls-1" d="M528.54,377.68a9.78,9.78,0,0,1,3.48.61,7.6,7.6,0,0,1,2.73,1.76,8,8,0,0,1,1.8,2.85,10.72,10.72,0,0,1,.64,3.85,7.33,7.33,0,0,1-.05.9,1.54,1.54,0,0,1-.17.57.71.71,0,0,1-.35.29,1.38,1.38,0,0,1-.54.09H523.72a6.93,6.93,0,0,0,1.66,4.52,5.16,5.16,0,0,0,3.82,1.44,6.72,6.72,0,0,0,2-.27,8.92,8.92,0,0,0,1.48-.61l1.11-.6a1.86,1.86,0,0,1,.92-.27,1.13,1.13,0,0,1,.51.11,1.08,1.08,0,0,1,.37.34L537,395a8,8,0,0,1-1.79,1.57,9.91,9.91,0,0,1-2.07,1,11.32,11.32,0,0,1-2.21.54,16.27,16.27,0,0,1-2.17.15,10.74,10.74,0,0,1-3.88-.69,8.8,8.8,0,0,1-3.12-2,9.57,9.57,0,0,1-2.08-3.36,12.86,12.86,0,0,1-.76-4.62,11.08,11.08,0,0,1,.66-3.85,9.24,9.24,0,0,1,1.9-3.14,9,9,0,0,1,3-2.12A10,10,0,0,1,528.54,377.68Zm.09,3.45a4.45,4.45,0,0,0-3.29,1.19,5.91,5.91,0,0,0-1.52,3.37h9a5.94,5.94,0,0,0-.25-1.76,4.06,4.06,0,0,0-.78-1.45,3.71,3.71,0,0,0-1.33-1A4.49,4.49,0,0,0,528.63,381.13Z"/><path class="cls-1" d="M541.17,398V369H546v11.42a9.55,9.55,0,0,1,2.69-2,7.89,7.89,0,0,1,3.51-.75,6.52,6.52,0,0,1,5.33,2.64,9.45,9.45,0,0,1,1.52,3.17,15.9,15.9,0,0,1,.53,4.35A13.78,13.78,0,0,1,559,392a10,10,0,0,1-1.73,3.31,7.68,7.68,0,0,1-6.26,3,7.34,7.34,0,0,1-1.68-.18,6,6,0,0,1-1.38-.52,5.76,5.76,0,0,1-1.16-.81,8.57,8.57,0,0,1-1-1.06l-.22,1.35a1.22,1.22,0,0,1-.4.72,1.26,1.26,0,0,1-.77.21Zm9.35-16.56a4.93,4.93,0,0,0-2.56.63,7.44,7.44,0,0,0-2,1.78v9a4.71,4.71,0,0,0,1.78,1.41,5.38,5.38,0,0,0,2.1.4,4.66,4.66,0,0,0,2-.41,3.86,3.86,0,0,0,1.49-1.25,6,6,0,0,0,.94-2.11,12.15,12.15,0,0,0,.33-3,13.25,13.25,0,0,0-.28-3,5.68,5.68,0,0,0-.81-2,3.12,3.12,0,0,0-1.27-1.11A3.9,3.9,0,0,0,550.52,381.43Z"/><path class="cls-1" d="M584.92,398a1.19,1.19,0,0,1-1.23-.87l-.39-1.93a11.83,11.83,0,0,1-1.3,1.26,8.08,8.08,0,0,1-1.48,1,7.75,7.75,0,0,1-1.69.63,8.17,8.17,0,0,1-2,.22,6.55,6.55,0,0,1-3-.68,6.61,6.61,0,0,1-2.35-2,9.42,9.42,0,0,1-1.52-3.2,16.08,16.08,0,0,1-.54-4.37,13.39,13.39,0,0,1,.61-4.13,10,10,0,0,1,1.73-3.31,8,8,0,0,1,2.71-2.19,7.78,7.78,0,0,1,3.55-.79,6.86,6.86,0,0,1,2.86.53,7.73,7.73,0,0,1,2.13,1.43V369h4.81v29Zm-6.41-3.52a4.87,4.87,0,0,0,2.55-.63,7.71,7.71,0,0,0,2-1.77v-9a4.72,4.72,0,0,0-1.79-1.4,5.27,5.27,0,0,0-2.07-.41,4.71,4.71,0,0,0-2,.41,3.8,3.8,0,0,0-1.5,1.24,6,6,0,0,0-.94,2.1,11.66,11.66,0,0,0-.34,3,13.19,13.19,0,0,0,.29,3,5.63,5.63,0,0,0,.8,2,3.08,3.08,0,0,0,1.29,1.11A4.07,4.07,0,0,0,578.51,394.47Z"/><path class="cls-1" d="M598.19,378v20h-4.81V378Z"/><path class="cls-1" d="M604.49,398V381.62l-1.74-.27a1.87,1.87,0,0,1-.9-.39,1,1,0,0,1-.35-.82v-2h3v-1.48a8.77,8.77,0,0,1,.51-3.08,6.22,6.22,0,0,1,3.83-3.78,9,9,0,0,1,3.12-.51,8.82,8.82,0,0,1,2.57.37l-.09,2.42a.71.71,0,0,1-.53.7,4.26,4.26,0,0,1-1.13.14,6,6,0,0,0-1.53.18,2.58,2.58,0,0,0-1.14.65,2.91,2.91,0,0,0-.71,1.2,6.22,6.22,0,0,0-.25,1.87v1.32h5.21v3.43H609.3V398Z"/><path class="cls-1" d="M618.15,398V381.62l-1.74-.27a1.91,1.91,0,0,1-.9-.39,1,1,0,0,1-.34-.82v-2h3v-1.48a8.77,8.77,0,0,1,.51-3.08,6.43,6.43,0,0,1,1.49-2.32,6.37,6.37,0,0,1,2.34-1.46,9,9,0,0,1,3.12-.51,8.89,8.89,0,0,1,2.58.37l-.1,2.42a.7.7,0,0,1-.53.7,4.2,4.2,0,0,1-1.13.14,6,6,0,0,0-1.53.18,2.58,2.58,0,0,0-1.14.65,2.91,2.91,0,0,0-.71,1.2,6.25,6.25,0,0,0-.24,1.87v1.32H628v3.43h-5V398Z"/><path class="cls-1" d="M639.22,377.68a9.69,9.69,0,0,1,3.47.61,7.55,7.55,0,0,1,2.74,1.76,7.83,7.83,0,0,1,1.79,2.85,10.71,10.71,0,0,1,.65,3.85,7.33,7.33,0,0,1,0,.9,1.54,1.54,0,0,1-.17.57.71.71,0,0,1-.35.29,1.38,1.38,0,0,1-.54.09H634.4a6.88,6.88,0,0,0,1.66,4.52,5.16,5.16,0,0,0,3.82,1.44,6.72,6.72,0,0,0,2-.27,8.92,8.92,0,0,0,1.48-.61l1.11-.6a1.86,1.86,0,0,1,.92-.27,1.13,1.13,0,0,1,.51.11,1.08,1.08,0,0,1,.37.34l1.4,1.75a8,8,0,0,1-1.79,1.57,9.75,9.75,0,0,1-2.08,1,11.22,11.22,0,0,1-2.2.54,16.27,16.27,0,0,1-2.17.15,10.74,10.74,0,0,1-3.88-.69,8.71,8.71,0,0,1-3.12-2,9.57,9.57,0,0,1-2.08-3.36,12.86,12.86,0,0,1-.76-4.62,11.08,11.08,0,0,1,.66-3.85,9.24,9.24,0,0,1,1.9-3.14,8.9,8.9,0,0,1,3-2.12A10,10,0,0,1,639.22,377.68Zm.09,3.45a4.45,4.45,0,0,0-3.29,1.19,5.91,5.91,0,0,0-1.52,3.37h9a5.94,5.94,0,0,0-.25-1.76,4.06,4.06,0,0,0-.78-1.45,3.71,3.71,0,0,0-1.33-1A4.49,4.49,0,0,0,639.31,381.13Z"/><path class="cls-1" d="M651.79,398V378h2.82a1.55,1.55,0,0,1,1,.27,1.61,1.61,0,0,1,.39.93l.29,2.42a9.43,9.43,0,0,1,2.51-2.92,5.26,5.26,0,0,1,3.24-1.07,4.14,4.14,0,0,1,2.45.68l-.62,3.6a.75.75,0,0,1-.26.5.82.82,0,0,1-.52.15,3.35,3.35,0,0,1-.8-.14,5.39,5.39,0,0,0-1.34-.14,4.11,4.11,0,0,0-2.58.83,6.34,6.34,0,0,0-1.81,2.43V398Z"/><path class="cls-1" d="M676,377.68a9.78,9.78,0,0,1,3.48.61,7.64,7.64,0,0,1,2.74,1.76A8,8,0,0,1,684,382.9a10.71,10.71,0,0,1,.65,3.85,7.33,7.33,0,0,1,0,.9,1.37,1.37,0,0,1-.18.57.69.69,0,0,1-.34.29,1.38,1.38,0,0,1-.54.09H671.16a6.88,6.88,0,0,0,1.65,4.52,5.2,5.2,0,0,0,3.83,1.44,6.65,6.65,0,0,0,2-.27,8.26,8.26,0,0,0,1.48-.61q.64-.33,1.11-.6a1.89,1.89,0,0,1,.93-.27,1.16,1.16,0,0,1,.51.11,1.18,1.18,0,0,1,.37.34l1.4,1.75a8,8,0,0,1-1.79,1.57,10.23,10.23,0,0,1-2.08,1,11.22,11.22,0,0,1-2.2.54,16.39,16.39,0,0,1-2.17.15,10.7,10.7,0,0,1-3.88-.69,8.63,8.63,0,0,1-3.12-2,9.73,9.73,0,0,1-2.09-3.36,13.08,13.08,0,0,1-.76-4.62,10.86,10.86,0,0,1,.67-3.85,9.08,9.08,0,0,1,1.9-3.14,8.9,8.9,0,0,1,3-2.12A9.94,9.94,0,0,1,676,377.68Zm.1,3.45a4.45,4.45,0,0,0-3.29,1.19,5.84,5.84,0,0,0-1.52,3.37h9a5.94,5.94,0,0,0-.25-1.76,4.06,4.06,0,0,0-.78-1.45,3.8,3.8,0,0,0-1.33-1A4.52,4.52,0,0,0,676.07,381.13Z"/><path class="cls-1" d="M688.54,398V378h3a1.17,1.17,0,0,1,1.22.87l.34,1.58a11.28,11.28,0,0,1,1.27-1.13,9.07,9.07,0,0,1,1.42-.88,7.86,7.86,0,0,1,1.61-.56,8.51,8.51,0,0,1,1.87-.2,7.19,7.19,0,0,1,2.91.56,5.71,5.71,0,0,1,2.11,1.56,6.76,6.76,0,0,1,1.29,2.4,10.21,10.21,0,0,1,.44,3.07V398h-4.82V385.27a4.3,4.3,0,0,0-.84-2.84,3.16,3.16,0,0,0-2.55-1,5,5,0,0,0-2.34.56,8.58,8.58,0,0,0-2.06,1.54V398Z"/><path class="cls-1" d="M717.27,398.3a5.24,5.24,0,0,1-4-1.47,5.62,5.62,0,0,1-1.41-4.06V381.6h-2a.91.91,0,0,1-1-1v-1.91l3.22-.53,1-5.46a.93.93,0,0,1,.36-.6,1.15,1.15,0,0,1,.71-.21h2.5v6.29H722v3.43h-5.26v10.84a2.13,2.13,0,0,0,.46,1.46,1.61,1.61,0,0,0,1.25.53,2.28,2.28,0,0,0,.75-.11,3.82,3.82,0,0,0,.53-.23c.15-.07.28-.15.4-.22a.66.66,0,0,1,.35-.11.56.56,0,0,1,.35.11,1.56,1.56,0,0,1,.29.32l1.44,2.34a7.17,7.17,0,0,1-2.41,1.33A9.3,9.3,0,0,1,717.27,398.3Z"/><path class="cls-1" d="M595.72,369.06a2.64,2.64,0,0,0-1.58.57,2.85,2.85,0,0,0-1.09,2.25,2.93,2.93,0,0,0,.47,1.57,2.71,2.71,0,0,0,2.26,1.24h0a2.71,2.71,0,0,0,1.53-.5,2.87,2.87,0,0,0,.52-4.15,2.65,2.65,0,0,0-2-1Z"/><g class="cls-4"><rect class="cls-1" x="593" y="369.02" width="5.56" height="5.72" transform="matrix(1, -0.02, 0.02, 1, -6.4, 10.45)"/></g><path class="cls-1" d="M364.76,369.06a2.67,2.67,0,0,0-1.59.57,2.88,2.88,0,0,0-1.09,2.25,2.93,2.93,0,0,0,.47,1.57,2.71,2.71,0,0,0,2.26,1.24h0a2.76,2.76,0,0,0,1.54-.5,2.84,2.84,0,0,0,1.17-2.31,2.81,2.81,0,0,0-.66-1.84,2.63,2.63,0,0,0-2-1Z"/><g class="cls-5"><rect class="cls-1" x="362.04" y="369.02" width="5.56" height="5.72" transform="translate(-6.43 6.42) rotate(-1)"/></g></svg>