<svg data-name="Calque 1" xmlns="http://www.w3.org/2000/svg" xmlns:xlink="http://www.w3.org/1999/xlink"
     viewBox="0 0 566.93 283.46">
  <defs>
    <style>
      .cls-1{fill:url(#Dégradé_sans_nom_64);}.cls-2{fill:url(#Dégradé_sans_nom_64-2);}.current-color{fill:currentColor;}.cls-4{fill:url(#Dégradé_sans_nom_64-3);}.cls-5{fill:url(#Dégradé_sans_nom_64-4);}.cls-6{clip-path:url(#clip-path);}.cls-7{fill:url(#Dégradé_sans_nom_64-6);}.cls-8{clip-path:url(#clip-path-2);}.cls-9{fill:url(#Dégradé_sans_nom_64-8);}
    </style>
    <linearGradient id="Dégradé_sans_nom_64" x1="168.38" y1="113.06" x2="176.12" y2="120.79"
                    gradientUnits="userSpaceOnUse">
      <stop offset="0" stop-color="#0deef7"/>
      <stop offset="0" stop-color="#0eedf7"/>
      <stop offset="0.28" stop-color="#54a8fa"/>
      <stop offset="0.52" stop-color="#8b72fc"/>
      <stop offset="0.73" stop-color="#b34bfe"/>
      <stop offset="0.9" stop-color="#cb33ff"/>
      <stop offset="1" stop-color="#d42aff"/>
    </linearGradient>
    <linearGradient id="Dégradé_sans_nom_64-2" x1="469.6" y1="160.53" x2="477.33" y2="168.26"
                    xlink:href="#Dégradé_sans_nom_64"/>
    <linearGradient id="Dégradé_sans_nom_64-3" x1="390.07" y1="139.97" x2="412.75" y2="139.97"
                    xlink:href="#Dégradé_sans_nom_64"/>
    <linearGradient id="Dégradé_sans_nom_64-4" x1="187.55" y1="139.97" x2="210.23" y2="139.97"
                    xlink:href="#Dégradé_sans_nom_64"/>
    <clipPath id="clip-path">
      <path class="cls-1"
            d="M172.12,111.36a5.26,5.26,0,0,0-3.13,1.13,5.65,5.65,0,0,0-2.15,4.45,5.82,5.82,0,0,0,.92,3.1,5.33,5.33,0,0,0,4.47,2.45h.06a5.43,5.43,0,0,0,3-1,5.67,5.67,0,0,0,2.32-4.57,5.57,5.57,0,0,0-1.3-3.65,5.27,5.27,0,0,0-4-1.93Z"/>
    </clipPath>
    <linearGradient id="Dégradé_sans_nom_64-6" x1="166.66" y1="111.35" x2="177.82" y2="122.51"
                    gradientTransform="translate(2.07 -2.99) rotate(1)" xlink:href="#Dégradé_sans_nom_64"/>
    <clipPath id="clip-path-2">
      <path class="cls-2"
            d="M473.34,158.84A5.27,5.27,0,0,0,470.2,160a5.65,5.65,0,0,0-2.15,4.46,5.79,5.79,0,0,0,.92,3.09,5.33,5.33,0,0,0,4.47,2.45h.07a5.3,5.3,0,0,0,3-1,5.71,5.71,0,0,0,1-8.21,5.24,5.24,0,0,0-4-1.93Z"/>
    </clipPath>
    <linearGradient id="Dégradé_sans_nom_64-8" x1="467.88" y1="158.82" x2="479.04" y2="169.98"
                    gradientTransform="translate(2.94 -8.24) rotate(1)" xlink:href="#Dégradé_sans_nom_64"/>
  </defs>
  <path class="current-color"
        d="M168.89,126.56a5.1,5.1,0,0,0-7,2.32l-11.87,23.68L148,148.35q-2.56-5.29-7.33-15a15.91,15.91,0,0,0-1.26-2.46,5.32,5.32,0,0,0-6-1.86,5.35,5.35,0,0,0-2.93,2.32l-9.82,20h0q-5-10.22-5.62-11.51-4.71-9.76-12.41-25.52a16.54,16.54,0,0,0-1.54-2.91,5.25,5.25,0,0,0-4.16-2.11h-.2a5.32,5.32,0,0,0-3,1,5.55,5.55,0,0,0-2.29,4.5v.13a2.29,2.29,0,0,0,.07.74q0,.92,1.74,4.28,6.57,13.62,6.65,13.66,8.76,18.1,8.79,18.14,6.75,14,6.82,14c.21.49.33.74.38.74l.47.8a5.33,5.33,0,0,0,4.33,2.28h.14a5.19,5.19,0,0,0,1.53-.24,5.59,5.59,0,0,0,3-2.39l9.75-20,1.09,2.22q6.65,13.68,7.37,15.09a20.86,20.86,0,0,0,1.7,3.3,5.55,5.55,0,0,0,3.54,2,5,5,0,0,0,1.22.15,5.14,5.14,0,0,0,4.6-2.9l16.51-33a5.41,5.41,0,0,0-2.25-7.17"/>
  <path class="current-color"
        d="M221.23,109.42h-.1l-.13-.07H192.49l-.13.07h-.14a4.56,4.56,0,0,0-2.42.77,4.82,4.82,0,0,0-2.25,4v.42a4.87,4.87,0,0,0,1,2.88,4.58,4.58,0,0,0,3.62,1.93h29a4.29,4.29,0,0,0,1.91-.46,4.92,4.92,0,0,0,2.8-4.49,5.17,5.17,0,0,0-.55-2.32,4.73,4.73,0,0,0-4.16-2.7"/>
  <path class="current-color"
        d="M222.05,159.61a3.51,3.51,0,0,1-1.05-.17H192.49s-.07,0-.07,0a6.09,6.09,0,0,0-2.32.63,4.92,4.92,0,0,0-2.55,4.25v.32a5.18,5.18,0,0,0,1.09,3.05,4.58,4.58,0,0,0,2.86,1.65H222a4.26,4.26,0,0,0,1.16-.32,5.06,5.06,0,0,0,1.61-7.79,4.88,4.88,0,0,0-2.7-1.65"/>
  <path class="current-color"
        d="M423.76,109.42h-.11l-.13-.07H395l-.14.07h-.14a4.58,4.58,0,0,0-2.42.77,4.82,4.82,0,0,0-2.25,4v.42a4.87,4.87,0,0,0,1,2.88,4.58,4.58,0,0,0,3.62,1.93h29.05a4.35,4.35,0,0,0,1.91-.46,4.93,4.93,0,0,0,2.79-4.49,5.29,5.29,0,0,0-.54-2.32,4.75,4.75,0,0,0-4.16-2.7"/>
  <path class="current-color"
        d="M455.61,137.87a5.32,5.32,0,0,0-3.31,5.42v.49a7.12,7.12,0,0,0,.51,2.61,2.1,2.1,0,0,0,.29.53c.26.36.77,1.05,1.55,2.09h0l5.46,7.1a5.08,5.08,0,0,0,7.1.93l.4-.3a5.08,5.08,0,0,0,.93-7.1l-3.41-4.43c.1-.09.19-.18.31-.27l.63-.38a67.26,67.26,0,0,0,7.62-5.47,17.36,17.36,0,0,0,5.15-12.6,17.59,17.59,0,0,0-4.4-11.76,16.73,16.73,0,0,0-12.75-5.83h-17.2a4.8,4.8,0,0,0-2.7.77,4.91,4.91,0,0,0-2.31,4.18V114a5.89,5.89,0,0,0,.27,1.65,4.87,4.87,0,0,0,4.74,3.3h17.31a6.9,6.9,0,0,1,5.25,2.24,8,8,0,0,1,2.08,5.2,8.07,8.07,0,0,1-2.8,6.07,32.72,32.72,0,0,1-4.6,2.67"/>
  <path class="current-color"
        d="M272.27,154.07q-1.92,5.33-7.16,5.33H251V144.34h13.87a7.22,7.22,0,0,1,5.56,2.21,8,8,0,0,1,2.22,5.37,8.88,8.88,0,0,1-.34,2.15m4.36-39.35a16.73,16.73,0,0,0-12.75-5.83H242.09a4.7,4.7,0,0,0-2.69.78,4.87,4.87,0,0,0-2.32,4.17V114a5.89,5.89,0,0,0,.27,1.65,4.89,4.89,0,0,0,4.74,3.3H264a6.94,6.94,0,0,1,5.25,2.24,7.92,7.92,0,0,1,2.08,5.2,8.06,8.06,0,0,1-2.79,6.07,7.67,7.67,0,0,1-4.13,1.58L246,134l-1.33,0a5.39,5.39,0,0,0-2,.49,5,5,0,0,0-2.8,4.46v25.3a5.07,5.07,0,0,0,1.37,3.41,4.38,4.38,0,0,0,2.65,1.44h21.76a14.25,14.25,0,0,0,4.8-1.2,20.77,20.77,0,0,0,4.1-2.45A17.64,17.64,0,0,0,281,151.68a16.86,16.86,0,0,0-5.15-12.6,17.4,17.4,0,0,0,5.15-12.6,17.64,17.64,0,0,0-4.4-11.76"/>
  <path class="current-color"
        d="M296.55,136c2.61,3.15,6.88,5.72,11.05,8.22,2.17,1.31,5.45,3.27,6.13,4.15a3,3,0,0,0,.35.36,7.4,7.4,0,0,1,1.32,5,8.16,8.16,0,0,1-2.26,4.59,6.86,6.86,0,0,1-5.13,1.76,7.18,7.18,0,0,1-1.8-.44,10.64,10.64,0,0,0-3.06-1.22l-.17,0a4.46,4.46,0,0,0-4.9,4l0,.28a4.8,4.8,0,0,0,1.4,3.82,14.73,14.73,0,0,0,7,2.82l.41,0a16.37,16.37,0,0,0,9.38-2,14.82,14.82,0,0,0,3.1-2.3,17.31,17.31,0,0,0,5.11-10.28,17,17,0,0,0-1.57-9.14,8.36,8.36,0,0,0-1.95-3c0-.06-.06-.12-.1-.17-1.73-2.22-4.93-4.14-8.62-6.36-2.87-1.72-7.52-4.51-8.87-6.35-.14-.25-.3-.49-.42-.73l-.07-.15a7.59,7.59,0,0,1-.72-4.17,7.09,7.09,0,0,1,1.08-3q2.66-3.52,6.21-3.13a8.36,8.36,0,0,1,2.07.54,7.73,7.73,0,0,0,2.88,1.24,4.8,4.8,0,0,0,1.84-.19,4.6,4.6,0,0,0,3.21-3.92,4.72,4.72,0,0,0-1.11-3.65l-1.06-1a14,14,0,0,0-5-2.07l-2.85-.31a12.56,12.56,0,0,0-3.88.42,15.87,15.87,0,0,0-7.44,4,16.87,16.87,0,0,0-5,10.07,17.26,17.26,0,0,0,2.13,10.26,6.53,6.53,0,0,0,1.39,1.94"/>
  <path class="current-color"
        d="M424.58,159.61a3.54,3.54,0,0,1-1.06-.17H395s-.07,0-.07,0a6,6,0,0,0-2.32.63,4.91,4.91,0,0,0-2.56,4.25v.32a5.18,5.18,0,0,0,1.09,3.05,4.6,4.6,0,0,0,2.87,1.65h30.48a4.35,4.35,0,0,0,1.16-.32,5.07,5.07,0,0,0,1.6-7.79,4.81,4.81,0,0,0-2.69-1.65"/>
  <path class="current-color"
        d="M375.42,109.35H336.18a4.69,4.69,0,0,0-2.42.74,5.08,5.08,0,0,0-2.32,4.28,6.25,6.25,0,0,0,.68,2.6,4.88,4.88,0,0,0,4,2.42h14.77V164a5.54,5.54,0,0,0,1.36,3.93,4.79,4.79,0,0,0,2.69,1.41h1.67a4.09,4.09,0,0,0,1.3-.39,5,5,0,0,0,2.76-4.46V119.39h14.73a4.93,4.93,0,0,0,2.11-.56,5.08,5.08,0,0,0,2.6-4.39,5.71,5.71,0,0,0-.65-2.63,4.88,4.88,0,0,0-4-2.46"/>
  <rect class="cls-4" x="390.07" y="134.95" width="22.68" height="10.04" rx="5.02"/>
  <rect class="cls-5" x="187.55" y="134.95" width="22.68" height="10.04" rx="5.02"/>
  <path class="cls-1"
        d="M172.12,111.36a5.26,5.26,0,0,0-3.13,1.13,5.65,5.65,0,0,0-2.15,4.45,5.82,5.82,0,0,0,.92,3.1,5.33,5.33,0,0,0,4.47,2.45h.06a5.43,5.43,0,0,0,3-1,5.67,5.67,0,0,0,2.32-4.57,5.57,5.57,0,0,0-1.3-3.65,5.27,5.27,0,0,0-4-1.93Z"/>
  <g class="cls-6">
    <rect class="cls-7" x="166.74" y="111.27" width="11" height="11.31"
          transform="translate(-2.01 3.02) rotate(-1)"/>
  </g>
  <path class="cls-2"
        d="M473.34,158.84A5.27,5.27,0,0,0,470.2,160a5.65,5.65,0,0,0-2.15,4.46,5.79,5.79,0,0,0,.92,3.09,5.33,5.33,0,0,0,4.47,2.45h.07a5.3,5.3,0,0,0,3-1,5.71,5.71,0,0,0,1-8.21,5.24,5.24,0,0,0-4-1.93Z"/>
  <g class="cls-8">
    <rect class="cls-9" x="467.96" y="158.75" width="11" height="11.31"
          transform="translate(-2.8 8.29) rotate(-1)"/>
  </g>
</svg>
