<svg data-name="Calque 1" xmlns="http://www.w3.org/2000/svg" xmlns:xlink="http://www.w3.org/1999/xlink"
     viewBox="0 0 566.93 283.46">
  <defs>
    <style>
      .cls-1 {
        fill: url(#Dégradé_sans_nom_64);
      }

      .cls-2 {
        fill: url(#Dégradé_sans_nom_64-2);
      }

      .cls-3 {
        fill: url(#Dégradé_sans_nom_64-3);
      }

      .cls-4 {
        fill: url(#Dégradé_sans_nom_64-4);
      }

      .cls-5 {
        fill: var(--text);
      }

      .cls-6 {
        fill: url(#Dégradé_sans_nom_64-5);
      }

      .cls-7 {
        fill: url(#Dégradé_sans_nom_3);
      }

      .cls-8 {
        clip-path: url(#clip-path);
      }

      .cls-9 {
        fill: url(#Dégradé_sans_nom_64-7);
      }

      .cls-10 {
        clip-path: url(#clip-path-2);
      }

      .cls-11 {
        fill: url(#Dégradé_sans_nom_64-9);
      }

      .cls-12 {
        clip-path: url(#clip-path-3);
      }

      .cls-13 {
        fill: url(#Dégradé_sans_nom_64-11);
      }

      .cls-14 {
        clip-path: url(#clip-path-4);
      }

      .cls-15 {
        fill: url(#Dégradé_sans_nom_64-13);
      }
    </style>
    <linearGradient id="Dégradé_sans_nom_64" x1="168.38" y1="113.06" x2="176.12" y2="120.79"
                    gradientUnits="userSpaceOnUse">
      <stop offset="0" stop-color="#0deef7"/>
      <stop offset="0" stop-color="#0eedf7"/>
      <stop offset="0.28" stop-color="#54a8fa"/>
      <stop offset="0.52" stop-color="#8b72fc"/>
      <stop offset="0.73" stop-color="#b34bfe"/>
      <stop offset="0.9" stop-color="#cb33ff"/>
      <stop offset="1" stop-color="#d42aff"/>
    </linearGradient>
    <linearGradient id="Dégradé_sans_nom_64-2" x1="469.6" y1="160.53" x2="477.33" y2="168.26"
                    xlink:href="#Dégradé_sans_nom_64"/>
    <linearGradient id="Dégradé_sans_nom_64-3" x1="398.89" y1="199.3" x2="401.3" y2="201.7"
                    xlink:href="#Dégradé_sans_nom_64"/>
    <linearGradient id="Dégradé_sans_nom_64-4" x1="256.68" y1="199.3" x2="259.09" y2="201.7"
                    xlink:href="#Dégradé_sans_nom_64"/>
    <linearGradient id="Dégradé_sans_nom_64-5" x1="390.07" y1="139.97" x2="412.75" y2="139.97"
                    xlink:href="#Dégradé_sans_nom_64"/>
    <linearGradient id="Dégradé_sans_nom_3" x1="187.55" y1="139.97" x2="210.23" y2="139.97"
                    xlink:href="#Dégradé_sans_nom_64"/>
    <clipPath id="clip-path">
      <path class="cls-1"
            d="M172.12,111.36a5.26,5.26,0,0,0-3.13,1.13,5.65,5.65,0,0,0-2.15,4.45,5.82,5.82,0,0,0,.92,3.1,5.33,5.33,0,0,0,4.47,2.45h.06a5.43,5.43,0,0,0,3-1,5.67,5.67,0,0,0,2.32-4.57,5.57,5.57,0,0,0-1.3-3.65,5.27,5.27,0,0,0-4-1.93Z"/>
    </clipPath>
    <linearGradient id="Dégradé_sans_nom_64-7" x1="166.66" y1="111.35" x2="177.82" y2="122.51"
                    gradientTransform="translate(2.07 -2.99) rotate(1)" xlink:href="#Dégradé_sans_nom_64"/>
    <clipPath id="clip-path-2">
      <path class="cls-2"
            d="M473.34,158.84A5.27,5.27,0,0,0,470.2,160a5.65,5.65,0,0,0-2.15,4.46,5.79,5.79,0,0,0,.92,3.09,5.33,5.33,0,0,0,4.47,2.45h.07a5.3,5.3,0,0,0,3-1,5.71,5.71,0,0,0,1-8.21,5.24,5.24,0,0,0-4-1.93Z"/>
    </clipPath>
    <linearGradient id="Dégradé_sans_nom_64-9" x1="467.88" y1="158.82" x2="479.04" y2="169.98"
                    gradientTransform="translate(2.94 -8.24) rotate(1)" xlink:href="#Dégradé_sans_nom_64"/>
    <clipPath id="clip-path-3">
      <path class="cls-3"
            d="M400.05,198.77a1.65,1.65,0,0,0-1,.35,1.75,1.75,0,0,0-.67,1.39,1.82,1.82,0,0,0,.29,1,1.64,1.64,0,0,0,1.39.76h0a1.69,1.69,0,0,0,.94-.3,1.77,1.77,0,0,0,.72-1.42,1.74,1.74,0,0,0-.4-1.14,1.62,1.62,0,0,0-1.24-.6Z"/>
    </clipPath>
    <linearGradient id="Dégradé_sans_nom_64-11" x1="398.35" y1="198.76" x2="401.83" y2="202.24"
                    gradientTransform="translate(3.56 -6.95) rotate(1)" xlink:href="#Dégradé_sans_nom_64"/>
    <clipPath id="clip-path-4">
      <path class="cls-4"
            d="M257.84,198.77a1.65,1.65,0,0,0-1,.35,1.75,1.75,0,0,0-.67,1.39,1.82,1.82,0,0,0,.29,1,1.64,1.64,0,0,0,1.39.76h0a1.69,1.69,0,0,0,.94-.3,1.77,1.77,0,0,0,.72-1.42,1.74,1.74,0,0,0-.4-1.14,1.62,1.62,0,0,0-1.24-.6Z"/>
    </clipPath>
    <linearGradient id="Dégradé_sans_nom_64-13" x1="256.15" y1="198.76" x2="259.62" y2="202.24"
                    gradientTransform="translate(3.54 -4.47) rotate(1)" xlink:href="#Dégradé_sans_nom_64"/>
  </defs>
  <path class="cls-5"
        d="M168.89,126.56a5.1,5.1,0,0,0-7,2.32l-11.87,23.68L148,148.35q-2.56-5.29-7.33-15a15.91,15.91,0,0,0-1.26-2.46,5.32,5.32,0,0,0-6-1.86,5.35,5.35,0,0,0-2.93,2.32l-9.82,20h0q-5-10.22-5.62-11.51-4.71-9.76-12.41-25.52a16.54,16.54,0,0,0-1.54-2.91,5.25,5.25,0,0,0-4.16-2.11h-.2a5.32,5.32,0,0,0-3,1,5.55,5.55,0,0,0-2.29,4.5v.13a2.29,2.29,0,0,0,.07.74q0,.92,1.74,4.28,6.57,13.62,6.65,13.66,8.76,18.1,8.79,18.14,6.75,14,6.82,14c.21.49.33.74.38.74l.47.8a5.33,5.33,0,0,0,4.33,2.28h.14a5.19,5.19,0,0,0,1.53-.24,5.59,5.59,0,0,0,3-2.39l9.75-20,1.09,2.22q6.65,13.68,7.37,15.09a20.86,20.86,0,0,0,1.7,3.3,5.55,5.55,0,0,0,3.54,2,5,5,0,0,0,1.22.15,5.14,5.14,0,0,0,4.6-2.9l16.51-33a5.41,5.41,0,0,0-2.25-7.17"/>
  <path class="cls-5"
        d="M221.23,109.42h-.1l-.13-.07H192.49l-.13.07h-.14a4.56,4.56,0,0,0-2.42.77,4.82,4.82,0,0,0-2.25,4v.42a4.87,4.87,0,0,0,1,2.88,4.58,4.58,0,0,0,3.62,1.93h29a4.29,4.29,0,0,0,1.91-.46,4.92,4.92,0,0,0,2.8-4.49,5.17,5.17,0,0,0-.55-2.32,4.73,4.73,0,0,0-4.16-2.7"/>
  <path class="cls-5"
        d="M222.05,159.61a3.51,3.51,0,0,1-1.05-.17H192.49s-.07,0-.07,0a6.09,6.09,0,0,0-2.32.63,4.92,4.92,0,0,0-2.55,4.25v.32a5.18,5.18,0,0,0,1.09,3.05,4.58,4.58,0,0,0,2.86,1.65H222a4.26,4.26,0,0,0,1.16-.32,5.06,5.06,0,0,0,1.61-7.79,4.88,4.88,0,0,0-2.7-1.65"/>
  <path class="cls-5"
        d="M423.76,109.42h-.11l-.13-.07H395l-.14.07h-.14a4.58,4.58,0,0,0-2.42.77,4.82,4.82,0,0,0-2.25,4v.42a4.87,4.87,0,0,0,1,2.88,4.58,4.58,0,0,0,3.62,1.93h29.05a4.35,4.35,0,0,0,1.91-.46,4.93,4.93,0,0,0,2.79-4.49,5.29,5.29,0,0,0-.54-2.32,4.75,4.75,0,0,0-4.16-2.7"/>
  <path class="cls-5"
        d="M455.61,137.87a5.32,5.32,0,0,0-3.31,5.42v.49a7.12,7.12,0,0,0,.51,2.61,2.1,2.1,0,0,0,.29.53c.26.36.77,1.05,1.55,2.09h0l5.46,7.1a5.08,5.08,0,0,0,7.1.93l.4-.3a5.08,5.08,0,0,0,.93-7.1l-3.41-4.43c.1-.09.19-.18.31-.27l.63-.38a67.26,67.26,0,0,0,7.62-5.47,17.36,17.36,0,0,0,5.15-12.6,17.59,17.59,0,0,0-4.4-11.76,16.73,16.73,0,0,0-12.75-5.83h-17.2a4.8,4.8,0,0,0-2.7.77,4.91,4.91,0,0,0-2.31,4.18V114a5.89,5.89,0,0,0,.27,1.65,4.87,4.87,0,0,0,4.74,3.3h17.31a6.9,6.9,0,0,1,5.25,2.24,8,8,0,0,1,2.08,5.2,8.07,8.07,0,0,1-2.8,6.07,32.72,32.72,0,0,1-4.6,2.67"/>
  <rect class="cls-5" x="390" y="134.95" width="22.68" height="10.04" rx="5.02"></rect>
  <path class="cls-5"
        d="M272.27,154.07q-1.92,5.33-7.16,5.33H251V144.34h13.87a7.22,7.22,0,0,1,5.56,2.21,8,8,0,0,1,2.22,5.37,8.88,8.88,0,0,1-.34,2.15m4.36-39.35a16.73,16.73,0,0,0-12.75-5.83H242.09a4.7,4.7,0,0,0-2.69.78,4.87,4.87,0,0,0-2.32,4.17V114a5.89,5.89,0,0,0,.27,1.65,4.89,4.89,0,0,0,4.74,3.3H264a6.94,6.94,0,0,1,5.25,2.24,7.92,7.92,0,0,1,2.08,5.2,8.06,8.06,0,0,1-2.79,6.07,7.67,7.67,0,0,1-4.13,1.58L246,134l-1.33,0a5.39,5.39,0,0,0-2,.49,5,5,0,0,0-2.8,4.46v25.3a5.07,5.07,0,0,0,1.37,3.41,4.38,4.38,0,0,0,2.65,1.44h21.76a14.25,14.25,0,0,0,4.8-1.2,20.77,20.77,0,0,0,4.1-2.45A17.64,17.64,0,0,0,281,151.68a16.86,16.86,0,0,0-5.15-12.6,17.4,17.4,0,0,0,5.15-12.6,17.64,17.64,0,0,0-4.4-11.76"/>
  <path class="cls-5"
        d="M296.55,136c2.61,3.15,6.88,5.72,11.05,8.22,2.17,1.31,5.45,3.27,6.13,4.15a3,3,0,0,0,.35.36,7.4,7.4,0,0,1,1.32,5,8.16,8.16,0,0,1-2.26,4.59,6.86,6.86,0,0,1-5.13,1.76,7.18,7.18,0,0,1-1.8-.44,10.64,10.64,0,0,0-3.06-1.22l-.17,0a4.46,4.46,0,0,0-4.9,4l0,.28a4.8,4.8,0,0,0,1.4,3.82,14.73,14.73,0,0,0,7,2.82l.41,0a16.37,16.37,0,0,0,9.38-2,14.82,14.82,0,0,0,3.1-2.3,17.31,17.31,0,0,0,5.11-10.28,17,17,0,0,0-1.57-9.14,8.36,8.36,0,0,0-1.95-3c0-.06-.06-.12-.1-.17-1.73-2.22-4.93-4.14-8.62-6.36-2.87-1.72-7.52-4.51-8.87-6.35-.14-.25-.3-.49-.42-.73l-.07-.15a7.59,7.59,0,0,1-.72-4.17,7.09,7.09,0,0,1,1.08-3q2.66-3.52,6.21-3.13a8.36,8.36,0,0,1,2.07.54,7.73,7.73,0,0,0,2.88,1.24,4.8,4.8,0,0,0,1.84-.19,4.6,4.6,0,0,0,3.21-3.92,4.72,4.72,0,0,0-1.11-3.65l-1.06-1a14,14,0,0,0-5-2.07l-2.85-.31a12.56,12.56,0,0,0-3.88.42,15.87,15.87,0,0,0-7.44,4,16.87,16.87,0,0,0-5,10.07,17.26,17.26,0,0,0,2.13,10.26,6.53,6.53,0,0,0,1.39,1.94"/>
  <path class="cls-5"
        d="M424.58,159.61a3.54,3.54,0,0,1-1.06-.17H395s-.07,0-.07,0a6,6,0,0,0-2.32.63,4.91,4.91,0,0,0-2.56,4.25v.32a5.18,5.18,0,0,0,1.09,3.05,4.6,4.6,0,0,0,2.87,1.65h30.48a4.35,4.35,0,0,0,1.16-.32,5.07,5.07,0,0,0,1.6-7.79,4.81,4.81,0,0,0-2.69-1.65"/>
  <path class="cls-5"
        d="M375.42,109.35H336.18a4.69,4.69,0,0,0-2.42.74,5.08,5.08,0,0,0-2.32,4.28,6.25,6.25,0,0,0,.68,2.6,4.88,4.88,0,0,0,4,2.42h14.77V164a5.54,5.54,0,0,0,1.36,3.93,4.79,4.79,0,0,0,2.69,1.41h1.67a4.09,4.09,0,0,0,1.3-.39,5,5,0,0,0,2.76-4.46V119.39h14.73a4.93,4.93,0,0,0,2.11-.56,5.08,5.08,0,0,0,2.6-4.39,5.71,5.71,0,0,0-.65-2.63,4.88,4.88,0,0,0-4-2.46"/>
  <rect class="cls-6" x="390.07" y="134.95" width="22.68" height="10.04" rx="5.02"/>
  <rect class="cls-7" x="187.55" y="134.95" width="22.68" height="10.04" rx="5.02"/>
  <path class="cls-1"
        d="M172.12,111.36a5.26,5.26,0,0,0-3.13,1.13,5.65,5.65,0,0,0-2.15,4.45,5.82,5.82,0,0,0,.92,3.1,5.33,5.33,0,0,0,4.47,2.45h.06a5.43,5.43,0,0,0,3-1,5.67,5.67,0,0,0,2.32-4.57,5.57,5.57,0,0,0-1.3-3.65,5.27,5.27,0,0,0-4-1.93Z"/>
  <g class="cls-8">
    <rect class="cls-9" x="166.74" y="111.27" width="11" height="11.31"
          transform="translate(-2.01 3.02) rotate(-1)"/>
  </g>
  <path class="cls-2"
        d="M473.34,158.84A5.27,5.27,0,0,0,470.2,160a5.65,5.65,0,0,0-2.15,4.46,5.79,5.79,0,0,0,.92,3.09,5.33,5.33,0,0,0,4.47,2.45h.07a5.3,5.3,0,0,0,3-1,5.71,5.71,0,0,0,1-8.21,5.24,5.24,0,0,0-4-1.93Z"/>
  <g class="cls-10">
    <rect class="cls-11" x="467.96" y="158.75" width="11" height="11.31"
          transform="translate(-2.8 8.29) rotate(-1)"/>
  </g>
  <path class="cls-5" d="M240.68,199.23v2.65h-5.22v14.7h-3.23v-14.7H227v-2.65Z"/>
  <path class="cls-5"
        d="M242.56,216.58V198.75h3v6.85a6.51,6.51,0,0,1,1.58-1.1,4.6,4.6,0,0,1,2-.42,4.4,4.4,0,0,1,1.79.34,3.59,3.59,0,0,1,1.3,1,4.16,4.16,0,0,1,.79,1.47,6.35,6.35,0,0,1,.27,1.89v7.84h-3v-7.84a2.66,2.66,0,0,0-.52-1.74,2,2,0,0,0-1.57-.62,3.12,3.12,0,0,0-1.44.35,5.08,5.08,0,0,0-1.27,1v8.9Z"/>
  <path class="cls-5" d="M259.36,204.27v12.31h-3V204.27Z"/>
  <path class="cls-5"
        d="M262.71,216.58V204.27h1.81a.73.73,0,0,1,.76.54l.2,1a6.49,6.49,0,0,1,.79-.7,7.15,7.15,0,0,1,.88-.54,4.28,4.28,0,0,1,1-.34,5.14,5.14,0,0,1,1.15-.12,4.4,4.4,0,0,1,1.79.34,3.59,3.59,0,0,1,1.3,1,4.16,4.16,0,0,1,.79,1.47,6.35,6.35,0,0,1,.27,1.89v7.84h-3v-7.84A2.6,2.6,0,0,0,270,207a1.93,1.93,0,0,0-1.56-.62,3.12,3.12,0,0,0-1.44.35,5.08,5.08,0,0,0-1.27,1v8.9Z"/>
  <path class="cls-5"
        d="M279.36,198.75V209h.55a1.21,1.21,0,0,0,.47-.08,1.25,1.25,0,0,0,.36-.32l3.06-3.78a1.63,1.63,0,0,1,.43-.37,1.07,1.07,0,0,1,.6-.14h2.71l-3.83,4.57a3.7,3.7,0,0,1-.42.46,2.84,2.84,0,0,1-.47.37,2.24,2.24,0,0,1,.45.42c.13.16.25.33.38.51l4.11,6h-2.68a1.32,1.32,0,0,1-.59-.12,1.19,1.19,0,0,1-.43-.41l-3.13-4.67a1,1,0,0,0-.36-.36,1.46,1.46,0,0,0-.54-.08h-.67v5.64h-3V198.75Z"/>
  <path class="cls-5"
        d="M298.27,216.77a3.23,3.23,0,0,1-2.46-.9,3.48,3.48,0,0,1-.87-2.51v-6.87H293.7a.6.6,0,0,1-.42-.16.61.61,0,0,1-.17-.47v-1.17l2-.33.62-3.36a.61.61,0,0,1,.22-.37.72.72,0,0,1,.44-.13h1.54v3.88h3.24v2.11h-3.24v6.67a1.28,1.28,0,0,0,.29.9.94.94,0,0,0,.76.32,1.47,1.47,0,0,0,.46-.06,2.73,2.73,0,0,0,.33-.14L300,214a.42.42,0,0,1,.21-.06.38.38,0,0,1,.22.06,2,2,0,0,1,.18.2l.89,1.44a4.7,4.7,0,0,1-1.49.82A5.65,5.65,0,0,1,298.27,216.77Z"/>
  <path class="cls-5"
        d="M303.51,216.58V198.75h3v6.85a6.56,6.56,0,0,1,1.59-1.1,4.57,4.57,0,0,1,2-.42,4.43,4.43,0,0,1,1.79.34,3.67,3.67,0,0,1,1.3,1,4.16,4.16,0,0,1,.79,1.47,6.35,6.35,0,0,1,.27,1.89v7.84h-3v-7.84a2.6,2.6,0,0,0-.53-1.74,1.93,1.93,0,0,0-1.56-.62,3.09,3.09,0,0,0-1.44.35,5.31,5.31,0,0,0-1.28,1v8.9Z"/>
  <path class="cls-5"
        d="M322.24,204.08a5.9,5.9,0,0,1,2.14.37,4.71,4.71,0,0,1,1.69,1.08,4.92,4.92,0,0,1,1.1,1.76,6.47,6.47,0,0,1,.4,2.37,4.11,4.11,0,0,1,0,.55.76.76,0,0,1-.11.35.37.37,0,0,1-.21.18.81.81,0,0,1-.33.06h-7.61a4.25,4.25,0,0,0,1,2.78,3.17,3.17,0,0,0,2.35.89,4.13,4.13,0,0,0,1.24-.17,6.13,6.13,0,0,0,.91-.37l.69-.37a1.07,1.07,0,0,1,.57-.17.62.62,0,0,1,.31.07.74.74,0,0,1,.23.2l.86,1.08a4.79,4.79,0,0,1-1.1,1,5.81,5.81,0,0,1-1.28.62,6.43,6.43,0,0,1-1.36.33,8.79,8.79,0,0,1-1.33.1,6.46,6.46,0,0,1-2.39-.43,5.18,5.18,0,0,1-1.92-1.26,6,6,0,0,1-1.29-2.06,8,8,0,0,1-.46-2.85,6.64,6.64,0,0,1,.41-2.37,5.65,5.65,0,0,1,1.17-1.93,5.38,5.38,0,0,1,1.85-1.3A6.16,6.16,0,0,1,322.24,204.08Zm.06,2.12a2.71,2.71,0,0,0-2,.73,3.57,3.57,0,0,0-.94,2.08h5.57a3.83,3.83,0,0,0-.16-1.09,2.37,2.37,0,0,0-1.29-1.5A2.79,2.79,0,0,0,322.3,206.2Z"/>
  <path class="cls-5"
        d="M333.11,204.27h2.36a1,1,0,0,1,.56.15.71.71,0,0,1,.29.4l1.76,6.58q.15.54.24,1c.06.35.11.69.17,1,.09-.34.18-.68.28-1s.21-.69.32-1l2-6.6a.72.72,0,0,1,.29-.4.85.85,0,0,1,.5-.16h1.31a.91.91,0,0,1,.54.16.77.77,0,0,1,.29.4l2,6.72c.11.34.2.67.29,1l.24,1c.06-.35.12-.69.19-1s.15-.7.26-1.06l1.82-6.58a.71.71,0,0,1,.29-.4.94.94,0,0,1,.53-.15h2.24L348,216.58h-2.39c-.25,0-.44-.18-.55-.53l-2.22-7.11c-.07-.24-.14-.47-.2-.71s-.11-.46-.15-.7l-.15.72c-.06.23-.12.47-.2.71l-2.24,7.09a.65.65,0,0,1-.65.53H337Z"/>
  <path class="cls-5"
        d="M358.69,204.08a5.94,5.94,0,0,1,2.14.37,4.76,4.76,0,0,1,1.68,1.08,4.94,4.94,0,0,1,1.11,1.76,6.69,6.69,0,0,1,.39,2.37,4.11,4.11,0,0,1,0,.55.91.91,0,0,1-.1.35.44.44,0,0,1-.21.18.83.83,0,0,1-.34.06h-7.61a4.25,4.25,0,0,0,1,2.78,3.19,3.19,0,0,0,2.35.89,4.2,4.2,0,0,0,1.25-.17,6.6,6.6,0,0,0,.91-.37l.68-.37a1.09,1.09,0,0,1,.57-.17.59.59,0,0,1,.31.07.74.74,0,0,1,.23.2l.87,1.08a4.84,4.84,0,0,1-1.11,1,5.81,5.81,0,0,1-1.28.62,6.34,6.34,0,0,1-1.35.33,8.92,8.92,0,0,1-1.34.1,6.46,6.46,0,0,1-2.39-.43,5.34,5.34,0,0,1-1.92-1.26,5.86,5.86,0,0,1-1.28-2.06,8,8,0,0,1-.47-2.85,6.86,6.86,0,0,1,.41-2.37,5.65,5.65,0,0,1,1.17-1.93,5.51,5.51,0,0,1,1.86-1.3A6.13,6.13,0,0,1,358.69,204.08Zm.06,2.12a2.73,2.73,0,0,0-2,.73,3.63,3.63,0,0,0-.94,2.08h5.57a3.5,3.5,0,0,0-.16-1.09,2.32,2.32,0,0,0-.48-.89,2.17,2.17,0,0,0-.81-.61A2.74,2.74,0,0,0,358.75,206.2Z"/>
  <path class="cls-5"
        d="M366.46,216.58V198.75h3v7a5.82,5.82,0,0,1,1.65-1.24,4.77,4.77,0,0,1,2.16-.46,4,4,0,0,1,1.84.41,4.06,4.06,0,0,1,1.44,1.21,5.62,5.62,0,0,1,.94,2,9.88,9.88,0,0,1,.33,2.68,8.32,8.32,0,0,1-.37,2.55,6.17,6.17,0,0,1-1.06,2,4.84,4.84,0,0,1-1.67,1.35,4.77,4.77,0,0,1-2.19.49,4.65,4.65,0,0,1-1-.11,4.15,4.15,0,0,1-.86-.32,3.8,3.8,0,0,1-.71-.5,6.48,6.48,0,0,1-.63-.65l-.13.82a.75.75,0,0,1-.25.45.73.73,0,0,1-.47.13Zm5.76-10.2a3.06,3.06,0,0,0-1.58.39,4.58,4.58,0,0,0-1.21,1.1v5.52a2.92,2.92,0,0,0,1.09.87,3.44,3.44,0,0,0,1.29.24,2.83,2.83,0,0,0,1.22-.25,2.31,2.31,0,0,0,.91-.77,3.64,3.64,0,0,0,.59-1.3,7.7,7.7,0,0,0,.2-1.85,8.63,8.63,0,0,0-.17-1.83,3.74,3.74,0,0,0-.5-1.22,2,2,0,0,0-.79-.68A2.38,2.38,0,0,0,372.22,206.38Z"/>
  <path class="cls-5"
        d="M393.4,216.58a.72.72,0,0,1-.75-.54l-.24-1.19a7.39,7.39,0,0,1-.81.78,5.42,5.42,0,0,1-.9.6,4.72,4.72,0,0,1-1.05.39,5.06,5.06,0,0,1-1.2.14,4.06,4.06,0,0,1-1.85-.42,4.21,4.21,0,0,1-1.45-1.22,6.12,6.12,0,0,1-.94-2,10.44,10.44,0,0,1-.32-2.69,8.3,8.3,0,0,1,.37-2.54,5.84,5.84,0,0,1,1.07-2,4.9,4.9,0,0,1,1.66-1.35,4.77,4.77,0,0,1,2.19-.49,4.25,4.25,0,0,1,1.76.33,4.5,4.5,0,0,1,1.31.88v-6.5h3v17.83Zm-3.95-2.17A3,3,0,0,0,391,214a4.55,4.55,0,0,0,1.22-1.09v-5.52a2.91,2.91,0,0,0-1.1-.86,3.21,3.21,0,0,0-1.28-.25,2.79,2.79,0,0,0-1.21.25,2.36,2.36,0,0,0-.93.76,3.81,3.81,0,0,0-.58,1.3,7.23,7.23,0,0,0-.2,1.85,8,8,0,0,0,.17,1.83,3.53,3.53,0,0,0,.5,1.22,1.86,1.86,0,0,0,.79.69A2.51,2.51,0,0,0,389.45,214.41Z"/>
  <path class="cls-5" d="M401.57,204.27v12.31h-3V204.27Z"/>
  <path class="cls-5"
        d="M405.45,216.58V206.5l-1.07-.17a1.15,1.15,0,0,1-.56-.24.63.63,0,0,1-.21-.5v-1.21h1.84v-.92a5.13,5.13,0,0,1,.32-1.89,3.85,3.85,0,0,1,.91-1.43,4.09,4.09,0,0,1,1.44-.9,5.52,5.52,0,0,1,1.92-.31,5.09,5.09,0,0,1,1.59.23l-.06,1.49a.45.45,0,0,1-.32.43,3,3,0,0,1-.7.08,3.79,3.79,0,0,0-.94.11,1.57,1.57,0,0,0-.7.4,1.76,1.76,0,0,0-.44.74,3.77,3.77,0,0,0-.15,1.15v.82h3.2v2.11h-3.11v10.09Z"/>
  <path class="cls-5"
        d="M413.86,216.58V206.5l-1.07-.17a1.11,1.11,0,0,1-.55-.24.6.6,0,0,1-.21-.5v-1.21h1.83v-.92a5.35,5.35,0,0,1,.32-1.89,4,4,0,0,1,.91-1.43,4,4,0,0,1,1.45-.9,5.49,5.49,0,0,1,1.92-.31,5,5,0,0,1,1.58.23l-.06,1.49a.44.44,0,0,1-.32.43,2.93,2.93,0,0,1-.7.08,3.79,3.79,0,0,0-.94.11,1.57,1.57,0,0,0-.7.4,1.76,1.76,0,0,0-.44.74,3.77,3.77,0,0,0-.15,1.15v.82h3.2v2.11h-3.1v10.09Z"/>
  <path class="cls-5"
        d="M426.83,204.08a5.9,5.9,0,0,1,2.14.37,4.71,4.71,0,0,1,1.69,1.08,4.92,4.92,0,0,1,1.1,1.76,6.47,6.47,0,0,1,.4,2.37,4.11,4.11,0,0,1,0,.55.9.9,0,0,1-.11.35.37.37,0,0,1-.21.18.81.81,0,0,1-.33.06h-7.61a4.25,4.25,0,0,0,1,2.78,3.17,3.17,0,0,0,2.35.89,4.13,4.13,0,0,0,1.24-.17,6.13,6.13,0,0,0,.91-.37l.69-.37a1,1,0,0,1,.57-.17.62.62,0,0,1,.31.07.87.87,0,0,1,.23.2l.86,1.08a4.79,4.79,0,0,1-1.1,1,6,6,0,0,1-1.28.62,6.43,6.43,0,0,1-1.36.33,8.79,8.79,0,0,1-1.33.1,6.43,6.43,0,0,1-2.39-.43,5.18,5.18,0,0,1-1.92-1.26,5.88,5.88,0,0,1-1.29-2.06,8,8,0,0,1-.46-2.85,6.86,6.86,0,0,1,.4-2.37,6,6,0,0,1,1.17-1.93,5.51,5.51,0,0,1,1.86-1.3A6.16,6.16,0,0,1,426.83,204.08Zm.06,2.12a2.75,2.75,0,0,0-2,.73,3.63,3.63,0,0,0-.93,2.08h5.57a3.83,3.83,0,0,0-.16-1.09,2.32,2.32,0,0,0-.48-.89,2.29,2.29,0,0,0-.82-.61A2.71,2.71,0,0,0,426.89,206.2Z"/>
  <path class="cls-5"
        d="M434.57,216.58V204.27h1.74a.89.89,0,0,1,.64.17,1,1,0,0,1,.24.57l.18,1.49a5.75,5.75,0,0,1,1.55-1.8,3.24,3.24,0,0,1,2-.66,2.56,2.56,0,0,1,1.51.42l-.38,2.22a.51.51,0,0,1-.16.31.53.53,0,0,1-.32.09,2,2,0,0,1-.5-.09,3.53,3.53,0,0,0-.82-.08,2.52,2.52,0,0,0-1.59.51,3.91,3.91,0,0,0-1.11,1.49v7.67Z"/>
  <path class="cls-5"
        d="M449.46,204.08a6,6,0,0,1,2.15.37,4.76,4.76,0,0,1,1.68,1.08,5.09,5.09,0,0,1,1.11,1.76,6.69,6.69,0,0,1,.39,2.37,4.11,4.11,0,0,1,0,.55.76.76,0,0,1-.11.35.37.37,0,0,1-.21.18.78.78,0,0,1-.33.06H446.5a4.25,4.25,0,0,0,1,2.78,3.19,3.19,0,0,0,2.35.89,4.08,4.08,0,0,0,1.24-.17,6.28,6.28,0,0,0,.92-.37l.68-.37a1.09,1.09,0,0,1,.57-.17.62.62,0,0,1,.31.07.74.74,0,0,1,.23.2l.86,1.08a4.59,4.59,0,0,1-1.1,1,5.81,5.81,0,0,1-1.28.62,6.34,6.34,0,0,1-1.35.33,8.92,8.92,0,0,1-1.34.1,6.46,6.46,0,0,1-2.39-.43,5.18,5.18,0,0,1-1.92-1.26A5.86,5.86,0,0,1,444,213a7.81,7.81,0,0,1-.47-2.85,6.64,6.64,0,0,1,.41-2.37,5.65,5.65,0,0,1,1.17-1.93,5.32,5.32,0,0,1,1.86-1.3A6.08,6.08,0,0,1,449.46,204.08Zm.06,2.12a2.71,2.71,0,0,0-2,.73,3.63,3.63,0,0,0-.94,2.08h5.57a3.5,3.5,0,0,0-.16-1.09,2.32,2.32,0,0,0-.48-.89,2.25,2.25,0,0,0-.81-.61A2.79,2.79,0,0,0,449.52,206.2Z"/>
  <path class="cls-5"
        d="M457.2,216.58V204.27H459a.72.72,0,0,1,.75.54l.21,1a6.41,6.41,0,0,1,.78-.7,7.15,7.15,0,0,1,.88-.54,4.63,4.63,0,0,1,1-.34,5.14,5.14,0,0,1,1.15-.12,4.4,4.4,0,0,1,1.79.34,3.59,3.59,0,0,1,1.3,1,4.16,4.16,0,0,1,.79,1.47,6.35,6.35,0,0,1,.27,1.89v7.84h-3v-7.84a2.66,2.66,0,0,0-.52-1.74,2,2,0,0,0-1.57-.62,3.12,3.12,0,0,0-1.44.35,5.08,5.08,0,0,0-1.27,1v8.9Z"/>
  <path class="cls-5"
        d="M474.89,216.77a3.26,3.26,0,0,1-2.46-.9,3.52,3.52,0,0,1-.86-2.51v-6.87h-1.25a.56.56,0,0,1-.41-.16.58.58,0,0,1-.18-.47v-1.17l2-.33.63-3.36a.57.57,0,0,1,.22-.37.68.68,0,0,1,.44-.13h1.53v3.88h3.24v2.11h-3.24v6.67a1.33,1.33,0,0,0,.29.9,1,1,0,0,0,.77.32,1.51,1.51,0,0,0,.46-.06,3.37,3.37,0,0,0,.32-.14,1.86,1.86,0,0,0,.25-.14.43.43,0,0,1,.22-.06.35.35,0,0,1,.21.06.9.9,0,0,1,.18.2l.89,1.44a4.6,4.6,0,0,1-1.49.82A5.65,5.65,0,0,1,474.89,216.77Z"/>
  <path class="cls-3"
        d="M400.05,198.77a1.65,1.65,0,0,0-1,.35,1.75,1.75,0,0,0-.67,1.39,1.82,1.82,0,0,0,.29,1,1.64,1.64,0,0,0,1.39.76h0a1.69,1.69,0,0,0,.94-.3,1.77,1.77,0,0,0,.72-1.42,1.74,1.74,0,0,0-.4-1.14,1.62,1.62,0,0,0-1.24-.6Z"/>
  <g class="cls-12">
    <rect class="cls-13" x="398.38" y="198.74" width="3.42" height="3.52"
          transform="translate(-3.44 7.01) rotate(-1)"/>
  </g>
  <path class="cls-4"
        d="M257.84,198.77a1.65,1.65,0,0,0-1,.35,1.75,1.75,0,0,0-.67,1.39,1.82,1.82,0,0,0,.29,1,1.64,1.64,0,0,0,1.39.76h0a1.69,1.69,0,0,0,.94-.3,1.77,1.77,0,0,0,.72-1.42,1.74,1.74,0,0,0-.4-1.14,1.62,1.62,0,0,0-1.24-.6Z"/>
  <g class="cls-14">
    <rect class="cls-15" x="256.17" y="198.74" width="3.42" height="3.52"
          transform="translate(-3.46 4.53) rotate(-1)"/>
  </g>
</svg>
