<?xml version="1.0" encoding="utf-8"?>
<!-- Generator: Adobe Illustrator 26.0.1, SVG Export Plug-In . SVG Version: 6.00 Build 0)  -->
<svg version="1.1" xmlns="http://www.w3.org/2000/svg" xmlns:xlink="http://www.w3.org/1999/xlink" x="0px" y="0px"
	 viewBox="0 0 488.3 362.3" style="enable-background:new 0 0 488.3 362.3;" xml:space="preserve">
<style type="text/css">
	.st2{fill:var(--primary);}
	.st3{fill:currentColor;}
	.st2{fill:var(--primary);}
	.st4{fill:white;}
</style>
<g>
	<path class="st0" d="M307.9,0H181.6c-5.5,0-10,4.5-10,10v177.8c0,5.5,4.5,10,10,10h126.3c5.5,0,10-4.5,10-10V10
		C317.9,4.5,313.4,0,307.9,0z"/>
	<path class="st4" d="M285.8,143.2l-28.3-28.3c23.1-7,36.1-31.4,29.1-54.4s-31.4-36.1-54.4-29.1S196,62.8,203,85.9
		c4.2,13.9,15.1,24.8,29.1,29.1l-28.3,28.3c-0.9,0.9-1.5,1.9-2,3c-0.9,2.2-0.9,4.7,0,6.9c0.5,1.1,1.1,2.1,2,3l9.5,9.5
		c3.2,3.2,8.1,3.6,11.8,1c0.2-0.2,0.5-0.3,0.7-0.5l19-19l18.6,18.6c3.2,3.2,8.2,3.6,11.8,1c0.2-0.2,0.4-0.3,0.6-0.5l9.9-9.9
		c3.6-3.5,3.6-9.3,0-12.9C285.8,143.3,285.8,143.3,285.8,143.2L285.8,143.2z M221.5,96.4c-12.9-12.8-12.9-33.6-0.1-46.5
		S255.1,37,268,49.8c12.9,12.8,12.9,33.6,0.1,46.5c-6.2,6.2-14.5,9.7-23.2,9.7C236.1,106,227.7,102.6,221.5,96.4z M269.8,156.8
		L246,132.9c-0.6-0.7-1.7-0.7-2.3,0c0,0,0,0,0,0l-23.9,23.9l-7.1-7.1l32.1-32.2l32.2,32.2L269.8,156.8z"/>
</g>
<g>
	<path d="M36.1,306.6l15.6-52H70L39.5,343c-4.7,12.9-12.6,19.4-23.8,19.4c-2.8-0.1-5.6-0.5-8.3-1.3v-13.4l3.3,0.2
		c4.4,0,7.6-0.8,9.8-2.4s3.9-4.2,5.2-8l2.5-6.6L1.2,254.6h18.6L36.1,306.6z"/>
	<path d="M73.6,292.2c-0.1-7,1.4-14,4.5-20.3c2.7-5.8,7.1-10.6,12.5-13.9c5.6-3.3,12.1-5,18.6-4.9c10.4,0,18.8,3.3,25.2,10
		c6.5,6.7,9.9,15.5,10.5,26.5l0.1,4c0.1,7-1.4,14-4.4,20.3c-2.7,5.7-7.1,10.5-12.5,13.8c-5.7,3.3-12.2,5-18.7,4.9
		c-10.8,0-19.5-3.6-26-10.8s-9.8-16.8-9.8-28.8L73.6,292.2z M90.9,293.7c0,7.9,1.6,14.1,4.9,18.5c3.1,4.4,8.2,7,13.6,6.8
		c5.4,0.2,10.5-2.4,13.6-6.8c3.2-4.5,4.9-11.2,4.9-19.9c0-7.8-1.7-13.9-5-18.4c-5.5-7.5-16.1-9-23.6-3.5c-1.3,1-2.4,2.1-3.4,3.4
		C92.5,278.2,90.9,284.8,90.9,293.7L90.9,293.7z"/>
	<path d="M203.6,323.8c-5.1,6-12.2,8.9-21.6,8.9c-8.3,0-14.6-2.4-18.9-7.3c-4.3-4.9-6.4-11.9-6.4-21.1v-49.7h17.2v49.5
		c0,9.7,4,14.6,12.1,14.6c8.4,0,14-3,17-9v-55.1h17.2v76.7H204L203.6,323.8z"/>
	<path d="M359,323.8c-5,6-12.2,8.9-21.6,8.9c-8.3,0-14.6-2.4-18.9-7.3c-4.3-4.9-6.4-11.9-6.4-21.1v-49.7h17.2v49.5
		c0,9.7,4,14.6,12.1,14.6c8.4,0,14-3,17-9v-55.1h17.2v76.7h-16.3L359,323.8z"/>
	<path d="M457,293.7c0,11.9-2.7,21.3-8.1,28.4c-5.4,7.1-12.6,10.6-21.7,10.6c-8.4,0-15.2-2.8-20.2-8.3v36.4h-17.2V254.6h15.9
		l0.7,7.8c5-6.1,11.9-9.2,20.6-9.2c9.3,0,16.7,3.5,22,10.5c5.3,7,8,16.6,8,29L457,293.7z M439.9,292.2c0-7.7-1.5-13.7-4.6-18.2
		c-2.9-4.4-7.8-7-13.1-6.7c-7,0-12.1,2.9-15.2,8.7v34c3.1,5.9,8.2,8.9,15.3,8.9c5.1,0.2,10-2.3,12.9-6.6
		C438.3,307.9,439.9,301.2,439.9,292.2L439.9,292.2z"/>
	<circle class="st2" cx="477.3" cy="321.7" r="11.1"/>
	<polygon points="297.9,331.3 297.9,254.6 280.7,254.6 280.7,303.8 249.8,254.6 234.4,254.6 234.4,331.3 251.7,331.3 251.7,282.1
		282.5,331.3 	"/>
</g>
</svg>
