<svg xmlns="http://www.w3.org/2000/svg" id="Calque_1" data-name="Calque 1" viewBox="0 0 480.39 158.56">
  <defs>
    <style>
      .cls-1{fill:var(--primary);}
      .cls-1,.cls-2,.cls-3{fill-rule:evenodd;}
      .cls-2{fill:var(--primary);}
      .cls-3{fill:var(--primary);}
      .cls-4{fill:currentColor;}
    </style>
  </defs>
  <title>logo_zeenea_2020</title>
  <path class="cls-1" d="M75.27,38.71,6.94,9.56V52.1l29,12.25,38.2-15.89C80.19,46,82.78,42.13,75.27,38.71Z" transform="translate(-6.94 -9.56)"/>
  <path class="cls-2" d="M90.09,125.58,16.17,94.37c-7.1-3-8.78-6.33-9.23-9.07V126c0,5,3.44,7.77,7.54,9.84l75.61,32.27Z" transform="translate(-6.94 -9.56)"/>
  <path class="cls-3" d="M22.9,88.86l38.2,15.89,21.45-9.3c4.1-2.07,7.54-4.84,7.54-9.84V44.9C89.64,47.64,88,51,80.87,54L21.76,79.11C14.25,82.53,16.84,86.35,22.9,88.86Z" transform="translate(-6.94 -9.56)"/>
  <path class="cls-4" d="M143.57,103.76,173,74H145.11V63.18h44.17V73.35l-29.17,29.8h30.2v10.78H143.57Z" transform="translate(-6.94 -9.56)"/>
  <path class="cls-4" d="M195.55,88.56c0-15.42,11.3-26.72,27.33-26.72S250,73.14,250,88.56v4.31H208.39c1.65,7.4,7.3,11.3,14.49,11.3,5.45,0,9.45-1.54,12-4.83h13c-3.8,9.66-13,15.93-25.07,15.93C206.85,115.27,195.55,104,195.55,88.56Zm41.51-5.45c-1.95-6.78-7.5-10.17-14.18-10.17-6.88,0-12.23,3.49-14.18,10.17Z" transform="translate(-6.94 -9.56)"/>
  <path class="cls-4" d="M254.93,88.56c0-15.42,11.31-26.72,27.33-26.72s27.13,11.3,27.13,26.72v4.31H267.78c1.64,7.4,7.29,11.3,14.48,11.3,5.45,0,9.46-1.54,12-4.83h13.05c-3.8,9.66-13.05,15.93-25.07,15.93C266.24,115.27,254.93,104,254.93,88.56Zm41.51-5.45c-1.95-6.78-7.5-10.17-14.18-10.17-6.88,0-12.22,3.49-14.18,10.17Z" transform="translate(-6.94 -9.56)"/>
  <path class="cls-4" d="M316.37,87.53c0-17,10.07-25.69,25.07-25.69s25.07,8.63,25.07,25.69v26.4H354.28V87.53c0-9.66-5.13-14.28-12.84-14.28S328.6,77.87,328.6,87.53v26.4H316.37Z" transform="translate(-6.94 -9.56)"/>
  <path class="cls-4" d="M373.5,88.56c0-15.42,11.3-26.72,27.32-26.72S428,73.14,428,88.56v4.31H386.34c1.64,7.4,7.29,11.3,14.48,11.3,5.45,0,9.46-1.54,12-4.83h13c-3.8,9.66-13,15.93-25.07,15.93C384.8,115.27,373.5,104,373.5,88.56ZM415,83.11c-1.95-6.78-7.5-10.17-14.18-10.17-6.88,0-12.22,3.49-14.17,10.17Z" transform="translate(-6.94 -9.56)"/>
  <path class="cls-4" d="M432.88,89.07c0-16.13,11.3-27.23,27.43-27.23,15.93,0,27,10.79,27,27.13v25h-11.2V104c-3.08,7.5-10,11.3-18,11.3C445.82,115.27,432.88,106.43,432.88,89.07Zm42.23-.51c0-8.94-6-15.31-14.9-15.31s-15,6.37-15,15.31,6.06,15.3,15,15.3S475.11,97.49,475.11,88.56Z" transform="translate(-6.94 -9.56)"/>
</svg>
